%TF.GenerationSoftware,Altium Limited,Altium Designer,22.7.1 (60)*%
G04 Layer_Color=255*
%FSLAX43Y43*%
%MOMM*%
%TF.SameCoordinates,1608F762-6F3A-48E5-B14A-7665CB884DB8*%
%TF.FilePolarity,Positive*%
%TF.FileFunction,Pads,Bot*%
%TF.Part,Single*%
G01*
G75*
%TA.AperFunction,ComponentPad*%
%ADD31C,1.000*%
%ADD32R,1.000X1.000*%
%ADD33C,2.400*%
%ADD34C,2.100*%
%ADD35C,1.800*%
%ADD36R,1.800X1.800*%
%ADD37O,4.200X2.100*%
%ADD38C,1.500*%
%ADD39R,1.500X1.500*%
%ADD40O,1.508X3.016*%
%ADD41R,1.500X1.500*%
%ADD42C,1.600*%
%ADD43R,1.600X1.600*%
%TA.AperFunction,ViaPad*%
%ADD44C,3.200*%
D31*
X111750Y27750D02*
D03*
D32*
Y29020D02*
D03*
D33*
X65445Y2413D02*
D03*
X70445D02*
D03*
X83300D02*
D03*
X78300D02*
D03*
X101319D02*
D03*
X106319D02*
D03*
X122087D02*
D03*
X127087D02*
D03*
X116731D02*
D03*
X111731D02*
D03*
X8469Y2365D02*
D03*
X3469D02*
D03*
X13796Y2413D02*
D03*
X18796D02*
D03*
X29365D02*
D03*
X24365D02*
D03*
X42775D02*
D03*
X47775D02*
D03*
X58253D02*
D03*
X53253D02*
D03*
X3300Y28200D02*
D03*
Y23200D02*
D03*
D34*
X92000Y14000D02*
D03*
X96500Y42750D02*
D03*
X15250Y34750D02*
D03*
X127250Y43000D02*
D03*
X15250Y53500D02*
D03*
X79500Y39250D02*
D03*
X54500Y34250D02*
D03*
X58500D02*
D03*
X63250D02*
D03*
X67750Y34250D02*
D03*
X98000Y35500D02*
D03*
X127750Y37250D02*
D03*
X109000Y24527D02*
D03*
X9250Y39750D02*
D03*
X15250Y19750D02*
D03*
X93000Y32250D02*
D03*
Y28407D02*
D03*
Y24527D02*
D03*
X10000Y19750D02*
D03*
X27865Y37250D02*
D03*
X48006Y34099D02*
D03*
D35*
X84540Y42500D02*
D03*
X82040D02*
D03*
D36*
X79540D02*
D03*
D37*
X86790Y50000D02*
D03*
X77290D02*
D03*
D38*
X3250Y7675D02*
D03*
X127987Y25514D02*
D03*
X76960Y34250D02*
D03*
X79500D02*
D03*
X82040D02*
D03*
X84580D02*
D03*
X87120D02*
D03*
D39*
X3250Y19325D02*
D03*
X127987Y28054D02*
D03*
D40*
X124750Y51750D02*
D03*
X122350Y49750D02*
D03*
X116850D02*
D03*
D41*
X74420Y34250D02*
D03*
D42*
X9540Y49500D02*
D03*
X4460D02*
D03*
D43*
X7000D02*
D03*
D44*
X116080Y14310D02*
D03*
Y42310D02*
D03*
X14580D02*
D03*
Y14310D02*
D03*
%TF.MD5,e7ba13e43fec69ee191ac9ce9ed2b2f0*%
M02*
