%TF.GenerationSoftware,Altium Limited,Altium Designer,22.7.1 (60)*%
G04 Layer_Physical_Order=1*
G04 Layer_Color=255*
%FSLAX43Y43*%
%MOMM*%
%TF.SameCoordinates,1608F762-6F3A-48E5-B14A-7665CB884DB8*%
%TF.FilePolarity,Positive*%
%TF.FileFunction,Copper,L1,Top,Signal*%
%TF.Part,Single*%
G01*
G75*
%TA.AperFunction,SMDPad,CuDef*%
%ADD10R,1.346X0.508*%
%ADD11R,0.508X1.346*%
%ADD12O,1.450X0.600*%
%ADD13R,2.400X3.200*%
%ADD14R,1.100X1.400*%
%ADD15R,1.400X1.100*%
%ADD16R,0.800X1.200*%
%ADD17R,1.500X2.000*%
G04:AMPARAMS|DCode=18|XSize=1.62mm|YSize=0.6mm|CornerRadius=0.075mm|HoleSize=0mm|Usage=FLASHONLY|Rotation=90.000|XOffset=0mm|YOffset=0mm|HoleType=Round|Shape=RoundedRectangle|*
%AMROUNDEDRECTD18*
21,1,1.620,0.450,0,0,90.0*
21,1,1.470,0.600,0,0,90.0*
1,1,0.150,0.225,0.735*
1,1,0.150,0.225,-0.735*
1,1,0.150,-0.225,-0.735*
1,1,0.150,-0.225,0.735*
%
%ADD18ROUNDEDRECTD18*%
%ADD19R,1.499X0.432*%
%ADD20R,1.700X1.100*%
%ADD21R,1.100X1.700*%
G04:AMPARAMS|DCode=22|XSize=0.6mm|YSize=1.45mm|CornerRadius=0.051mm|HoleSize=0mm|Usage=FLASHONLY|Rotation=90.000|XOffset=0mm|YOffset=0mm|HoleType=Round|Shape=RoundedRectangle|*
%AMROUNDEDRECTD22*
21,1,0.600,1.348,0,0,90.0*
21,1,0.498,1.450,0,0,90.0*
1,1,0.102,0.674,0.249*
1,1,0.102,0.674,-0.249*
1,1,0.102,-0.674,-0.249*
1,1,0.102,-0.674,0.249*
%
%ADD22ROUNDEDRECTD22*%
G04:AMPARAMS|DCode=23|XSize=0.9mm|YSize=1.85mm|CornerRadius=0.225mm|HoleSize=0mm|Usage=FLASHONLY|Rotation=180.000|XOffset=0mm|YOffset=0mm|HoleType=Round|Shape=RoundedRectangle|*
%AMROUNDEDRECTD23*
21,1,0.900,1.400,0,0,180.0*
21,1,0.450,1.850,0,0,180.0*
1,1,0.450,-0.225,0.700*
1,1,0.450,0.225,0.700*
1,1,0.450,0.225,-0.700*
1,1,0.450,-0.225,-0.700*
%
%ADD23ROUNDEDRECTD23*%
%ADD24R,1.050X0.550*%
%ADD25R,2.900X5.400*%
%ADD26R,2.000X4.000*%
%ADD27R,4.000X2.000*%
%TA.AperFunction,Conductor*%
%ADD28C,0.500*%
%ADD29C,0.700*%
%ADD30C,0.200*%
%TA.AperFunction,ComponentPad*%
%ADD31C,1.000*%
%ADD32R,1.000X1.000*%
%ADD33C,2.400*%
%ADD34C,2.100*%
%ADD35C,1.800*%
%ADD36R,1.800X1.800*%
%ADD37O,4.200X2.100*%
%ADD38C,1.500*%
%ADD39R,1.500X1.500*%
%ADD40O,1.508X3.016*%
%ADD41R,1.500X1.500*%
%ADD42C,1.600*%
%ADD43R,1.600X1.600*%
%TA.AperFunction,ViaPad*%
%ADD44C,3.200*%
%ADD45C,0.650*%
G36*
X91020Y53350D02*
X91021Y53345D01*
X91020Y53340D01*
X91031Y53080D01*
X91034Y53065D01*
X91033Y53050D01*
X91115Y52536D01*
X91122Y52517D01*
X91124Y52497D01*
X91285Y52003D01*
X91295Y51985D01*
X91300Y51966D01*
X91536Y51502D01*
X91549Y51486D01*
X91557Y51468D01*
X91863Y51047D01*
X91878Y51034D01*
X91889Y51017D01*
X92257Y50649D01*
X92274Y50638D01*
X92287Y50623D01*
X92708Y50317D01*
X92726Y50309D01*
X92742Y50296D01*
X93206Y50060D01*
X93225Y50055D01*
X93243Y50045D01*
X93737Y49884D01*
X93757Y49882D01*
X93776Y49875D01*
X94290Y49793D01*
X94310Y49794D01*
X94330Y49790D01*
X94850D01*
X94870Y49794D01*
X94890Y49793D01*
X95404Y49875D01*
X95423Y49882D01*
X95443Y49884D01*
X95937Y50045D01*
X95955Y50055D01*
X95974Y50060D01*
X96438Y50296D01*
X96454Y50309D01*
X96472Y50317D01*
X96893Y50623D01*
X96906Y50638D01*
X96923Y50649D01*
X97291Y51017D01*
X97302Y51034D01*
X97317Y51047D01*
X97623Y51468D01*
X97631Y51486D01*
X97644Y51502D01*
X97880Y51966D01*
X97885Y51985D01*
X97895Y52003D01*
X98056Y52497D01*
X98058Y52517D01*
X98065Y52536D01*
X98147Y53050D01*
X98146Y53065D01*
X98149Y53080D01*
X98160Y53340D01*
X98159Y53345D01*
X98160Y53350D01*
Y56330D01*
X130410D01*
Y230D01*
X98155D01*
Y3235D01*
X98154Y3240D01*
X98155Y3245D01*
X98144Y3505D01*
X98141Y3520D01*
X98142Y3535D01*
X98060Y4049D01*
X98053Y4068D01*
X98051Y4088D01*
X97890Y4582D01*
X97880Y4600D01*
X97875Y4619D01*
X97639Y5083D01*
X97626Y5099D01*
X97618Y5117D01*
X97312Y5538D01*
X97297Y5551D01*
X97286Y5568D01*
X96918Y5936D01*
X96901Y5947D01*
X96888Y5962D01*
X96467Y6268D01*
X96449Y6276D01*
X96433Y6289D01*
X95969Y6525D01*
X95950Y6530D01*
X95932Y6540D01*
X95438Y6701D01*
X95418Y6703D01*
X95399Y6710D01*
X94885Y6792D01*
X94865Y6791D01*
X94845Y6795D01*
X94325D01*
X94305Y6791D01*
X94285Y6792D01*
X93771Y6710D01*
X93752Y6703D01*
X93732Y6701D01*
X93238Y6540D01*
X93220Y6530D01*
X93201Y6525D01*
X92737Y6289D01*
X92721Y6276D01*
X92703Y6268D01*
X92282Y5962D01*
X92269Y5947D01*
X92252Y5936D01*
X91884Y5568D01*
X91873Y5551D01*
X91858Y5538D01*
X91552Y5117D01*
X91544Y5099D01*
X91531Y5083D01*
X91295Y4619D01*
X91290Y4600D01*
X91280Y4582D01*
X91119Y4088D01*
X91117Y4068D01*
X91110Y4049D01*
X91028Y3535D01*
X91029Y3520D01*
X91026Y3505D01*
X91015Y3245D01*
X91016Y3240D01*
X91015Y3235D01*
Y255D01*
X39645D01*
Y3235D01*
X39644Y3240D01*
X39645Y3245D01*
X39634Y3505D01*
X39631Y3520D01*
X39632Y3535D01*
X39550Y4049D01*
X39543Y4068D01*
X39541Y4088D01*
X39380Y4582D01*
X39370Y4600D01*
X39365Y4619D01*
X39260Y4826D01*
X39326Y4934D01*
X39994D01*
Y4533D01*
X40033Y4338D01*
X40144Y4172D01*
X41488Y2828D01*
X41424Y2591D01*
Y2235D01*
X41516Y1892D01*
X41694Y1583D01*
X41945Y1332D01*
X42254Y1154D01*
X42597Y1062D01*
X42953D01*
X43296Y1154D01*
X43605Y1332D01*
X43856Y1583D01*
X44034Y1892D01*
X44126Y2235D01*
Y2591D01*
X44034Y2934D01*
X43856Y3243D01*
X43605Y3494D01*
X43296Y3672D01*
X42953Y3764D01*
X42597D01*
X42254Y3672D01*
X42149Y3612D01*
X41016Y4745D01*
Y5435D01*
X41006Y5484D01*
Y6336D01*
X39004D01*
Y5465D01*
X38883Y5426D01*
X38802Y5538D01*
X38787Y5551D01*
X38776Y5568D01*
X38408Y5936D01*
X38391Y5947D01*
X38378Y5962D01*
X37957Y6268D01*
X37939Y6276D01*
X37923Y6289D01*
X37459Y6525D01*
X37440Y6530D01*
X37422Y6540D01*
X36928Y6701D01*
X36908Y6703D01*
X36889Y6710D01*
X36375Y6792D01*
X36355Y6791D01*
X36335Y6795D01*
X35815D01*
X35795Y6791D01*
X35775Y6792D01*
X35261Y6710D01*
X35242Y6703D01*
X35222Y6701D01*
X34728Y6540D01*
X34710Y6530D01*
X34691Y6525D01*
X34227Y6289D01*
X34211Y6276D01*
X34193Y6268D01*
X33772Y5962D01*
X33759Y5947D01*
X33742Y5936D01*
X33374Y5568D01*
X33363Y5551D01*
X33348Y5538D01*
X33042Y5117D01*
X33034Y5099D01*
X33021Y5083D01*
X32785Y4619D01*
X32780Y4600D01*
X32770Y4582D01*
X32609Y4088D01*
X32607Y4068D01*
X32600Y4049D01*
X32518Y3535D01*
X32519Y3520D01*
X32516Y3505D01*
X32505Y3245D01*
X32506Y3240D01*
X32505Y3235D01*
Y255D01*
X255D01*
Y56355D01*
X32505D01*
Y53375D01*
X32506Y53370D01*
X32505Y53365D01*
X32516Y53105D01*
X32519Y53090D01*
X32518Y53075D01*
X32536Y52966D01*
X32453Y52870D01*
X30480D01*
Y51770D01*
X32580D01*
Y52201D01*
X32707Y52221D01*
X32770Y52028D01*
X32780Y52010D01*
X32785Y51991D01*
X33021Y51527D01*
X33034Y51511D01*
X33042Y51493D01*
X33348Y51072D01*
X33363Y51059D01*
X33374Y51042D01*
X33742Y50674D01*
X33759Y50663D01*
X33772Y50648D01*
X34193Y50342D01*
X34211Y50334D01*
X34227Y50321D01*
X34691Y50085D01*
X34710Y50080D01*
X34728Y50070D01*
X35222Y49909D01*
X35242Y49907D01*
X35261Y49900D01*
X35775Y49818D01*
X35795Y49819D01*
X35815Y49815D01*
X36335D01*
X36355Y49819D01*
X36375Y49818D01*
X36889Y49900D01*
X36908Y49907D01*
X36928Y49909D01*
X37422Y50070D01*
X37440Y50080D01*
X37459Y50085D01*
X37923Y50321D01*
X37939Y50334D01*
X37957Y50342D01*
X38378Y50648D01*
X38391Y50663D01*
X38408Y50674D01*
X38776Y51042D01*
X38787Y51059D01*
X38802Y51072D01*
X39108Y51493D01*
X39116Y51511D01*
X39129Y51527D01*
X39365Y51991D01*
X39370Y52010D01*
X39380Y52028D01*
X39541Y52522D01*
X39543Y52542D01*
X39550Y52561D01*
X39632Y53075D01*
X39631Y53090D01*
X39634Y53105D01*
X39645Y53365D01*
X39644Y53370D01*
X39645Y53375D01*
Y56355D01*
X91020D01*
Y53350D01*
D02*
G37*
%LPC*%
G36*
X65570Y53200D02*
X64720D01*
Y52100D01*
X65570D01*
Y53200D01*
D02*
G37*
G36*
X51680D02*
X50830D01*
Y52100D01*
X51680D01*
Y53200D01*
D02*
G37*
G36*
X64520D02*
X63670D01*
Y52100D01*
X64520D01*
Y53200D01*
D02*
G37*
G36*
X50630D02*
X49780D01*
Y52100D01*
X50630D01*
Y53200D01*
D02*
G37*
G36*
X15408Y54701D02*
X15092D01*
X14786Y54619D01*
X14513Y54461D01*
X14289Y54237D01*
X14131Y53964D01*
X14049Y53658D01*
Y53342D01*
X14131Y53036D01*
X14289Y52763D01*
X14513Y52539D01*
X14786Y52381D01*
X14841Y52366D01*
Y48919D01*
X12331Y46409D01*
X9951D01*
Y46851D01*
X9804D01*
Y48586D01*
X9907Y48614D01*
X10124Y48739D01*
X10301Y48916D01*
X10426Y49133D01*
X10491Y49375D01*
Y49625D01*
X10426Y49867D01*
X10301Y50084D01*
X10124Y50261D01*
X9907Y50386D01*
X9665Y50451D01*
X9415D01*
X9173Y50386D01*
X8956Y50261D01*
X8779Y50084D01*
X8654Y49867D01*
X8589Y49625D01*
Y49375D01*
X8654Y49133D01*
X8779Y48916D01*
X8956Y48739D01*
X8986Y48722D01*
Y46851D01*
X8607D01*
X8500Y46900D01*
X8442Y46900D01*
X7850D01*
Y46000D01*
Y45100D01*
X8442D01*
X8500Y45100D01*
X8607Y45149D01*
X8627D01*
X9951D01*
Y45591D01*
X12500D01*
X12656Y45622D01*
X12789Y45711D01*
X15539Y48461D01*
X15628Y48594D01*
X15659Y48750D01*
Y52366D01*
X15714Y52381D01*
X15987Y52539D01*
X16211Y52763D01*
X16369Y53036D01*
X16384Y53091D01*
X20781D01*
X21129Y52743D01*
Y51859D01*
X18632D01*
X18470Y51926D01*
X18280D01*
X18105Y51854D01*
X17971Y51720D01*
X17899Y51545D01*
Y51355D01*
X17971Y51180D01*
X18105Y51046D01*
X18280Y50974D01*
X18470D01*
X18632Y51041D01*
X21129D01*
Y50519D01*
X21871D01*
Y49531D01*
X21804Y49369D01*
Y49180D01*
X21876Y49005D01*
X22010Y48871D01*
X22185Y48799D01*
X22375D01*
X22550Y48871D01*
X22684Y49005D01*
X22756Y49180D01*
Y49369D01*
X22689Y49531D01*
Y50519D01*
X25431D01*
Y52821D01*
X22208D01*
X21239Y53789D01*
X21106Y53878D01*
X20950Y53909D01*
X16384D01*
X16369Y53964D01*
X16211Y54237D01*
X15987Y54461D01*
X15714Y54619D01*
X15408Y54701D01*
D02*
G37*
G36*
X30280Y52870D02*
X28180D01*
Y51770D01*
X30280D01*
Y52870D01*
D02*
G37*
G36*
X65570Y51900D02*
X64720D01*
Y50800D01*
X65570D01*
Y51900D01*
D02*
G37*
G36*
X64520D02*
X63670D01*
Y50800D01*
X64520D01*
Y51900D01*
D02*
G37*
G36*
X51680D02*
X50830D01*
Y50800D01*
X51680D01*
Y51900D01*
D02*
G37*
G36*
X50630D02*
X49780D01*
Y50800D01*
X50630D01*
Y51900D01*
D02*
G37*
G36*
X32580Y51570D02*
X30480D01*
Y50470D01*
X32580D01*
Y51570D01*
D02*
G37*
G36*
X30280D02*
X28180D01*
Y50470D01*
X30280D01*
Y51570D01*
D02*
G37*
G36*
X87840Y51261D02*
X86890D01*
Y50100D01*
X89088D01*
X89058Y50326D01*
X88932Y50630D01*
X88732Y50892D01*
X88470Y51092D01*
X88166Y51218D01*
X87840Y51261D01*
D02*
G37*
G36*
X86690D02*
X85740D01*
X85414Y51218D01*
X85110Y51092D01*
X84848Y50892D01*
X84648Y50630D01*
X84522Y50326D01*
X84492Y50100D01*
X86690D01*
Y51261D01*
D02*
G37*
G36*
X78340D02*
X77390D01*
Y50100D01*
X79588D01*
X79558Y50326D01*
X79432Y50630D01*
X79232Y50892D01*
X78970Y51092D01*
X78666Y51218D01*
X78340Y51261D01*
D02*
G37*
G36*
X77190D02*
X76240D01*
X75914Y51218D01*
X75610Y51092D01*
X75348Y50892D01*
X75148Y50630D01*
X75022Y50326D01*
X74992Y50100D01*
X77190D01*
Y51261D01*
D02*
G37*
G36*
X122450Y51453D02*
Y49850D01*
X123312D01*
Y50504D01*
X123279Y50753D01*
X123183Y50985D01*
X123030Y51184D01*
X122831Y51337D01*
X122599Y51433D01*
X122450Y51453D01*
D02*
G37*
G36*
X122250Y51453D02*
X122101Y51433D01*
X121869Y51337D01*
X121670Y51184D01*
X121517Y50985D01*
X121421Y50753D01*
X121388Y50504D01*
Y49850D01*
X122250D01*
Y51453D01*
D02*
G37*
G36*
X8000Y50500D02*
X7100D01*
Y49600D01*
X8000D01*
Y50500D01*
D02*
G37*
G36*
X6900D02*
X6000D01*
Y49600D01*
X6900D01*
Y50500D01*
D02*
G37*
G36*
X89088Y49900D02*
X86890D01*
Y48739D01*
X87840D01*
X88166Y48782D01*
X88470Y48908D01*
X88732Y49108D01*
X88932Y49370D01*
X89058Y49674D01*
X89088Y49900D01*
D02*
G37*
G36*
X86690D02*
X84492D01*
X84522Y49674D01*
X84648Y49370D01*
X84848Y49108D01*
X85110Y48908D01*
X85414Y48782D01*
X85740Y48739D01*
X86690D01*
Y49900D01*
D02*
G37*
G36*
X79588D02*
X77390D01*
Y48739D01*
X78340D01*
X78666Y48782D01*
X78970Y48908D01*
X79232Y49108D01*
X79432Y49370D01*
X79558Y49674D01*
X79588Y49900D01*
D02*
G37*
G36*
X77190D02*
X74992D01*
X75022Y49674D01*
X75148Y49370D01*
X75348Y49108D01*
X75610Y48908D01*
X75914Y48782D01*
X76240Y48739D01*
X77190D01*
Y49900D01*
D02*
G37*
G36*
X8000Y49400D02*
X7100D01*
Y48500D01*
X8000D01*
Y49400D01*
D02*
G37*
G36*
X6900D02*
X6000D01*
Y48500D01*
X6900D01*
Y49400D01*
D02*
G37*
G36*
X116850Y51417D02*
X116614Y51386D01*
X116394Y51295D01*
X116205Y51149D01*
X116059Y50960D01*
X115968Y50740D01*
X115937Y50504D01*
Y48996D01*
X115968Y48760D01*
X116059Y48540D01*
X116205Y48351D01*
X116394Y48205D01*
X116614Y48114D01*
X116850Y48083D01*
X117086Y48114D01*
X117306Y48205D01*
X117495Y48351D01*
X117641Y48540D01*
X117732Y48760D01*
X117763Y48996D01*
Y50504D01*
X117732Y50740D01*
X117641Y50960D01*
X117495Y51149D01*
X117306Y51295D01*
X117086Y51386D01*
X116850Y51417D01*
D02*
G37*
G36*
X123312Y49650D02*
X122450D01*
Y48047D01*
X122599Y48067D01*
X122831Y48163D01*
X123030Y48316D01*
X123183Y48515D01*
X123279Y48747D01*
X123312Y48996D01*
Y49650D01*
D02*
G37*
G36*
X122250D02*
X121388D01*
Y48996D01*
X121421Y48747D01*
X121517Y48515D01*
X121670Y48316D01*
X121869Y48163D01*
X122101Y48067D01*
X122250Y48047D01*
Y49650D01*
D02*
G37*
G36*
X102584Y45900D02*
X101934D01*
Y45100D01*
X102584D01*
Y45900D01*
D02*
G37*
G36*
X4585Y50451D02*
X4335D01*
X4093Y50386D01*
X3876Y50261D01*
X3699Y50084D01*
X3574Y49867D01*
X3509Y49625D01*
Y49375D01*
X3574Y49133D01*
X3699Y48916D01*
X3876Y48739D01*
X4093Y48614D01*
X4196Y48586D01*
Y46851D01*
X4049D01*
Y45739D01*
X4041Y45700D01*
Y45050D01*
X4031Y45000D01*
Y44500D01*
X4062Y44344D01*
X4151Y44211D01*
X5091Y43271D01*
Y39054D01*
X5004Y38996D01*
X4921Y38872D01*
X4892Y38725D01*
Y37325D01*
X4921Y37178D01*
X5004Y37054D01*
X5128Y36971D01*
X5275Y36942D01*
X5725D01*
X5872Y36971D01*
X5996Y37054D01*
X6079Y37178D01*
X6108Y37325D01*
Y37616D01*
X7525D01*
X7681Y37647D01*
X7814Y37736D01*
X8737Y38659D01*
X8786Y38631D01*
X9092Y38549D01*
X9408D01*
X9714Y38631D01*
X9987Y38789D01*
X10211Y39013D01*
X10369Y39286D01*
X10451Y39592D01*
Y39908D01*
X10369Y40214D01*
X10211Y40487D01*
X9987Y40711D01*
X9714Y40869D01*
X9408Y40951D01*
X9092D01*
X8786Y40869D01*
X8513Y40711D01*
X8289Y40487D01*
X8131Y40214D01*
X8049Y39908D01*
Y39592D01*
X8131Y39286D01*
X8159Y39237D01*
X7356Y38434D01*
X6108D01*
Y38725D01*
X6079Y38872D01*
X5996Y38996D01*
X5909Y39054D01*
Y43440D01*
X5878Y43596D01*
X5789Y43729D01*
X4849Y44669D01*
Y44960D01*
X4859Y45010D01*
Y45149D01*
X5393D01*
X5500Y45100D01*
X5558Y45100D01*
X6150D01*
Y46000D01*
Y46900D01*
X5558D01*
X5500Y46900D01*
X5393Y46851D01*
X5014D01*
Y48722D01*
X5044Y48739D01*
X5221Y48916D01*
X5346Y49133D01*
X5411Y49375D01*
Y49625D01*
X5346Y49867D01*
X5221Y50084D01*
X5044Y50261D01*
X4827Y50386D01*
X4585Y50451D01*
D02*
G37*
G36*
X7006Y46900D02*
X6893Y46900D01*
X6350D01*
Y46000D01*
Y45100D01*
X6873D01*
X6987Y45100D01*
X7107Y45100D01*
X7650D01*
Y46000D01*
Y46900D01*
X7127D01*
X7006Y46900D01*
D02*
G37*
G36*
X102584Y44900D02*
X101934D01*
Y44100D01*
X102584D01*
Y44900D01*
D02*
G37*
G36*
X65570Y45000D02*
X64720D01*
Y43900D01*
X65570D01*
Y45000D01*
D02*
G37*
G36*
X51680D02*
X50830D01*
Y43900D01*
X51680D01*
Y45000D01*
D02*
G37*
G36*
X50630D02*
X49780D01*
Y43900D01*
X50630D01*
Y45000D01*
D02*
G37*
G36*
X59850Y50600D02*
X59350D01*
Y50551D01*
X53899D01*
Y49627D01*
X53306Y49034D01*
X53100D01*
X52944Y49003D01*
X52811Y48914D01*
X51986Y48089D01*
X51897Y47956D01*
X51866Y47800D01*
Y34423D01*
X51897Y34267D01*
X51986Y34134D01*
X53591Y32529D01*
Y27305D01*
X52999D01*
Y25903D01*
X55001D01*
Y27305D01*
X54409D01*
Y30958D01*
X54526Y31006D01*
X56529Y29003D01*
X56591Y28854D01*
Y27305D01*
X55999D01*
Y25903D01*
X58001D01*
Y27305D01*
X57409D01*
Y28854D01*
X57476Y29016D01*
Y29205D01*
X57404Y29380D01*
X57270Y29514D01*
X57108Y29581D01*
X55060Y31629D01*
Y33186D01*
X55237Y33289D01*
X55461Y33513D01*
X55619Y33786D01*
X55701Y34092D01*
Y34408D01*
X55619Y34714D01*
X55461Y34987D01*
X55237Y35211D01*
X54964Y35369D01*
X54658Y35451D01*
X54342D01*
X54036Y35369D01*
X54016Y35358D01*
X53659Y35715D01*
Y41119D01*
X53786Y41203D01*
X53825Y41187D01*
X62830D01*
X62841Y41179D01*
Y35384D01*
X62786Y35369D01*
X62513Y35211D01*
X62289Y34987D01*
X62282Y34975D01*
X62159Y35007D01*
Y38486D01*
X62254Y38580D01*
X62326Y38755D01*
Y38945D01*
X62254Y39120D01*
X62120Y39254D01*
X61945Y39326D01*
X61755D01*
X61580Y39254D01*
X61446Y39120D01*
X61374Y38945D01*
Y38868D01*
X61372Y38866D01*
X61341Y38709D01*
Y24313D01*
X58001D01*
Y24605D01*
X55999D01*
Y24313D01*
X55001D01*
Y24605D01*
X52999D01*
Y24313D01*
X50696D01*
Y24605D01*
X48694D01*
Y24313D01*
X47831D01*
Y24601D01*
X45829D01*
Y24313D01*
X44981D01*
Y24605D01*
X42979D01*
Y24313D01*
X41946D01*
Y24605D01*
X39944D01*
Y24313D01*
X30159D01*
Y28550D01*
X30128Y28706D01*
X30039Y28839D01*
X21909Y36969D01*
Y37149D01*
X22651D01*
Y38891D01*
X25646D01*
X26774Y37763D01*
X26746Y37714D01*
X26664Y37408D01*
Y37092D01*
X26746Y36786D01*
X26904Y36513D01*
X27128Y36289D01*
X27401Y36131D01*
X27707Y36049D01*
X28023D01*
X28329Y36131D01*
X28378Y36159D01*
X29012Y35525D01*
X29145Y35436D01*
X29301Y35405D01*
X36172D01*
X36328Y35436D01*
X36461Y35525D01*
X40577Y39641D01*
X40849D01*
Y37199D01*
X44051D01*
Y42901D01*
X40849D01*
Y40459D01*
X40408D01*
X40252Y40428D01*
X40119Y40339D01*
X36003Y36223D01*
X29470D01*
X28956Y36737D01*
X28984Y36786D01*
X29066Y37092D01*
Y37408D01*
X28984Y37714D01*
X28826Y37987D01*
X28602Y38211D01*
X28329Y38369D01*
X28023Y38451D01*
X27707D01*
X27401Y38369D01*
X27352Y38341D01*
X26104Y39589D01*
X25971Y39678D01*
X25815Y39709D01*
X22651D01*
Y41451D01*
X20927D01*
X20309Y42069D01*
Y44602D01*
X20436Y44659D01*
X20580Y44599D01*
X20770D01*
X20932Y44666D01*
X21185D01*
X21214Y44551D01*
X21214Y44551D01*
X21214D01*
X21214Y44551D01*
Y43699D01*
X22566D01*
Y44551D01*
X22566D01*
Y44649D01*
X22566D01*
Y45501D01*
X22566D01*
Y45599D01*
X22566D01*
Y46451D01*
X21214D01*
Y46434D01*
X20193D01*
X20036Y46403D01*
X19904Y46314D01*
X19611Y46021D01*
X19522Y45889D01*
X19491Y45732D01*
Y41900D01*
X19522Y41744D01*
X19611Y41611D01*
X20349Y40873D01*
Y37149D01*
X21091D01*
Y36800D01*
X21122Y36644D01*
X21211Y36511D01*
X29341Y28381D01*
Y24313D01*
X28866D01*
Y24605D01*
X26864D01*
Y24313D01*
X26501D01*
Y24605D01*
X24499D01*
Y24313D01*
X24096D01*
Y24601D01*
X22094D01*
Y24313D01*
X21104D01*
Y24605D01*
X19101D01*
Y23203D01*
X20146D01*
Y20562D01*
X20117Y20518D01*
X20100Y20430D01*
Y18960D01*
X20117Y18872D01*
X20167Y18797D01*
X20242Y18747D01*
X20330Y18730D01*
X20780D01*
X20868Y18747D01*
X20943Y18797D01*
X20993Y18872D01*
X21010Y18960D01*
Y20430D01*
X20993Y20518D01*
X20964Y20562D01*
Y23203D01*
X21104D01*
Y23495D01*
X22094D01*
Y23199D01*
X22686D01*
Y20562D01*
X22657Y20518D01*
X22640Y20430D01*
Y18960D01*
X22657Y18872D01*
X22707Y18797D01*
X22782Y18747D01*
X22870Y18730D01*
X23320D01*
X23408Y18747D01*
X23483Y18797D01*
X23533Y18872D01*
X23550Y18960D01*
Y20430D01*
X23533Y20518D01*
X23504Y20562D01*
Y23199D01*
X24096D01*
Y23495D01*
X24499D01*
Y23203D01*
X25226D01*
Y20562D01*
X25197Y20518D01*
X25180Y20430D01*
Y18960D01*
X25197Y18872D01*
X25247Y18797D01*
X25322Y18747D01*
X25410Y18730D01*
X25860D01*
X25948Y18747D01*
X26023Y18797D01*
X26073Y18872D01*
X26090Y18960D01*
Y20430D01*
X26073Y20518D01*
X26044Y20562D01*
Y23203D01*
X26501D01*
Y23495D01*
X26864D01*
Y23203D01*
X27766D01*
Y20562D01*
X27737Y20518D01*
X27720Y20430D01*
Y18960D01*
X27737Y18872D01*
X27787Y18797D01*
X27862Y18747D01*
X27950Y18730D01*
X28400D01*
X28488Y18747D01*
X28563Y18797D01*
X28613Y18872D01*
X28630Y18960D01*
Y20430D01*
X28613Y20518D01*
X28584Y20562D01*
Y23203D01*
X28866D01*
Y23495D01*
X29895D01*
X29943Y23368D01*
X29882Y23222D01*
X29156Y22495D01*
X29067Y22362D01*
X29036Y22206D01*
Y20562D01*
X29007Y20518D01*
X28990Y20430D01*
Y18960D01*
X29007Y18872D01*
X29057Y18797D01*
X29132Y18747D01*
X29220Y18730D01*
X29670D01*
X29758Y18747D01*
X29833Y18797D01*
X29883Y18872D01*
X29900Y18960D01*
Y20430D01*
X29883Y20518D01*
X29854Y20562D01*
Y22037D01*
X30461Y22643D01*
X30623Y22710D01*
X30757Y22844D01*
X30829Y23019D01*
Y23209D01*
X30763Y23368D01*
X30811Y23495D01*
X39944D01*
Y23203D01*
X40485D01*
Y20562D01*
X40456Y20518D01*
X40439Y20430D01*
Y18960D01*
X40456Y18872D01*
X40506Y18797D01*
X40581Y18747D01*
X40669Y18730D01*
X41119D01*
X41207Y18747D01*
X41282Y18797D01*
X41332Y18872D01*
X41349Y18960D01*
Y20430D01*
X41332Y20518D01*
X41303Y20562D01*
Y23203D01*
X41946D01*
Y23495D01*
X42979D01*
Y23203D01*
X43025D01*
Y20562D01*
X42996Y20518D01*
X42979Y20430D01*
Y19128D01*
X42852Y19076D01*
X42619Y19308D01*
Y20430D01*
X42602Y20518D01*
X42552Y20593D01*
X42477Y20643D01*
X42389Y20660D01*
X41939D01*
X41851Y20643D01*
X41776Y20593D01*
X41726Y20518D01*
X41709Y20430D01*
Y18960D01*
X41726Y18872D01*
X41776Y18797D01*
X41851Y18747D01*
X41939Y18730D01*
X42041D01*
X44439Y16332D01*
X44572Y16243D01*
X44728Y16212D01*
X48471D01*
X48519Y16095D01*
X48153Y15728D01*
X48042Y15562D01*
X48003Y15367D01*
Y13305D01*
X48042Y13110D01*
X48059Y13085D01*
Y12874D01*
X47941Y12826D01*
X47805Y12962D01*
Y13255D01*
X47766Y13450D01*
X47699Y13550D01*
Y14040D01*
X47682Y14128D01*
X47632Y14203D01*
X47557Y14253D01*
X47469Y14270D01*
X47019D01*
X46931Y14253D01*
X46856Y14203D01*
X46806Y14128D01*
X46789Y14040D01*
Y13525D01*
X46772Y13500D01*
X46733Y13305D01*
X46772Y13110D01*
X46783Y13093D01*
Y12893D01*
X46656Y12841D01*
X46535Y12962D01*
Y13255D01*
X46496Y13450D01*
X46429Y13550D01*
Y14040D01*
X46412Y14128D01*
X46362Y14203D01*
X46287Y14253D01*
X46199Y14270D01*
X45749D01*
X45661Y14253D01*
X45586Y14203D01*
X45536Y14128D01*
X45519Y14040D01*
Y13525D01*
X45502Y13500D01*
X45463Y13305D01*
X45502Y13110D01*
X45513Y13093D01*
Y12893D01*
X45386Y12841D01*
X45265Y12962D01*
Y13255D01*
X45226Y13450D01*
X45159Y13550D01*
Y14040D01*
X45142Y14128D01*
X45092Y14203D01*
X45017Y14253D01*
X44929Y14270D01*
X44479D01*
X44391Y14253D01*
X44316Y14203D01*
X44266Y14128D01*
X44249Y14040D01*
Y13525D01*
X44232Y13500D01*
X44193Y13305D01*
X44232Y13110D01*
X44243Y13093D01*
Y12750D01*
X44249Y12723D01*
Y12570D01*
X44266Y12482D01*
X44316Y12407D01*
X44391Y12357D01*
X44433Y12349D01*
X46934Y9848D01*
X46885Y9731D01*
X46618D01*
X43945Y12404D01*
Y13305D01*
X43945Y13305D01*
X43906Y13500D01*
X43889Y13525D01*
Y14040D01*
X43872Y14128D01*
X43822Y14203D01*
X43747Y14253D01*
X43659Y14270D01*
X43209D01*
X43121Y14253D01*
X43046Y14203D01*
X42996Y14128D01*
X42979Y14040D01*
Y13525D01*
X42962Y13500D01*
X42923Y13305D01*
Y12342D01*
X42805Y12291D01*
X42725Y12354D01*
Y13255D01*
X42686Y13450D01*
X42619Y13550D01*
Y14040D01*
X42602Y14128D01*
X42552Y14203D01*
X42477Y14253D01*
X42389Y14270D01*
X41939D01*
X41851Y14253D01*
X41776Y14203D01*
X41726Y14128D01*
X41709Y14040D01*
Y13525D01*
X41692Y13500D01*
X41653Y13305D01*
X41692Y13110D01*
X41703Y13093D01*
Y12158D01*
X41605Y12105D01*
X41580Y12101D01*
X41455Y12227D01*
Y13255D01*
X41416Y13450D01*
X41349Y13550D01*
Y14040D01*
X41332Y14128D01*
X41282Y14203D01*
X41207Y14253D01*
X41119Y14270D01*
X40669D01*
X40581Y14253D01*
X40506Y14203D01*
X40456Y14128D01*
X40439Y14040D01*
Y13525D01*
X40422Y13500D01*
X40383Y13305D01*
X40422Y13110D01*
X40433Y13093D01*
Y12015D01*
X40472Y11820D01*
X40583Y11654D01*
X41751Y10486D01*
X41666Y10394D01*
X41500Y10505D01*
X41305Y10544D01*
X33704D01*
X30796Y13451D01*
X30630Y13562D01*
X30435Y13601D01*
X29900D01*
Y14040D01*
X29883Y14128D01*
X29833Y14203D01*
X29758Y14253D01*
X29670Y14270D01*
X29220D01*
X29132Y14253D01*
X29057Y14203D01*
X29007Y14128D01*
X28990Y14040D01*
Y13525D01*
X28973Y13500D01*
X28934Y13305D01*
X28973Y13110D01*
X28984Y13093D01*
Y13090D01*
X28990Y13063D01*
Y12570D01*
X29007Y12482D01*
X29057Y12407D01*
X29132Y12357D01*
X29220Y12340D01*
X29670D01*
X29758Y12357D01*
X29833Y12407D01*
X29883Y12482D01*
X29900Y12570D01*
Y12579D01*
X30223D01*
X33131Y9672D01*
X33297Y9561D01*
X33492Y9522D01*
X41093D01*
X46975Y3641D01*
X46962Y3504D01*
X46945Y3494D01*
X46694Y3243D01*
X46516Y2934D01*
X46424Y2591D01*
Y2235D01*
X46516Y1892D01*
X46694Y1583D01*
X46945Y1332D01*
X47254Y1154D01*
X47597Y1062D01*
X47953D01*
X48296Y1154D01*
X48605Y1332D01*
X48856Y1583D01*
X49034Y1892D01*
X49126Y2235D01*
Y2591D01*
X49034Y2934D01*
X48856Y3243D01*
X48605Y3494D01*
X48296Y3672D01*
X48022Y3746D01*
Y3827D01*
X47983Y4022D01*
X47872Y4188D01*
X47872Y4188D01*
X46878Y5182D01*
X46963Y5274D01*
X47129Y5163D01*
X47324Y5124D01*
X49511D01*
Y4634D01*
X50913D01*
Y6636D01*
X49511D01*
Y6146D01*
X47536D01*
X46506Y7176D01*
X46568Y7293D01*
X52640D01*
X53180Y6753D01*
X53131Y6636D01*
X52211D01*
Y4634D01*
X52674D01*
Y3639D01*
X52423Y3494D01*
X52172Y3243D01*
X51994Y2934D01*
X51902Y2591D01*
Y2235D01*
X51994Y1892D01*
X52172Y1583D01*
X52423Y1332D01*
X52732Y1154D01*
X53075Y1062D01*
X53431D01*
X53774Y1154D01*
X54083Y1332D01*
X54334Y1583D01*
X54512Y1892D01*
X54604Y2235D01*
Y2591D01*
X54512Y2934D01*
X54334Y3243D01*
X54083Y3494D01*
X53774Y3672D01*
X53491Y3748D01*
Y4634D01*
X53613D01*
Y6154D01*
X53730Y6203D01*
X56996Y2937D01*
X56994Y2934D01*
X56902Y2591D01*
Y2235D01*
X56994Y1892D01*
X57172Y1583D01*
X57423Y1332D01*
X57732Y1154D01*
X58075Y1062D01*
X58431D01*
X58774Y1154D01*
X59083Y1332D01*
X59334Y1583D01*
X59512Y1892D01*
X59604Y2235D01*
Y2591D01*
X59512Y2934D01*
X59334Y3243D01*
X59083Y3494D01*
X58774Y3672D01*
X58431Y3764D01*
X58075D01*
X57732Y3672D01*
X57715Y3663D01*
X56152Y5226D01*
X56215Y5343D01*
X56274Y5331D01*
X62084D01*
Y4841D01*
X63486D01*
Y6843D01*
X62084D01*
Y6353D01*
X56486D01*
X53396Y9443D01*
X53444Y9560D01*
X63153D01*
X65753Y6960D01*
X65704Y6843D01*
X64784D01*
Y4841D01*
X64934D01*
Y3675D01*
X64924Y3672D01*
X64615Y3494D01*
X64364Y3243D01*
X64186Y2934D01*
X64094Y2591D01*
Y2235D01*
X64186Y1892D01*
X64364Y1583D01*
X64615Y1332D01*
X64924Y1154D01*
X65267Y1062D01*
X65623D01*
X65966Y1154D01*
X66275Y1332D01*
X66526Y1583D01*
X66704Y1892D01*
X66796Y2235D01*
Y2591D01*
X66704Y2934D01*
X66526Y3243D01*
X66275Y3494D01*
X65966Y3672D01*
X65956Y3675D01*
Y4841D01*
X66186D01*
Y6361D01*
X66303Y6410D01*
X67670Y5043D01*
Y4550D01*
X67709Y4354D01*
X67820Y4189D01*
X69162Y2846D01*
X69094Y2591D01*
Y2235D01*
X69186Y1892D01*
X69364Y1583D01*
X69615Y1332D01*
X69924Y1154D01*
X70267Y1062D01*
X70623D01*
X70966Y1154D01*
X71275Y1332D01*
X71526Y1583D01*
X71704Y1892D01*
X71796Y2235D01*
Y2591D01*
X71704Y2934D01*
X71526Y3243D01*
X71275Y3494D01*
X70966Y3672D01*
X70623Y3764D01*
X70267D01*
X69924Y3672D01*
X69833Y3620D01*
X68692Y4761D01*
Y5254D01*
X68653Y5450D01*
X68542Y5616D01*
X63864Y10294D01*
X63913Y10411D01*
X70358D01*
X74789Y5981D01*
X74949Y5874D01*
Y4841D01*
X76351D01*
Y6843D01*
X75499D01*
X75450Y6853D01*
X75362D01*
X71070Y11145D01*
X71118Y11262D01*
X71287D01*
X75036Y7513D01*
X75202Y7402D01*
X75397Y7363D01*
X79007D01*
X82652Y3719D01*
Y3599D01*
X82470Y3494D01*
X82219Y3243D01*
X82041Y2934D01*
X81949Y2591D01*
Y2235D01*
X82041Y1892D01*
X82219Y1583D01*
X82470Y1332D01*
X82779Y1154D01*
X83122Y1062D01*
X83478D01*
X83821Y1154D01*
X84130Y1332D01*
X84381Y1583D01*
X84559Y1892D01*
X84651Y2235D01*
Y2591D01*
X84559Y2934D01*
X84381Y3243D01*
X84130Y3494D01*
X83821Y3672D01*
X83673Y3712D01*
Y3930D01*
X83634Y4126D01*
X83524Y4292D01*
X80930Y6885D01*
X80993Y7002D01*
X81094Y6982D01*
X96930D01*
X98299Y5613D01*
Y4333D01*
X99701D01*
Y6335D01*
X99022D01*
X97503Y7854D01*
X97337Y7965D01*
X97141Y8004D01*
X81306D01*
X79677Y9632D01*
X79511Y9743D01*
X79316Y9782D01*
X75416D01*
X68966Y16231D01*
X68800Y16342D01*
X68605Y16381D01*
X61516D01*
X61468Y16498D01*
X68961Y23991D01*
X70999D01*
Y23671D01*
X70872Y23625D01*
X70770Y23693D01*
X70614Y23724D01*
X70234D01*
X70072Y23791D01*
X69882D01*
X69707Y23719D01*
X69573Y23585D01*
X69501Y23410D01*
Y23221D01*
X69573Y23046D01*
X69707Y22912D01*
X69882Y22839D01*
X70072D01*
X70234Y22906D01*
X70444D01*
X70811Y22540D01*
X70784Y22442D01*
X70763Y22413D01*
X68795D01*
X68760Y22406D01*
X67899D01*
Y22217D01*
X67845Y22181D01*
X67655D01*
X67480Y22109D01*
X67346Y21975D01*
X67274Y21800D01*
Y21610D01*
X67346Y21435D01*
X67480Y21301D01*
X67655Y21229D01*
X67787D01*
X67899Y21125D01*
Y21062D01*
X67850Y20955D01*
X67850Y20897D01*
Y20305D01*
X69650D01*
Y20897D01*
X69650Y20955D01*
X69601Y21062D01*
Y21595D01*
X70950D01*
Y21300D01*
X71823D01*
X72696D01*
Y21639D01*
X72810Y21715D01*
X73513Y22417D01*
X77891Y18039D01*
Y17196D01*
X77600D01*
Y16323D01*
Y15450D01*
X77742D01*
X77795Y15323D01*
X77461Y14989D01*
X77372Y14856D01*
X77341Y14700D01*
Y14101D01*
X77107D01*
X77000Y14150D01*
Y14150D01*
X77000Y14150D01*
X76350D01*
Y13250D01*
X76150D01*
Y14150D01*
X76077D01*
X76028Y14267D01*
X76189Y14428D01*
X76278Y14561D01*
X76309Y14717D01*
Y15499D01*
X77046D01*
Y15450D01*
X77400D01*
Y16323D01*
Y17196D01*
X77105D01*
Y18122D01*
X77074Y18279D01*
X76985Y18411D01*
X76601Y18795D01*
X76469Y18884D01*
X76312Y18915D01*
X73823D01*
X73667Y18884D01*
X73534Y18795D01*
X72765Y18025D01*
X72647Y18074D01*
Y19195D01*
Y19991D01*
X73243D01*
X73405Y19924D01*
X73595D01*
X73770Y19996D01*
X73904Y20130D01*
X73976Y20305D01*
Y20495D01*
X73904Y20670D01*
X73770Y20804D01*
X73595Y20876D01*
X73405D01*
X73243Y20809D01*
X72696D01*
Y21100D01*
X71823D01*
X70950D01*
Y20746D01*
X70999D01*
Y20009D01*
X70423D01*
X70267Y19978D01*
X70140Y19893D01*
X70105D01*
X69930Y19821D01*
X69796Y19687D01*
X69777Y19640D01*
X69650Y19665D01*
Y20105D01*
X68850D01*
Y19455D01*
X69597D01*
X69650Y19455D01*
X69724Y19359D01*
Y19323D01*
X69796Y19148D01*
X69930Y19014D01*
X70105Y18941D01*
X70295D01*
X70470Y19014D01*
X70604Y19148D01*
X70622Y19191D01*
X70999D01*
Y18395D01*
Y17595D01*
X72381D01*
X72436Y17528D01*
Y13917D01*
X72467Y13761D01*
X72556Y13628D01*
X74975Y11209D01*
X75108Y11120D01*
X75264Y11089D01*
X95598D01*
X95754Y11120D01*
X95887Y11209D01*
X100853Y16175D01*
X100955D01*
X101043Y16192D01*
X101118Y16242D01*
X101168Y16317D01*
X101185Y16405D01*
Y17875D01*
X101168Y17963D01*
X101118Y18038D01*
X101043Y18088D01*
X100955Y18105D01*
X100505D01*
X100417Y18088D01*
X100342Y18038D01*
X100292Y17963D01*
X100275Y17875D01*
Y16753D01*
X100042Y16521D01*
X99915Y16573D01*
Y17875D01*
X99898Y17963D01*
X99869Y18007D01*
Y20400D01*
Y21199D01*
X100461D01*
Y21491D01*
X101902D01*
X102059Y21522D01*
X102192Y21611D01*
X105445Y24864D01*
X105534Y24997D01*
X105565Y25153D01*
Y26668D01*
X106085D01*
Y26923D01*
X106202Y26971D01*
X107991Y25182D01*
X107881Y24990D01*
X107799Y24685D01*
Y24369D01*
X107881Y24063D01*
X108039Y23789D01*
X108263Y23566D01*
X108536Y23408D01*
X108842Y23326D01*
X109158D01*
X109464Y23408D01*
X109737Y23566D01*
X109961Y23789D01*
X110119Y24063D01*
X110201Y24369D01*
Y24685D01*
X110124Y24973D01*
X110492Y25341D01*
X113879D01*
Y24899D01*
X115252D01*
X115281Y24899D01*
X115379D01*
X115408Y24899D01*
X116781D01*
Y25412D01*
X118499D01*
X118655Y25443D01*
X118711Y25480D01*
X118843D01*
X119019Y25515D01*
X119168Y25614D01*
X119268Y25764D01*
X119303Y25940D01*
X119268Y26116D01*
X119168Y26265D01*
X119019Y26364D01*
X118843Y26399D01*
X117993D01*
X117817Y26364D01*
X117668Y26265D01*
X117644Y26229D01*
X116781D01*
Y26601D01*
X115408D01*
X115379Y26601D01*
X115281D01*
X115252Y26601D01*
X113879D01*
Y26159D01*
X110322D01*
X110166Y26128D01*
X110033Y26039D01*
X109576Y25581D01*
X109464Y25646D01*
X109158Y25728D01*
X108842D01*
X108653Y25677D01*
X106389Y27941D01*
X106256Y28029D01*
X106100Y28061D01*
X106085D01*
Y28822D01*
X108441Y31179D01*
X108530Y31311D01*
X108561Y31468D01*
Y31699D01*
X109753D01*
Y33101D01*
X107751D01*
Y32140D01*
X107743Y32100D01*
Y31637D01*
X105480Y29374D01*
X104719D01*
X104563Y29343D01*
X104547Y29332D01*
X104284D01*
Y28598D01*
Y27963D01*
Y27303D01*
Y26668D01*
X104747D01*
Y25323D01*
X101733Y22309D01*
X100461D01*
Y22601D01*
X98459D01*
Y22309D01*
X97921D01*
Y22601D01*
X95919D01*
Y21199D01*
X96511D01*
Y18007D01*
X96482Y17963D01*
X96465Y17875D01*
Y16405D01*
X96482Y16317D01*
X96532Y16242D01*
X96607Y16192D01*
X96695Y16175D01*
X96977D01*
X97029Y16048D01*
X93540Y12558D01*
X78451D01*
Y14101D01*
X78159D01*
Y14531D01*
X78585Y14957D01*
X78674Y15090D01*
X78705Y15246D01*
Y15499D01*
X81905D01*
Y17147D01*
X78709D01*
Y18208D01*
X78709Y18208D01*
X78678Y18364D01*
X78589Y18497D01*
X78589Y18497D01*
X74091Y22995D01*
X77090Y25995D01*
X79435D01*
X79488Y25868D01*
X79479Y25860D01*
X79407Y25685D01*
Y25495D01*
X79474Y25333D01*
Y23130D01*
X79505Y22974D01*
X79594Y22841D01*
X81524Y20911D01*
X81657Y20822D01*
X81813Y20791D01*
X82353D01*
Y19995D01*
Y19195D01*
Y18395D01*
Y17595D01*
X83158D01*
X83177Y17591D01*
X85123D01*
X85285Y17524D01*
X85475D01*
X85650Y17596D01*
X85784Y17730D01*
X85856Y17905D01*
Y18095D01*
X85784Y18270D01*
X85779Y18274D01*
X85828Y18391D01*
X89178D01*
X89340Y18324D01*
X89529D01*
X89704Y18396D01*
X89838Y18530D01*
X89910Y18705D01*
Y18895D01*
X89838Y19070D01*
X89704Y19204D01*
X89529Y19276D01*
X89340D01*
X89178Y19209D01*
X84001D01*
Y19991D01*
X88873D01*
X89030Y20022D01*
X89162Y20111D01*
X92487Y23436D01*
X92536Y23408D01*
X92842Y23326D01*
X93158D01*
X93464Y23408D01*
X93737Y23566D01*
X93961Y23789D01*
X94119Y24063D01*
X94134Y24118D01*
X94880D01*
X95036Y24149D01*
X95169Y24238D01*
X95753Y24822D01*
X95870Y24773D01*
Y24700D01*
X96820D01*
Y25350D01*
X96447D01*
X96398Y25467D01*
X98185Y27254D01*
X99866D01*
Y27135D01*
X100816D01*
X101765D01*
Y27451D01*
X101716D01*
Y28598D01*
Y29332D01*
X100988D01*
X100972Y29343D01*
X100816Y29374D01*
X100520D01*
X97355Y32539D01*
X97222Y32628D01*
X97066Y32659D01*
X94134D01*
X94119Y32714D01*
X93961Y32987D01*
X93737Y33211D01*
X93464Y33369D01*
X93158Y33451D01*
X92842D01*
X92536Y33369D01*
X92263Y33211D01*
X92039Y32987D01*
X91881Y32714D01*
X91799Y32408D01*
Y32092D01*
X91881Y31786D01*
X91909Y31737D01*
X89910Y29738D01*
X89821Y29605D01*
X89803Y29516D01*
X89766Y29480D01*
X89694Y29305D01*
Y29115D01*
X89766Y28940D01*
X89774Y28933D01*
X89725Y28816D01*
X87235D01*
X84169Y31882D01*
Y31972D01*
X84097Y32147D01*
X83963Y32281D01*
X83788Y32353D01*
X83598D01*
X83423Y32281D01*
X83289Y32147D01*
X83217Y31972D01*
Y31782D01*
X83289Y31607D01*
X83400Y31497D01*
X83404Y31491D01*
X86777Y28118D01*
X86909Y28029D01*
X87066Y27998D01*
X87066Y27998D01*
X91866D01*
X91881Y27944D01*
X92039Y27670D01*
X92263Y27446D01*
X92536Y27288D01*
X92842Y27206D01*
X93158D01*
X93464Y27288D01*
X93737Y27446D01*
X93961Y27670D01*
X94101Y27912D01*
X97521D01*
X97570Y27795D01*
X94710Y24936D01*
X94134D01*
X94119Y24990D01*
X93961Y25264D01*
X93737Y25488D01*
X93464Y25646D01*
X93158Y25728D01*
X92842D01*
X92536Y25646D01*
X92263Y25488D01*
X92039Y25264D01*
X91881Y24990D01*
X91799Y24685D01*
Y24369D01*
X91881Y24063D01*
X91909Y24014D01*
X88704Y20809D01*
X84001D01*
Y21546D01*
X84050D01*
Y21900D01*
X83177D01*
X82304D01*
Y21609D01*
X81982D01*
X80292Y23299D01*
Y25333D01*
X80359Y25495D01*
Y25583D01*
X80486Y25636D01*
X81154Y24967D01*
X81208Y24905D01*
X81151Y24798D01*
X81096Y24744D01*
X81024Y24569D01*
Y24379D01*
X81096Y24204D01*
X81230Y24070D01*
X81251Y23924D01*
X81178Y23851D01*
X81106Y23676D01*
Y23487D01*
X81178Y23312D01*
X81312Y23178D01*
X81487Y23106D01*
X81676D01*
X81851Y23178D01*
X81860Y23187D01*
X82353D01*
Y22454D01*
X82304D01*
Y22100D01*
X83177D01*
X84050D01*
Y22244D01*
X84679D01*
Y21649D01*
X86023D01*
X86130Y21600D01*
X86188Y21600D01*
X86780D01*
Y22500D01*
X86880D01*
Y22600D01*
X87630D01*
Y23340D01*
X87630Y23400D01*
X87729Y23467D01*
X89913D01*
X90075Y23400D01*
X90265D01*
X90440Y23472D01*
X90574Y23606D01*
X90646Y23781D01*
Y23971D01*
X90574Y24146D01*
X90440Y24280D01*
X90265Y24352D01*
X90075D01*
X89913Y24285D01*
X87733D01*
Y25054D01*
X86983D01*
Y25154D01*
X86883D01*
Y26053D01*
X86233D01*
Y26053D01*
X86126Y26004D01*
X84782D01*
Y25609D01*
X84001D01*
Y26405D01*
X83196D01*
X83177Y26409D01*
X81991D01*
X81924Y26476D01*
X81749Y26549D01*
X81559D01*
X81384Y26476D01*
X81251Y26342D01*
X81211Y26247D01*
X81061Y26217D01*
X80585Y26693D01*
X80536Y26726D01*
X80575Y26853D01*
X81905D01*
Y27658D01*
X81909Y27677D01*
Y27927D01*
X82329Y28347D01*
X82418Y28480D01*
X82449Y28636D01*
Y33446D01*
X82593Y33529D01*
X82761Y33697D01*
X82880Y33902D01*
X82941Y34131D01*
Y34369D01*
X82880Y34598D01*
X82761Y34803D01*
X82699Y34865D01*
X82752Y34992D01*
X83260D01*
X83722Y34530D01*
X83679Y34369D01*
Y34131D01*
X83740Y33902D01*
X83859Y33697D01*
X84027Y33529D01*
X84232Y33410D01*
X84461Y33349D01*
X84699D01*
X84928Y33410D01*
X85133Y33529D01*
X85301Y33697D01*
X85420Y33902D01*
X85481Y34131D01*
Y34369D01*
X85420Y34598D01*
X85301Y34803D01*
X85133Y34971D01*
X84928Y35090D01*
X84699Y35151D01*
X84461D01*
X84300Y35108D01*
X83718Y35690D01*
X83585Y35779D01*
X83429Y35810D01*
X81563D01*
X81407Y35779D01*
X81274Y35690D01*
X80411Y34827D01*
X80399Y34809D01*
X80272Y34813D01*
X80260Y34833D01*
X80083Y35010D01*
X79867Y35135D01*
X79625Y35200D01*
X79600D01*
Y34250D01*
Y33300D01*
X79625D01*
X79867Y33365D01*
X80083Y33490D01*
X80164Y33571D01*
X80291Y33518D01*
Y32322D01*
X80164Y32269D01*
X80153Y32281D01*
X79978Y32353D01*
X79788D01*
X79613Y32281D01*
X79490Y32157D01*
X79441Y32163D01*
X79363Y32196D01*
Y32777D01*
X78713D01*
Y31877D01*
Y30977D01*
X79347D01*
X79357Y30977D01*
X79443Y30883D01*
X78811Y30251D01*
X78722Y30118D01*
X78691Y29962D01*
Y28550D01*
X78400D01*
Y27677D01*
X78200D01*
Y28550D01*
X78028D01*
X77905Y28567D01*
X77874Y28723D01*
X77785Y28856D01*
X77409Y29232D01*
Y30513D01*
X77409Y30513D01*
X77389Y30613D01*
Y31026D01*
X77756D01*
X77863Y30977D01*
X77921Y30977D01*
X78513D01*
Y31877D01*
Y32777D01*
X77921D01*
X77863Y32777D01*
X77756Y32728D01*
X77389D01*
Y33457D01*
X77513Y33529D01*
X77681Y33697D01*
X77800Y33902D01*
X77861Y34131D01*
Y34369D01*
X77800Y34598D01*
X77681Y34803D01*
X77513Y34971D01*
X77369Y35054D01*
Y39751D01*
X79067Y41449D01*
X80464D01*
X80583Y41449D01*
X80667Y41354D01*
X79742Y40429D01*
X79658Y40451D01*
X79342D01*
X79036Y40369D01*
X78763Y40211D01*
X78539Y39987D01*
X78381Y39714D01*
X78299Y39408D01*
Y39092D01*
X78381Y38786D01*
X78539Y38513D01*
X78763Y38289D01*
X79036Y38131D01*
X79342Y38049D01*
X79658D01*
X79964Y38131D01*
X80237Y38289D01*
X80461Y38513D01*
X80619Y38786D01*
X80701Y39092D01*
Y39408D01*
X80619Y39714D01*
X80461Y39987D01*
X80459Y39989D01*
X81919Y41449D01*
X82178D01*
X82446Y41521D01*
X82685Y41659D01*
X82881Y41855D01*
X83019Y42094D01*
X83091Y42362D01*
Y42638D01*
X83019Y42906D01*
X82881Y43145D01*
X82685Y43341D01*
X82446Y43479D01*
X82178Y43551D01*
X81902D01*
X81634Y43479D01*
X81395Y43341D01*
X81199Y43145D01*
X81061Y42906D01*
X80989Y42638D01*
Y42362D01*
X81061Y42094D01*
X81188Y41874D01*
X80686Y41373D01*
X80591Y41457D01*
X80591Y41573D01*
Y42973D01*
X84059Y46441D01*
X90933D01*
Y46149D01*
X92935D01*
Y46441D01*
X102482D01*
X102906Y46017D01*
X102857Y45900D01*
X102784D01*
Y45000D01*
Y44100D01*
X103434D01*
Y44100D01*
X103541Y44149D01*
X104885D01*
Y44549D01*
X105241D01*
X105751Y44039D01*
Y43210D01*
X105485D01*
X105407Y43194D01*
X105340Y43150D01*
X105295Y43083D01*
X105279Y43004D01*
Y42506D01*
X105295Y42427D01*
X105340Y42360D01*
X105407Y42316D01*
X105485Y42300D01*
X106833D01*
X106912Y42316D01*
X106979Y42360D01*
X107024Y42427D01*
X107039Y42506D01*
Y43004D01*
X107024Y43083D01*
X106979Y43150D01*
X106912Y43194D01*
X106833Y43210D01*
X106568D01*
Y44209D01*
X106568Y44209D01*
X106537Y44365D01*
X106449Y44498D01*
X105699Y45247D01*
X105566Y45336D01*
X105410Y45367D01*
X104885D01*
Y45851D01*
X104210D01*
X104174Y45906D01*
X102941Y47139D01*
X102808Y47228D01*
X102652Y47259D01*
X92935D01*
Y47551D01*
X90933D01*
Y47259D01*
X83890D01*
X83734Y47228D01*
X83601Y47139D01*
X80013Y43551D01*
X78489D01*
Y42027D01*
X76671Y40209D01*
X76582Y40076D01*
X76551Y39920D01*
Y35054D01*
X76407Y34971D01*
X76239Y34803D01*
X76120Y34598D01*
X76059Y34369D01*
Y34131D01*
X76120Y33902D01*
X76239Y33697D01*
X76407Y33529D01*
X76571Y33434D01*
Y32728D01*
X76412D01*
Y31026D01*
X76571D01*
Y30533D01*
X76591Y30432D01*
Y29345D01*
X76474Y29296D01*
X76355Y29415D01*
Y30664D01*
X76324Y30820D01*
X76235Y30953D01*
X74829Y32359D01*
Y33349D01*
X75321D01*
Y35151D01*
X73519D01*
Y33349D01*
X74011D01*
Y32190D01*
X74042Y32033D01*
X74131Y31900D01*
X75537Y30494D01*
Y29478D01*
X75420Y29430D01*
X73434Y31415D01*
Y31620D01*
X73501Y31782D01*
Y31972D01*
X73429Y32147D01*
X73295Y32281D01*
X73120Y32353D01*
X72930D01*
X72755Y32281D01*
X72621Y32147D01*
X72549Y31972D01*
Y31782D01*
X72616Y31620D01*
Y31246D01*
X72647Y31090D01*
X72736Y30957D01*
X75075Y28618D01*
X75026Y28501D01*
X73095D01*
Y27327D01*
X72968Y27285D01*
X72860Y27356D01*
X72704Y27388D01*
X70336D01*
X70180Y27356D01*
X70047Y27268D01*
X66048Y23268D01*
X65921Y23321D01*
Y23410D01*
X65849Y23585D01*
X65715Y23719D01*
X65540Y23791D01*
X65350D01*
X65175Y23719D01*
X65078Y23622D01*
X65013Y23601D01*
X64960Y23631D01*
X64962Y23709D01*
X64992Y23781D01*
Y23971D01*
X64920Y24146D01*
X64786Y24280D01*
X64611Y24352D01*
X64421D01*
X64293Y24299D01*
X63320D01*
X63250Y24313D01*
X62159D01*
Y33493D01*
X62282Y33525D01*
X62289Y33513D01*
X62513Y33289D01*
X62786Y33131D01*
X63092Y33049D01*
X63408D01*
X63714Y33131D01*
X63987Y33289D01*
X64211Y33513D01*
X64369Y33786D01*
X64451Y34092D01*
Y34408D01*
X64369Y34714D01*
X64211Y34987D01*
X63987Y35211D01*
X63714Y35369D01*
X63659Y35384D01*
Y42478D01*
X63670Y42600D01*
X63786Y42600D01*
X64520D01*
Y43800D01*
Y45000D01*
X63670D01*
Y44616D01*
X63543Y44577D01*
X63539Y44583D01*
X63285Y44837D01*
X63152Y44926D01*
X63121Y44932D01*
X59264Y48790D01*
X59265Y48919D01*
X59350Y49000D01*
X59850D01*
Y49800D01*
Y50600D01*
D02*
G37*
G36*
X25265Y44025D02*
X24640D01*
Y43650D01*
X25265D01*
Y44025D01*
D02*
G37*
G36*
X24440D02*
X23815D01*
Y43650D01*
X24440D01*
Y44025D01*
D02*
G37*
G36*
X65570Y43700D02*
X64720D01*
Y42600D01*
X65570D01*
Y43700D01*
D02*
G37*
G36*
X51680D02*
X50830D01*
Y42600D01*
X51680D01*
Y43700D01*
D02*
G37*
G36*
X50630D02*
X49780D01*
Y42600D01*
X50630D01*
Y43700D01*
D02*
G37*
G36*
X84685Y43600D02*
X84640D01*
Y42600D01*
X85640D01*
Y42645D01*
X85565Y42925D01*
X85420Y43175D01*
X85215Y43380D01*
X84965Y43525D01*
X84685Y43600D01*
D02*
G37*
G36*
X84440D02*
X84395D01*
X84115Y43525D01*
X83865Y43380D01*
X83660Y43175D01*
X83515Y42925D01*
X83440Y42645D01*
Y42600D01*
X84440D01*
Y43600D01*
D02*
G37*
G36*
X124750Y53417D02*
X124514Y53386D01*
X124294Y53295D01*
X124105Y53149D01*
X123959Y52960D01*
X123868Y52740D01*
X123837Y52504D01*
Y50996D01*
X123868Y50760D01*
X123959Y50540D01*
X124105Y50351D01*
X124294Y50205D01*
X124341Y50186D01*
Y47570D01*
X124314Y47553D01*
X124246Y47484D01*
X114875D01*
X114719Y47453D01*
X114586Y47364D01*
X112131Y44909D01*
X110285D01*
Y45201D01*
X108583D01*
Y43828D01*
X108583Y43799D01*
Y43701D01*
X108583Y43672D01*
Y42877D01*
X108463Y42757D01*
X108374Y42624D01*
X108343Y42468D01*
Y41894D01*
X106958D01*
X106912Y41924D01*
X106833Y41940D01*
X105485D01*
X105407Y41924D01*
X105340Y41880D01*
X105295Y41813D01*
X105279Y41734D01*
Y41236D01*
X105295Y41157D01*
X105340Y41090D01*
X105407Y41046D01*
X105485Y41030D01*
X106833D01*
X106912Y41046D01*
X106958Y41076D01*
X108343D01*
Y40151D01*
X107751D01*
Y39806D01*
X107624Y39753D01*
X107039Y40338D01*
Y40464D01*
X107024Y40543D01*
X106979Y40610D01*
X106912Y40654D01*
X106833Y40670D01*
X105485D01*
X105407Y40654D01*
X105340Y40610D01*
X105295Y40543D01*
X105279Y40464D01*
Y40144D01*
X105162Y40096D01*
X103484Y41774D01*
X103351Y41863D01*
X103194Y41894D01*
X101508D01*
X101462Y41924D01*
X101383Y41940D01*
X101118D01*
Y42300D01*
X101383D01*
X101462Y42316D01*
X101529Y42360D01*
X101574Y42427D01*
X101589Y42506D01*
Y43004D01*
X101574Y43083D01*
X101529Y43150D01*
X101462Y43194D01*
X101383Y43210D01*
X100035D01*
X99957Y43194D01*
X99907Y43161D01*
X97633D01*
X97619Y43214D01*
X97461Y43487D01*
X97237Y43711D01*
X96964Y43869D01*
X96658Y43951D01*
X96342D01*
X96036Y43869D01*
X95763Y43711D01*
X95539Y43487D01*
X95381Y43214D01*
X95299Y42908D01*
Y42592D01*
X95381Y42286D01*
X95539Y42013D01*
X95763Y41789D01*
X96036Y41631D01*
X96342Y41549D01*
X96658D01*
X96964Y41631D01*
X97237Y41789D01*
X97461Y42013D01*
X97619Y42286D01*
X97634Y42344D01*
X99915D01*
X99957Y42316D01*
X100035Y42300D01*
X100301D01*
Y41940D01*
X100035D01*
X99957Y41924D01*
X99890Y41880D01*
X99845Y41813D01*
X99829Y41734D01*
Y41236D01*
X99845Y41157D01*
X99890Y41090D01*
X99957Y41046D01*
X100035Y41030D01*
X101383D01*
X101462Y41046D01*
X101508Y41076D01*
X103025D01*
X105279Y38822D01*
Y38696D01*
X105295Y38617D01*
X105340Y38550D01*
X105407Y38506D01*
X105485Y38490D01*
X106833D01*
X106857Y38495D01*
X106970Y38422D01*
X106984Y38401D01*
Y37809D01*
X107016Y37652D01*
X107104Y37520D01*
X107751Y36873D01*
Y36049D01*
X108343D01*
Y35801D01*
X107751D01*
Y34399D01*
X109753D01*
Y35801D01*
X109161D01*
Y36049D01*
X109753D01*
Y36341D01*
X111034D01*
X111191Y36372D01*
X111324Y36461D01*
X111412Y36549D01*
X112535D01*
Y37951D01*
X112535D01*
Y38049D01*
X112535D01*
Y39451D01*
X110833D01*
Y39159D01*
X109922D01*
X109753Y39327D01*
Y40151D01*
X109161D01*
Y41485D01*
Y42298D01*
X109162Y42299D01*
X110285D01*
Y43672D01*
X110285Y43701D01*
Y43799D01*
X110285Y43828D01*
Y44091D01*
X112300D01*
X112456Y44122D01*
X112589Y44211D01*
X115044Y46666D01*
X124415D01*
X124572Y46697D01*
X124584Y46705D01*
X126841Y44448D01*
Y44134D01*
X126786Y44119D01*
X126513Y43961D01*
X126289Y43737D01*
X126131Y43464D01*
X126049Y43158D01*
Y42842D01*
X126131Y42536D01*
X126289Y42263D01*
X126513Y42039D01*
X126786Y41881D01*
X127092Y41799D01*
X127408D01*
X127714Y41881D01*
X127987Y42039D01*
X128211Y42263D01*
X128369Y42536D01*
X128451Y42842D01*
Y43158D01*
X128369Y43464D01*
X128211Y43737D01*
X127987Y43961D01*
X127714Y44119D01*
X127659Y44134D01*
Y44617D01*
X127628Y44773D01*
X127539Y44906D01*
X125159Y47286D01*
Y50186D01*
X125206Y50205D01*
X125395Y50351D01*
X125541Y50540D01*
X125632Y50760D01*
X125663Y50996D01*
Y52504D01*
X125632Y52740D01*
X125541Y52960D01*
X125395Y53149D01*
X125206Y53295D01*
X124986Y53386D01*
X124750Y53417D01*
D02*
G37*
G36*
X85640Y42400D02*
X84640D01*
Y41400D01*
X84685D01*
X84965Y41475D01*
X85215Y41620D01*
X85420Y41825D01*
X85565Y42075D01*
X85640Y42355D01*
Y42400D01*
D02*
G37*
G36*
X84440D02*
X83440D01*
Y42355D01*
X83515Y42075D01*
X83660Y41825D01*
X83865Y41620D01*
X84115Y41475D01*
X84395Y41400D01*
X84440D01*
Y42400D01*
D02*
G37*
G36*
X92935Y44851D02*
X90933D01*
Y43449D01*
X91526D01*
Y41551D01*
X90933D01*
Y41259D01*
X90184D01*
X90184Y41259D01*
X90028Y41228D01*
X89895Y41139D01*
X89707Y40951D01*
X88583D01*
Y39607D01*
X88534Y39500D01*
X88534Y39442D01*
Y38850D01*
X89434D01*
X90334D01*
Y39442D01*
X90334Y39500D01*
X90285Y39607D01*
Y40342D01*
X90384Y40441D01*
X90933D01*
Y40149D01*
X92935D01*
Y40441D01*
X93557D01*
X94072Y39926D01*
X94205Y39837D01*
X94361Y39806D01*
X99911D01*
X99957Y39776D01*
X100035Y39760D01*
X101383D01*
X101462Y39776D01*
X101529Y39820D01*
X101574Y39887D01*
X101589Y39966D01*
Y40464D01*
X101574Y40543D01*
X101529Y40610D01*
X101462Y40654D01*
X101383Y40670D01*
X100035D01*
X99957Y40654D01*
X99911Y40624D01*
X94530D01*
X94015Y41139D01*
X93882Y41228D01*
X93726Y41259D01*
X92935D01*
Y41551D01*
X92343D01*
Y43449D01*
X92935D01*
Y44851D01*
D02*
G37*
G36*
X101383Y39450D02*
X100809D01*
Y39045D01*
X101639D01*
Y39194D01*
X101620Y39292D01*
X101564Y39375D01*
X101481Y39430D01*
X101383Y39450D01*
D02*
G37*
G36*
X100609D02*
X100035D01*
X99937Y39430D01*
X99854Y39375D01*
X99799Y39292D01*
X99779Y39194D01*
Y39045D01*
X100609D01*
Y39450D01*
D02*
G37*
G36*
X116080Y45598D02*
X115566Y45558D01*
X115064Y45437D01*
X114587Y45240D01*
X114147Y44970D01*
X113755Y44635D01*
X113420Y44243D01*
X113150Y43803D01*
X112953Y43326D01*
X112832Y42824D01*
X112792Y42310D01*
X112832Y41796D01*
X112953Y41294D01*
X113150Y40817D01*
X113420Y40377D01*
X113755Y39985D01*
X114147Y39650D01*
X114587Y39380D01*
X115064Y39183D01*
X115566Y39062D01*
X116080Y39022D01*
X116594Y39062D01*
X117096Y39183D01*
X117573Y39380D01*
X118013Y39650D01*
X118405Y39985D01*
X118740Y40377D01*
X119010Y40817D01*
X119207Y41294D01*
X119328Y41796D01*
X119368Y42310D01*
X119328Y42824D01*
X119207Y43326D01*
X119010Y43803D01*
X118740Y44243D01*
X118405Y44635D01*
X118013Y44970D01*
X117573Y45240D01*
X117096Y45437D01*
X116594Y45558D01*
X116080Y45598D01*
D02*
G37*
G36*
X14580D02*
X14066Y45558D01*
X13564Y45437D01*
X13087Y45240D01*
X12647Y44970D01*
X12255Y44635D01*
X11920Y44243D01*
X11650Y43803D01*
X11453Y43326D01*
X11332Y42824D01*
X11292Y42310D01*
X11332Y41796D01*
X11453Y41294D01*
X11650Y40817D01*
X11920Y40377D01*
X12255Y39985D01*
X12647Y39650D01*
X13087Y39380D01*
X13564Y39183D01*
X14066Y39062D01*
X14580Y39022D01*
X15094Y39062D01*
X15596Y39183D01*
X16073Y39380D01*
X16513Y39650D01*
X16905Y39985D01*
X17240Y40377D01*
X17510Y40817D01*
X17707Y41294D01*
X17828Y41796D01*
X17868Y42310D01*
X17828Y42824D01*
X17707Y43326D01*
X17510Y43803D01*
X17240Y44243D01*
X16905Y44635D01*
X16513Y44970D01*
X16073Y45240D01*
X15596Y45437D01*
X15094Y45558D01*
X14580Y45598D01*
D02*
G37*
G36*
X101639Y38845D02*
X100809D01*
Y38440D01*
X101383D01*
X101481Y38460D01*
X101564Y38515D01*
X101620Y38598D01*
X101639Y38696D01*
Y38845D01*
D02*
G37*
G36*
X100609D02*
X99779D01*
Y38696D01*
X99799Y38598D01*
X99854Y38515D01*
X99937Y38460D01*
X100035Y38440D01*
X100609D01*
Y38845D01*
D02*
G37*
G36*
X92984Y38900D02*
X92034D01*
Y38250D01*
X92984D01*
Y38900D01*
D02*
G37*
G36*
X91834D02*
X90884D01*
Y38250D01*
X91834D01*
Y38900D01*
D02*
G37*
G36*
X3225Y39158D02*
X3100D01*
Y38125D01*
X3658D01*
Y38725D01*
X3625Y38891D01*
X3531Y39031D01*
X3391Y39125D01*
X3225Y39158D01*
D02*
G37*
G36*
X2900D02*
X2775D01*
X2609Y39125D01*
X2469Y39031D01*
X2375Y38891D01*
X2342Y38725D01*
Y38125D01*
X2900D01*
Y39158D01*
D02*
G37*
G36*
X90334Y38650D02*
X89534D01*
Y38000D01*
X90334D01*
Y38650D01*
D02*
G37*
G36*
X89334D02*
X88534D01*
Y38000D01*
X89334D01*
Y38650D01*
D02*
G37*
G36*
X92984Y38050D02*
X92034D01*
Y37400D01*
X92984D01*
Y38050D01*
D02*
G37*
G36*
X91834D02*
X90884D01*
Y37400D01*
X91834D01*
Y38050D01*
D02*
G37*
G36*
X27286Y47201D02*
X25584D01*
Y46909D01*
X25265D01*
X25109Y46878D01*
X24976Y46789D01*
X24638Y46451D01*
X23864D01*
Y45628D01*
X23864Y45599D01*
Y45501D01*
X23864Y45472D01*
Y44707D01*
X23815Y44600D01*
X23815Y44542D01*
Y44225D01*
X24540D01*
X25265D01*
X25265Y44600D01*
X25375Y44641D01*
X25584D01*
Y44299D01*
X26708D01*
X28796Y42211D01*
X28929Y42122D01*
X29085Y42091D01*
X30949D01*
Y37199D01*
X34151D01*
Y42901D01*
X31389D01*
X31350Y42909D01*
X29254D01*
X27286Y44877D01*
Y45672D01*
X27286Y45701D01*
Y45799D01*
X27286Y45828D01*
Y47201D01*
D02*
G37*
G36*
X3658Y37925D02*
X3100D01*
Y36892D01*
X3225D01*
X3391Y36925D01*
X3531Y37019D01*
X3625Y37159D01*
X3658Y37325D01*
Y37925D01*
D02*
G37*
G36*
X2900D02*
X2342D01*
Y37325D01*
X2375Y37159D01*
X2469Y37019D01*
X2609Y36925D01*
X2775Y36892D01*
X2900D01*
Y37925D01*
D02*
G37*
G36*
X98165Y36750D02*
X98100D01*
Y35600D01*
X99250D01*
Y35665D01*
X99165Y35982D01*
X99000Y36268D01*
X98768Y36500D01*
X98482Y36665D01*
X98165Y36750D01*
D02*
G37*
G36*
X97900D02*
X97835D01*
X97518Y36665D01*
X97232Y36500D01*
X97000Y36268D01*
X96835Y35982D01*
X96750Y35665D01*
Y35600D01*
X97900D01*
Y36750D01*
D02*
G37*
G36*
X79400Y35200D02*
X79375D01*
X79133Y35135D01*
X78917Y35010D01*
X78740Y34833D01*
X78615Y34617D01*
X78550Y34375D01*
Y34350D01*
X79400D01*
Y35200D01*
D02*
G37*
G36*
X99250Y35400D02*
X98100D01*
Y34250D01*
X98165D01*
X98482Y34335D01*
X98768Y34500D01*
X99000Y34732D01*
X99165Y35018D01*
X99250Y35335D01*
Y35400D01*
D02*
G37*
G36*
X97900D02*
X96750D01*
Y35335D01*
X96835Y35018D01*
X97000Y34732D01*
X97232Y34500D01*
X97518Y34335D01*
X97835Y34250D01*
X97900D01*
Y35400D01*
D02*
G37*
G36*
X48171Y35349D02*
X48106D01*
Y34199D01*
X49256D01*
Y34264D01*
X49171Y34581D01*
X49006Y34867D01*
X48774Y35099D01*
X48488Y35264D01*
X48171Y35349D01*
D02*
G37*
G36*
X47906D02*
X47841D01*
X47524Y35264D01*
X47238Y35099D01*
X47006Y34867D01*
X46841Y34581D01*
X46756Y34264D01*
Y34199D01*
X47906D01*
Y35349D01*
D02*
G37*
G36*
X15408Y35951D02*
X15092D01*
X14786Y35869D01*
X14513Y35711D01*
X14289Y35487D01*
X14131Y35214D01*
X14049Y34908D01*
Y34592D01*
X14131Y34286D01*
X14159Y34237D01*
X12306Y32384D01*
X6108D01*
Y32675D01*
X6079Y32822D01*
X5996Y32946D01*
X5872Y33029D01*
X5725Y33058D01*
X5275D01*
X5128Y33029D01*
X5004Y32946D01*
X4921Y32822D01*
X4892Y32675D01*
Y31275D01*
X4921Y31128D01*
X5004Y31004D01*
X5091Y30946D01*
Y30669D01*
X3859Y29437D01*
X3821Y29459D01*
X3478Y29551D01*
X3122D01*
X2779Y29459D01*
X2470Y29281D01*
X2219Y29030D01*
X2182Y28966D01*
X2060Y28999D01*
Y29837D01*
X3114Y30892D01*
X3225D01*
X3372Y30921D01*
X3496Y31004D01*
X3579Y31128D01*
X3608Y31275D01*
Y32675D01*
X3579Y32822D01*
X3496Y32946D01*
X3372Y33029D01*
X3225Y33058D01*
X2775D01*
X2628Y33029D01*
X2504Y32946D01*
X2421Y32822D01*
X2392Y32675D01*
Y31614D01*
X1188Y30410D01*
X1077Y30244D01*
X1038Y30049D01*
Y17401D01*
X1077Y17206D01*
X1188Y17040D01*
X2739Y15488D01*
Y8420D01*
X2697Y8396D01*
X2529Y8228D01*
X2410Y8023D01*
X2349Y7794D01*
Y7556D01*
X2410Y7327D01*
X2529Y7122D01*
X2697Y6954D01*
X2902Y6835D01*
X3131Y6774D01*
X3369D01*
X3598Y6835D01*
X3803Y6954D01*
X3971Y7122D01*
X4090Y7327D01*
X4151Y7556D01*
Y7794D01*
X4090Y8023D01*
X3971Y8228D01*
X3803Y8396D01*
X3761Y8420D01*
Y15700D01*
X3722Y15895D01*
X3611Y16061D01*
X2060Y17613D01*
Y22401D01*
X2182Y22434D01*
X2219Y22370D01*
X2470Y22119D01*
X2779Y21941D01*
X2841Y21924D01*
Y20226D01*
X2349D01*
Y18424D01*
X4151D01*
Y19341D01*
X8866D01*
X8881Y19286D01*
X9039Y19013D01*
X9263Y18789D01*
X9536Y18631D01*
X9842Y18549D01*
X10158D01*
X10464Y18631D01*
X10737Y18789D01*
X10961Y19013D01*
X11119Y19286D01*
X11201Y19592D01*
Y19908D01*
X11119Y20214D01*
X10961Y20487D01*
X10737Y20711D01*
X10464Y20869D01*
X10158Y20951D01*
X9842D01*
X9536Y20869D01*
X9263Y20711D01*
X9039Y20487D01*
X8881Y20214D01*
X8866Y20159D01*
X4151D01*
Y20226D01*
X3659D01*
Y21897D01*
X3821Y21941D01*
X4130Y22119D01*
X4381Y22370D01*
X4559Y22679D01*
X4651Y23022D01*
Y23378D01*
X4559Y23721D01*
X4381Y24030D01*
X4130Y24281D01*
X3821Y24459D01*
X3478Y24551D01*
X3122D01*
X2779Y24459D01*
X2470Y24281D01*
X2219Y24030D01*
X2182Y23966D01*
X2060Y23999D01*
Y27401D01*
X2182Y27434D01*
X2219Y27370D01*
X2470Y27119D01*
X2779Y26941D01*
X3122Y26849D01*
X3478D01*
X3821Y26941D01*
X4130Y27119D01*
X4381Y27370D01*
X4559Y27679D01*
X4651Y28022D01*
Y28378D01*
X4559Y28721D01*
X4464Y28886D01*
X5789Y30211D01*
X5878Y30344D01*
X5909Y30500D01*
Y30946D01*
X5996Y31004D01*
X6079Y31128D01*
X6108Y31275D01*
Y31566D01*
X12475D01*
X12631Y31597D01*
X12764Y31686D01*
X14737Y33659D01*
X14786Y33631D01*
X15092Y33549D01*
X15408D01*
X15714Y33631D01*
X15987Y33789D01*
X16211Y34013D01*
X16369Y34286D01*
X16451Y34592D01*
Y34908D01*
X16369Y35214D01*
X16211Y35487D01*
X15987Y35711D01*
X15714Y35869D01*
X15408Y35951D01*
D02*
G37*
G36*
X87239Y35151D02*
X87001D01*
X86772Y35090D01*
X86567Y34971D01*
X86399Y34803D01*
X86280Y34598D01*
X86219Y34369D01*
Y34131D01*
X86280Y33902D01*
X86399Y33697D01*
X86567Y33529D01*
X86772Y33410D01*
X87001Y33349D01*
X87239D01*
X87468Y33410D01*
X87673Y33529D01*
X87841Y33697D01*
X87960Y33902D01*
X88021Y34131D01*
Y34369D01*
X87960Y34598D01*
X87841Y34803D01*
X87673Y34971D01*
X87468Y35090D01*
X87239Y35151D01*
D02*
G37*
G36*
X79400Y34150D02*
X78550D01*
Y34125D01*
X78615Y33883D01*
X78740Y33667D01*
X78917Y33490D01*
X79133Y33365D01*
X79375Y33300D01*
X79400D01*
Y34150D01*
D02*
G37*
G36*
X55970Y40926D02*
X55780D01*
X55605Y40854D01*
X55471Y40720D01*
X55399Y40545D01*
Y40355D01*
X55466Y40193D01*
Y36875D01*
X55497Y36719D01*
X55586Y36586D01*
X57409Y34763D01*
X57381Y34714D01*
X57299Y34408D01*
Y34092D01*
X57381Y33786D01*
X57539Y33513D01*
X57763Y33289D01*
X58036Y33131D01*
X58342Y33049D01*
X58658D01*
X58964Y33131D01*
X59237Y33289D01*
X59461Y33513D01*
X59619Y33786D01*
X59701Y34092D01*
Y34408D01*
X59619Y34714D01*
X59461Y34987D01*
X59237Y35211D01*
X58964Y35369D01*
X58658Y35451D01*
X58342D01*
X58036Y35369D01*
X57987Y35341D01*
X56284Y37044D01*
Y40193D01*
X56351Y40355D01*
Y40545D01*
X56279Y40720D01*
X56145Y40854D01*
X55970Y40926D01*
D02*
G37*
G36*
X60550Y50600D02*
X60050D01*
Y49800D01*
Y49000D01*
X60550D01*
Y49049D01*
X60818D01*
X60822Y49026D01*
X60911Y48894D01*
X61594Y48211D01*
X61726Y48122D01*
X61883Y48091D01*
X62806D01*
X67341Y43556D01*
Y35384D01*
X67286Y35369D01*
X67013Y35211D01*
X66789Y34987D01*
X66631Y34714D01*
X66549Y34408D01*
Y34092D01*
X66631Y33786D01*
X66789Y33513D01*
X67013Y33289D01*
X67286Y33131D01*
X67592Y33049D01*
X67908D01*
X68214Y33131D01*
X68487Y33289D01*
X68711Y33513D01*
X68869Y33786D01*
X68951Y34092D01*
Y34408D01*
X68869Y34714D01*
X68711Y34987D01*
X68487Y35211D01*
X68214Y35369D01*
X68159Y35384D01*
Y43725D01*
X68159Y43725D01*
X68128Y43881D01*
X68039Y44014D01*
X63264Y48789D01*
X63131Y48878D01*
X62975Y48909D01*
X62157D01*
X62149Y48922D01*
X62217Y49049D01*
X62701D01*
Y50551D01*
X60550D01*
Y50600D01*
D02*
G37*
G36*
X49256Y33999D02*
X48106D01*
Y32849D01*
X48171D01*
X48488Y32934D01*
X48774Y33099D01*
X49006Y33331D01*
X49171Y33617D01*
X49256Y33934D01*
Y33999D01*
D02*
G37*
G36*
X47906D02*
X46756D01*
Y33934D01*
X46841Y33617D01*
X47006Y33331D01*
X47238Y33099D01*
X47524Y32934D01*
X47841Y32849D01*
X47906D01*
Y33999D01*
D02*
G37*
G36*
X22700Y34400D02*
X21600D01*
Y32300D01*
X22700D01*
Y34400D01*
D02*
G37*
G36*
X21400D02*
X20300D01*
Y32300D01*
X21400D01*
Y34400D01*
D02*
G37*
G36*
X22700Y32100D02*
X21600D01*
Y30000D01*
X22700D01*
Y32100D01*
D02*
G37*
G36*
X21400D02*
X20300D01*
Y30000D01*
X21400D01*
Y32100D01*
D02*
G37*
G36*
X127908Y38451D02*
X127592D01*
X127286Y38369D01*
X127013Y38211D01*
X126789Y37987D01*
X126631Y37714D01*
X126549Y37408D01*
Y37092D01*
X126631Y36786D01*
X126789Y36513D01*
X127013Y36289D01*
X127286Y36131D01*
X127341Y36116D01*
Y28955D01*
X127086D01*
Y28463D01*
X126932D01*
X126627Y28769D01*
X126494Y28857D01*
X126338Y28888D01*
X124493D01*
X124469Y28904D01*
X124293Y28939D01*
X123443D01*
X123267Y28904D01*
X123118Y28805D01*
X123018Y28656D01*
X122983Y28480D01*
X123018Y28304D01*
X123118Y28154D01*
X123267Y28055D01*
X123443Y28020D01*
X124293D01*
X124469Y28055D01*
X124493Y28071D01*
X124518D01*
X124597Y27976D01*
Y27739D01*
X124572Y27726D01*
X124470Y27684D01*
X124293Y27719D01*
X123968D01*
Y27210D01*
Y26700D01*
X124293D01*
X124470Y26735D01*
X124572Y26693D01*
X124597Y26681D01*
X124597Y26476D01*
X124501Y26400D01*
X124243D01*
X124238Y26399D01*
X123443D01*
X123267Y26364D01*
X123118Y26265D01*
X123018Y26116D01*
X122983Y25940D01*
X123018Y25764D01*
X123118Y25614D01*
X123267Y25515D01*
X123443Y25480D01*
X123954D01*
X124047Y25418D01*
X124243Y25379D01*
X124646D01*
Y25129D01*
X124519Y25061D01*
X124469Y25094D01*
X124293Y25129D01*
X123443D01*
X123267Y25094D01*
X123118Y24995D01*
X123018Y24846D01*
X122983Y24670D01*
X123018Y24494D01*
X123118Y24344D01*
X123267Y24245D01*
X123443Y24210D01*
X124187D01*
X125261Y23136D01*
X125394Y23047D01*
X125550Y23016D01*
X126175D01*
X126331Y23047D01*
X126464Y23136D01*
X127942Y24613D01*
X128106D01*
X128335Y24675D01*
X128541Y24793D01*
X128708Y24961D01*
X128827Y25167D01*
X128888Y25396D01*
Y25633D01*
X128827Y25862D01*
X128708Y26068D01*
X128541Y26235D01*
X128335Y26354D01*
X128106Y26415D01*
X127869D01*
X127640Y26354D01*
X127434Y26235D01*
X127266Y26068D01*
X127148Y25862D01*
X127086Y25633D01*
Y25396D01*
X127148Y25167D01*
X127218Y25046D01*
X126006Y23834D01*
X125765D01*
X125713Y23898D01*
X125767Y24028D01*
X125895Y24053D01*
X126061Y24164D01*
X126172Y24330D01*
X126211Y24525D01*
Y25025D01*
X126348D01*
Y26370D01*
X126397Y26476D01*
X126397Y26534D01*
Y27126D01*
X125497D01*
Y27326D01*
X126397D01*
Y27669D01*
X126524Y27732D01*
X126606Y27677D01*
X126763Y27646D01*
X127086D01*
Y27153D01*
X128888D01*
Y28955D01*
X128159D01*
Y36116D01*
X128214Y36131D01*
X128487Y36289D01*
X128711Y36513D01*
X128869Y36786D01*
X128951Y37092D01*
Y37408D01*
X128869Y37714D01*
X128711Y37987D01*
X128487Y38211D01*
X128214Y38369D01*
X127908Y38451D01*
D02*
G37*
G36*
X112401Y29671D02*
X111099D01*
Y28369D01*
X111278D01*
X111283Y28362D01*
X111321Y28242D01*
X111229Y28150D01*
X111143Y28001D01*
X111099Y27836D01*
Y27664D01*
X111143Y27499D01*
X111229Y27350D01*
X111350Y27229D01*
X111499Y27143D01*
X111664Y27099D01*
X111836D01*
X112001Y27143D01*
X112150Y27229D01*
X112271Y27350D01*
X112357Y27499D01*
X112401Y27664D01*
Y27836D01*
X112357Y28001D01*
X112271Y28150D01*
X112179Y28242D01*
X112217Y28362D01*
X112222Y28369D01*
X112401D01*
Y28509D01*
X114000D01*
Y27850D01*
X114750D01*
Y27750D01*
X114850D01*
Y26850D01*
X115500D01*
Y26850D01*
X115549Y26899D01*
X116951D01*
Y27341D01*
X117381D01*
X117538Y27184D01*
X117568Y27034D01*
X117668Y26884D01*
X117817Y26785D01*
X117913Y26766D01*
X117963Y26732D01*
X118120Y26701D01*
X118518D01*
X118674Y26732D01*
X118701Y26750D01*
X118843D01*
X119019Y26785D01*
X119168Y26884D01*
X119268Y27034D01*
X119303Y27210D01*
X119268Y27386D01*
X119168Y27535D01*
X119019Y27634D01*
X118843Y27669D01*
X118209D01*
X117981Y27898D01*
X117981Y27899D01*
X118038Y28020D01*
X118043Y28019D01*
X118048Y28020D01*
X118843D01*
X119019Y28055D01*
X119168Y28154D01*
X119268Y28304D01*
X119303Y28480D01*
X119268Y28656D01*
X119168Y28805D01*
X119019Y28904D01*
X118843Y28939D01*
X118386D01*
X117944Y29381D01*
X117778Y29492D01*
X117583Y29531D01*
X112401D01*
Y29671D01*
D02*
G37*
G36*
X123768Y27719D02*
X123443D01*
X123248Y27681D01*
X123082Y27570D01*
X122972Y27405D01*
X122953Y27310D01*
X123768D01*
Y27719D01*
D02*
G37*
G36*
X114650Y27650D02*
X114000D01*
Y26850D01*
X114650D01*
Y27650D01*
D02*
G37*
G36*
X50745Y27354D02*
X49795D01*
Y26704D01*
X50745D01*
Y27354D01*
D02*
G37*
G36*
X45030D02*
X44080D01*
Y26704D01*
X45030D01*
Y27354D01*
D02*
G37*
G36*
X26550D02*
X25600D01*
Y26704D01*
X26550D01*
Y27354D01*
D02*
G37*
G36*
X28915D02*
X27965D01*
Y26704D01*
X28915D01*
Y27354D01*
D02*
G37*
G36*
X21153D02*
X20202D01*
Y26704D01*
X21153D01*
Y27354D01*
D02*
G37*
G36*
X41995D02*
X41045D01*
Y26704D01*
X41995D01*
Y27354D01*
D02*
G37*
G36*
X40845D02*
X39895D01*
Y26704D01*
X40845D01*
Y27354D01*
D02*
G37*
G36*
X20003D02*
X19052D01*
Y26704D01*
X20003D01*
Y27354D01*
D02*
G37*
G36*
X25400D02*
X24450D01*
Y26704D01*
X25400D01*
Y27354D01*
D02*
G37*
G36*
X27765D02*
X26815D01*
Y26704D01*
X27765D01*
Y27354D01*
D02*
G37*
G36*
X43880D02*
X42930D01*
Y26704D01*
X43880D01*
Y27354D01*
D02*
G37*
G36*
X49595D02*
X48645D01*
Y26704D01*
X49595D01*
Y27354D01*
D02*
G37*
G36*
X24145Y27350D02*
X23195D01*
Y26700D01*
X24145D01*
Y27350D01*
D02*
G37*
G36*
X47880D02*
X46930D01*
Y26700D01*
X47880D01*
Y27350D01*
D02*
G37*
G36*
X46730D02*
X45780D01*
Y26700D01*
X46730D01*
Y27350D01*
D02*
G37*
G36*
X22995D02*
X22045D01*
Y26700D01*
X22995D01*
Y27350D01*
D02*
G37*
G36*
X122550Y28400D02*
X121250D01*
Y26700D01*
X122550D01*
Y28400D01*
D02*
G37*
G36*
X121050D02*
X119750D01*
Y26700D01*
X121050D01*
Y28400D01*
D02*
G37*
G36*
X123768Y27110D02*
X122953D01*
X122972Y27014D01*
X123082Y26849D01*
X123248Y26739D01*
X123443Y26700D01*
X123768D01*
Y27110D01*
D02*
G37*
G36*
X101765Y26935D02*
X100916D01*
Y26619D01*
X101765D01*
Y26935D01*
D02*
G37*
G36*
X100716D02*
X99866D01*
Y26619D01*
X100716D01*
Y26935D01*
D02*
G37*
G36*
X50745Y26504D02*
X49795D01*
Y25854D01*
X50745D01*
Y26504D01*
D02*
G37*
G36*
X49595D02*
X48645D01*
Y25854D01*
X49595D01*
Y26504D01*
D02*
G37*
G36*
X45030D02*
X44080D01*
Y25854D01*
X45030D01*
Y26504D01*
D02*
G37*
G36*
X43880D02*
X42930D01*
Y25854D01*
X43880D01*
Y26504D01*
D02*
G37*
G36*
X41995D02*
X41045D01*
Y25854D01*
X41995D01*
Y26504D01*
D02*
G37*
G36*
X40845D02*
X39895D01*
Y25854D01*
X40845D01*
Y26504D01*
D02*
G37*
G36*
X28915D02*
X27965D01*
Y25854D01*
X28915D01*
Y26504D01*
D02*
G37*
G36*
X27765D02*
X26815D01*
Y25854D01*
X27765D01*
Y26504D01*
D02*
G37*
G36*
X26550D02*
X25600D01*
Y25854D01*
X26550D01*
Y26504D01*
D02*
G37*
G36*
X25400D02*
X24450D01*
Y25854D01*
X25400D01*
Y26504D01*
D02*
G37*
G36*
X21153D02*
X20202D01*
Y25854D01*
X21153D01*
Y26504D01*
D02*
G37*
G36*
X20003D02*
X19052D01*
Y25854D01*
X20003D01*
Y26504D01*
D02*
G37*
G36*
X47880Y26500D02*
X46930D01*
Y25850D01*
X47880D01*
Y26500D01*
D02*
G37*
G36*
X46730D02*
X45780D01*
Y25850D01*
X46730D01*
Y26500D01*
D02*
G37*
G36*
X24145D02*
X23195D01*
Y25850D01*
X24145D01*
Y26500D01*
D02*
G37*
G36*
X22995D02*
X22045D01*
Y25850D01*
X22995D01*
Y26500D01*
D02*
G37*
G36*
X87733Y26053D02*
X87083D01*
Y25254D01*
X87733D01*
Y26053D01*
D02*
G37*
G36*
X122550Y26500D02*
X121250D01*
Y24800D01*
X122550D01*
Y26500D01*
D02*
G37*
G36*
X121050D02*
X119750D01*
Y24800D01*
X121050D01*
Y26500D01*
D02*
G37*
G36*
X100510Y25350D02*
X99560D01*
Y24700D01*
X100510D01*
Y25350D01*
D02*
G37*
G36*
X97970D02*
X97020D01*
Y24700D01*
X97970D01*
Y25350D01*
D02*
G37*
G36*
X99360D02*
X98410D01*
Y24700D01*
X99360D01*
Y25350D01*
D02*
G37*
G36*
X100510Y24500D02*
X99560D01*
Y23850D01*
X100510D01*
Y24500D01*
D02*
G37*
G36*
X99360D02*
X98410D01*
Y23850D01*
X99360D01*
Y24500D01*
D02*
G37*
G36*
X97970D02*
X97020D01*
Y23850D01*
X97970D01*
Y24500D01*
D02*
G37*
G36*
X96820D02*
X95870D01*
Y23850D01*
X96820D01*
Y24500D01*
D02*
G37*
G36*
X120600Y23400D02*
Y22600D01*
X121250D01*
Y23400D01*
X120600D01*
D02*
G37*
G36*
X121250Y22400D02*
X120600D01*
Y21600D01*
X121250D01*
Y22400D01*
D02*
G37*
G36*
X87630Y22400D02*
X86980D01*
Y21600D01*
X87630D01*
Y22400D01*
D02*
G37*
G36*
X118843Y25129D02*
X117993D01*
X117817Y25094D01*
X117668Y24995D01*
X117568Y24846D01*
X117533Y24670D01*
X117568Y24494D01*
X117668Y24344D01*
X117817Y24245D01*
X117993Y24210D01*
X118109D01*
Y23132D01*
X118140Y22976D01*
X118229Y22843D01*
X118299Y22773D01*
Y21649D01*
X119643D01*
X119750Y21600D01*
X119808Y21600D01*
X120400D01*
Y22500D01*
Y23400D01*
X119808D01*
X119750Y23400D01*
X119643Y23351D01*
X118927D01*
Y24226D01*
X119019Y24245D01*
X119168Y24344D01*
X119268Y24494D01*
X119303Y24670D01*
X119268Y24846D01*
X119168Y24995D01*
X119019Y25094D01*
X118843Y25129D01*
D02*
G37*
G36*
X15415Y21000D02*
X15350D01*
Y19850D01*
X16500D01*
Y19915D01*
X16415Y20232D01*
X16250Y20518D01*
X16018Y20750D01*
X15732Y20915D01*
X15415Y21000D01*
D02*
G37*
G36*
X15150D02*
X15085D01*
X14768Y20915D01*
X14482Y20750D01*
X14250Y20518D01*
X14085Y20232D01*
X14000Y19915D01*
Y19850D01*
X15150D01*
Y21000D01*
D02*
G37*
G36*
X68650Y20105D02*
X67850D01*
Y19455D01*
X68650D01*
Y20105D01*
D02*
G37*
G36*
X27019Y22955D02*
X26829D01*
X26654Y22883D01*
X26520Y22749D01*
X26448Y22574D01*
Y22384D01*
X26506Y22245D01*
Y20576D01*
X26467Y20518D01*
X26450Y20430D01*
Y18960D01*
X26467Y18872D01*
X26517Y18797D01*
X26592Y18747D01*
X26680Y18730D01*
X27130D01*
X27218Y18747D01*
X27293Y18797D01*
X27343Y18872D01*
X27360Y18960D01*
Y20430D01*
X27343Y20518D01*
X27323Y20547D01*
Y22205D01*
X27328Y22209D01*
X27400Y22384D01*
Y22574D01*
X27328Y22749D01*
X27194Y22883D01*
X27019Y22955D01*
D02*
G37*
G36*
X24460Y22066D02*
X24270D01*
X24095Y21994D01*
X23961Y21860D01*
X23889Y21685D01*
Y21495D01*
X23956Y21333D01*
Y20562D01*
X23927Y20518D01*
X23910Y20430D01*
Y18960D01*
X23927Y18872D01*
X23977Y18797D01*
X24052Y18747D01*
X24140Y18730D01*
X24590D01*
X24678Y18747D01*
X24753Y18797D01*
X24803Y18872D01*
X24820Y18960D01*
Y20430D01*
X24803Y20518D01*
X24774Y20562D01*
Y21333D01*
X24841Y21495D01*
Y21685D01*
X24769Y21860D01*
X24635Y21994D01*
X24460Y22066D01*
D02*
G37*
G36*
X21939D02*
X21749D01*
X21574Y21994D01*
X21440Y21860D01*
X21368Y21685D01*
Y21495D01*
X21426Y21356D01*
Y20576D01*
X21387Y20518D01*
X21370Y20430D01*
Y18960D01*
X21387Y18872D01*
X21437Y18797D01*
X21512Y18747D01*
X21600Y18730D01*
X22050D01*
X22138Y18747D01*
X22213Y18797D01*
X22263Y18872D01*
X22280Y18960D01*
Y20430D01*
X22263Y20518D01*
X22243Y20547D01*
Y21316D01*
X22248Y21320D01*
X22320Y21495D01*
Y21685D01*
X22248Y21860D01*
X22114Y21994D01*
X21939Y22066D01*
D02*
G37*
G36*
X16500Y19650D02*
X15350D01*
Y18500D01*
X15415D01*
X15732Y18585D01*
X16018Y18750D01*
X16250Y18982D01*
X16415Y19268D01*
X16500Y19585D01*
Y19650D01*
D02*
G37*
G36*
X15150D02*
X14000D01*
Y19585D01*
X14085Y19268D01*
X14250Y18982D01*
X14482Y18750D01*
X14768Y18585D01*
X15085Y18500D01*
X15150D01*
Y19650D01*
D02*
G37*
G36*
X106035Y18105D02*
X105585D01*
X105497Y18088D01*
X105422Y18038D01*
X105372Y17963D01*
X105355Y17875D01*
Y16405D01*
X105372Y16317D01*
X105422Y16242D01*
X105497Y16192D01*
X105585Y16175D01*
X106035D01*
X106123Y16192D01*
X106198Y16242D01*
X106248Y16317D01*
X106265Y16405D01*
Y17875D01*
X106248Y17963D01*
X106198Y18038D01*
X106123Y18088D01*
X106035Y18105D01*
D02*
G37*
G36*
X104765D02*
X104315D01*
X104227Y18088D01*
X104152Y18038D01*
X104102Y17963D01*
X104085Y17875D01*
Y16405D01*
X104102Y16317D01*
X104152Y16242D01*
X104227Y16192D01*
X104315Y16175D01*
X104765D01*
X104853Y16192D01*
X104928Y16242D01*
X104978Y16317D01*
X104995Y16405D01*
Y17875D01*
X104978Y17963D01*
X104928Y18038D01*
X104853Y18088D01*
X104765Y18105D01*
D02*
G37*
G36*
X103495D02*
X103045D01*
X102957Y18088D01*
X102882Y18038D01*
X102832Y17963D01*
X102815Y17875D01*
Y16405D01*
X102832Y16317D01*
X102882Y16242D01*
X102957Y16192D01*
X103045Y16175D01*
X103495D01*
X103583Y16192D01*
X103658Y16242D01*
X103708Y16317D01*
X103725Y16405D01*
Y17875D01*
X103708Y17963D01*
X103658Y18038D01*
X103583Y18088D01*
X103495Y18105D01*
D02*
G37*
G36*
X102225D02*
X101775D01*
X101687Y18088D01*
X101612Y18038D01*
X101562Y17963D01*
X101545Y17875D01*
Y16405D01*
X101562Y16317D01*
X101612Y16242D01*
X101687Y16192D01*
X101775Y16175D01*
X102225D01*
X102313Y16192D01*
X102388Y16242D01*
X102438Y16317D01*
X102455Y16405D01*
Y17875D01*
X102438Y17963D01*
X102388Y18038D01*
X102313Y18088D01*
X102225Y18105D01*
D02*
G37*
G36*
X92165Y15250D02*
X92100D01*
Y14100D01*
X93250D01*
Y14165D01*
X93165Y14482D01*
X93000Y14768D01*
X92768Y15000D01*
X92482Y15165D01*
X92165Y15250D01*
D02*
G37*
G36*
X91900D02*
X91835D01*
X91518Y15165D01*
X91232Y15000D01*
X91000Y14768D01*
X90835Y14482D01*
X90750Y14165D01*
Y14100D01*
X91900D01*
Y15250D01*
D02*
G37*
G36*
X93250Y13900D02*
X92100D01*
Y12750D01*
X92165D01*
X92482Y12835D01*
X92768Y13000D01*
X93000Y13232D01*
X93165Y13518D01*
X93250Y13835D01*
Y13900D01*
D02*
G37*
G36*
X91900D02*
X90750D01*
Y13835D01*
X90835Y13518D01*
X91000Y13232D01*
X91232Y13000D01*
X91518Y12835D01*
X91835Y12750D01*
X91900D01*
Y13900D01*
D02*
G37*
G36*
X116080Y17598D02*
X115566Y17558D01*
X115064Y17437D01*
X114587Y17240D01*
X114147Y16970D01*
X113755Y16635D01*
X113420Y16243D01*
X113150Y15803D01*
X112953Y15326D01*
X112832Y14824D01*
X112792Y14310D01*
X112832Y13796D01*
X112953Y13294D01*
X113150Y12817D01*
X113420Y12377D01*
X113755Y11985D01*
X114147Y11650D01*
X114587Y11380D01*
X115064Y11183D01*
X115566Y11062D01*
X116080Y11022D01*
X116594Y11062D01*
X117096Y11183D01*
X117573Y11380D01*
X118013Y11650D01*
X118405Y11985D01*
X118740Y12377D01*
X119010Y12817D01*
X119207Y13294D01*
X119328Y13796D01*
X119368Y14310D01*
X119328Y14824D01*
X119207Y15326D01*
X119010Y15803D01*
X118740Y16243D01*
X118405Y16635D01*
X118013Y16970D01*
X117573Y17240D01*
X117096Y17437D01*
X116594Y17558D01*
X116080Y17598D01*
D02*
G37*
G36*
X106035Y11715D02*
X105585D01*
X105497Y11698D01*
X105422Y11648D01*
X105372Y11573D01*
X105355Y11485D01*
Y10015D01*
X105301Y9950D01*
X105049D01*
X104995Y10015D01*
Y11485D01*
X104978Y11573D01*
X104928Y11648D01*
X104853Y11698D01*
X104765Y11715D01*
X104315D01*
X104227Y11698D01*
X104152Y11648D01*
X104102Y11573D01*
X104085Y11485D01*
Y10015D01*
X104031Y9950D01*
X103779D01*
X103725Y10015D01*
Y11485D01*
X103708Y11573D01*
X103658Y11648D01*
X103583Y11698D01*
X103495Y11715D01*
X103045D01*
X102957Y11698D01*
X102882Y11648D01*
X102832Y11573D01*
X102815Y11485D01*
Y10015D01*
X102761Y9950D01*
X102509D01*
X102455Y10015D01*
Y11485D01*
X102438Y11573D01*
X102388Y11648D01*
X102313Y11698D01*
X102225Y11715D01*
X101775D01*
X101687Y11698D01*
X101612Y11648D01*
X101562Y11573D01*
X101545Y11485D01*
Y10414D01*
X101427Y10365D01*
X101241Y10552D01*
Y10750D01*
X101202Y10945D01*
X101185Y10970D01*
Y11485D01*
X101168Y11573D01*
X101118Y11648D01*
X101043Y11698D01*
X100955Y11715D01*
X100505D01*
X100417Y11698D01*
X100342Y11648D01*
X100292Y11573D01*
X100275Y11485D01*
Y10970D01*
X100258Y10945D01*
X100219Y10750D01*
Y10411D01*
X100105Y10358D01*
X100021Y10425D01*
Y10700D01*
X99982Y10895D01*
X99915Y10995D01*
Y11485D01*
X99898Y11573D01*
X99848Y11648D01*
X99773Y11698D01*
X99685Y11715D01*
X99235D01*
X99147Y11698D01*
X99072Y11648D01*
X99022Y11573D01*
X99005Y11485D01*
Y10970D01*
X98988Y10945D01*
X98949Y10750D01*
X98988Y10555D01*
X98999Y10538D01*
Y10338D01*
X98872Y10286D01*
X98751Y10407D01*
Y10700D01*
X98712Y10895D01*
X98645Y10995D01*
Y11485D01*
X98628Y11573D01*
X98578Y11648D01*
X98503Y11698D01*
X98415Y11715D01*
X97965D01*
X97877Y11698D01*
X97802Y11648D01*
X97752Y11573D01*
X97735Y11485D01*
Y10970D01*
X97718Y10945D01*
X97679Y10750D01*
X97718Y10555D01*
X97729Y10538D01*
Y10338D01*
X97602Y10286D01*
X97481Y10407D01*
Y10700D01*
X97442Y10895D01*
X97375Y10995D01*
Y11485D01*
X97358Y11573D01*
X97308Y11648D01*
X97233Y11698D01*
X97145Y11715D01*
X96695D01*
X96607Y11698D01*
X96532Y11648D01*
X96482Y11573D01*
X96465Y11485D01*
Y10970D01*
X96448Y10945D01*
X96409Y10750D01*
X96448Y10555D01*
X96459Y10538D01*
Y10195D01*
X96465Y10168D01*
Y10015D01*
X96482Y9927D01*
X96532Y9852D01*
X96607Y9802D01*
X96649Y9794D01*
X99946Y6497D01*
X100112Y6386D01*
X100307Y6347D01*
X100877D01*
X100999Y6335D01*
Y4333D01*
X101032D01*
Y3735D01*
X100797Y3672D01*
X100489Y3494D01*
X100238Y3243D01*
X100060Y2934D01*
X99968Y2591D01*
Y2235D01*
X100060Y1892D01*
X100238Y1583D01*
X100489Y1332D01*
X100797Y1154D01*
X101141Y1062D01*
X101497D01*
X101840Y1154D01*
X102148Y1332D01*
X102400Y1583D01*
X102578Y1892D01*
X102670Y2235D01*
Y2591D01*
X102578Y2934D01*
X102400Y3243D01*
X102148Y3494D01*
X102054Y3549D01*
Y4333D01*
X102401D01*
Y5853D01*
X102519Y5902D01*
X103448Y4973D01*
X103613Y4862D01*
X103809Y4823D01*
X107804D01*
Y4333D01*
X109206D01*
Y6335D01*
X107804D01*
Y5845D01*
X104021D01*
X102766Y7099D01*
X102819Y7226D01*
X110699D01*
X111473Y6452D01*
X111424Y6335D01*
X110504D01*
Y4333D01*
X111322D01*
Y3702D01*
X111210Y3672D01*
X110901Y3494D01*
X110650Y3243D01*
X110472Y2934D01*
X110380Y2591D01*
Y2235D01*
X110472Y1892D01*
X110650Y1583D01*
X110901Y1332D01*
X111210Y1154D01*
X111553Y1062D01*
X111909D01*
X112252Y1154D01*
X112561Y1332D01*
X112812Y1583D01*
X112990Y1892D01*
X113082Y2235D01*
Y2591D01*
X112990Y2934D01*
X112812Y3243D01*
X112561Y3494D01*
X112252Y3672D01*
X112140Y3702D01*
Y4508D01*
X112109Y4664D01*
X112020Y4797D01*
X111906Y4911D01*
Y5853D01*
X112023Y5902D01*
X115380Y2545D01*
Y2235D01*
X115472Y1892D01*
X115650Y1583D01*
X115901Y1332D01*
X116210Y1154D01*
X116553Y1062D01*
X116909D01*
X117252Y1154D01*
X117561Y1332D01*
X117812Y1583D01*
X117990Y1892D01*
X118082Y2235D01*
Y2591D01*
X117990Y2934D01*
X117812Y3243D01*
X117561Y3494D01*
X117252Y3672D01*
X116909Y3764D01*
X116553D01*
X116210Y3672D01*
X115901Y3494D01*
X115889Y3481D01*
X114821Y4549D01*
X114870Y4666D01*
X118349D01*
Y4524D01*
X119751D01*
Y6526D01*
X118349D01*
Y5688D01*
X114886D01*
X111763Y8811D01*
X111811Y8928D01*
X120399D01*
X125990Y3337D01*
X125999Y3294D01*
X126022Y3259D01*
X126006Y3243D01*
X125828Y2934D01*
X125736Y2591D01*
Y2235D01*
X125828Y1892D01*
X126006Y1583D01*
X126257Y1332D01*
X126566Y1154D01*
X126909Y1062D01*
X127265D01*
X127608Y1154D01*
X127917Y1332D01*
X128168Y1583D01*
X128346Y1892D01*
X128438Y2235D01*
Y2591D01*
X128346Y2934D01*
X128168Y3243D01*
X127917Y3494D01*
X127608Y3672D01*
X127265Y3764D01*
X126945D01*
X126943Y3774D01*
X126832Y3940D01*
X120972Y9800D01*
X120806Y9911D01*
X120611Y9950D01*
X106319D01*
X106265Y10015D01*
Y11485D01*
X106248Y11573D01*
X106198Y11648D01*
X106123Y11698D01*
X106035Y11715D01*
D02*
G37*
G36*
X28400Y14270D02*
X27950D01*
X27862Y14253D01*
X27787Y14203D01*
X27737Y14128D01*
X27720Y14040D01*
Y13525D01*
X27703Y13500D01*
X27664Y13305D01*
Y11703D01*
X27703Y11508D01*
X27814Y11342D01*
X31182Y7974D01*
X31348Y7863D01*
X31543Y7824D01*
X31543Y7824D01*
X39004D01*
Y7634D01*
X41006D01*
Y9036D01*
X39004D01*
Y8846D01*
X31755D01*
X28686Y11915D01*
Y13305D01*
X28647Y13500D01*
X28630Y13525D01*
Y14040D01*
X28613Y14128D01*
X28563Y14203D01*
X28488Y14253D01*
X28400Y14270D01*
D02*
G37*
G36*
X25860D02*
X25410D01*
X25322Y14253D01*
X25247Y14203D01*
X25197Y14128D01*
X25180Y14040D01*
Y13525D01*
X25163Y13500D01*
X25124Y13305D01*
Y10009D01*
X25163Y9814D01*
X25274Y9648D01*
X25858Y9063D01*
Y6890D01*
X25668D01*
Y4888D01*
X27070D01*
Y6890D01*
X26880D01*
Y9275D01*
X26841Y9470D01*
X26730Y9636D01*
X26146Y10221D01*
Y13305D01*
X26107Y13500D01*
X26090Y13525D01*
Y14040D01*
X26073Y14128D01*
X26023Y14203D01*
X25948Y14253D01*
X25860Y14270D01*
D02*
G37*
G36*
X23320D02*
X22870D01*
X22782Y14253D01*
X22707Y14203D01*
X22657Y14128D01*
X22640Y14040D01*
Y13550D01*
X22573Y13450D01*
X22534Y13255D01*
Y12170D01*
X18515Y8150D01*
X18404Y7984D01*
X18365Y7789D01*
Y6890D01*
X18175D01*
Y4888D01*
X19577D01*
Y6890D01*
X19387D01*
Y7577D01*
X23406Y11597D01*
X23517Y11763D01*
X23556Y11958D01*
Y13093D01*
X23567Y13110D01*
X23606Y13305D01*
X23567Y13500D01*
X23550Y13525D01*
Y14040D01*
X23533Y14128D01*
X23483Y14203D01*
X23408Y14253D01*
X23320Y14270D01*
D02*
G37*
G36*
X7478Y6082D02*
X5476D01*
Y5402D01*
X3759Y3686D01*
X3647Y3716D01*
X3291D01*
X2948Y3624D01*
X2639Y3446D01*
X2388Y3195D01*
X2210Y2886D01*
X2118Y2543D01*
Y2187D01*
X2210Y1844D01*
X2388Y1535D01*
X2639Y1284D01*
X2948Y1106D01*
X3291Y1014D01*
X3647D01*
X3990Y1106D01*
X4299Y1284D01*
X4550Y1535D01*
X4728Y1844D01*
X4820Y2187D01*
Y2543D01*
X4728Y2886D01*
X4610Y3091D01*
X6198Y4680D01*
X7478D01*
Y6082D01*
D02*
G37*
G36*
X24590Y14270D02*
X24140D01*
X24052Y14253D01*
X23977Y14203D01*
X23927Y14128D01*
X23910Y14040D01*
Y13525D01*
X23893Y13500D01*
X23854Y13305D01*
Y10880D01*
X21139Y8165D01*
X21028Y7999D01*
X20989Y7804D01*
Y5329D01*
X19327Y3666D01*
X19317Y3672D01*
X18974Y3764D01*
X18618D01*
X18275Y3672D01*
X17966Y3494D01*
X17715Y3243D01*
X17537Y2934D01*
X17445Y2591D01*
Y2235D01*
X17537Y1892D01*
X17715Y1583D01*
X17966Y1332D01*
X18275Y1154D01*
X18618Y1062D01*
X18974D01*
X19317Y1154D01*
X19626Y1332D01*
X19877Y1583D01*
X20055Y1892D01*
X20147Y2235D01*
Y2591D01*
X20055Y2934D01*
X20049Y2944D01*
X21861Y4756D01*
X21972Y4922D01*
X22011Y5117D01*
Y7592D01*
X24726Y10307D01*
X24837Y10473D01*
X24876Y10669D01*
Y13305D01*
X24837Y13500D01*
X24820Y13525D01*
Y14040D01*
X24803Y14128D01*
X24753Y14203D01*
X24678Y14253D01*
X24590Y14270D01*
D02*
G37*
G36*
X16877Y6890D02*
X15475D01*
Y5738D01*
X15465Y5689D01*
Y4805D01*
X14327Y3666D01*
X14317Y3672D01*
X13974Y3764D01*
X13618D01*
X13275Y3672D01*
X12966Y3494D01*
X12715Y3243D01*
X12537Y2934D01*
X12445Y2591D01*
Y2235D01*
X12537Y1892D01*
X12715Y1583D01*
X12966Y1332D01*
X13275Y1154D01*
X13618Y1062D01*
X13974D01*
X14317Y1154D01*
X14626Y1332D01*
X14877Y1583D01*
X15055Y1892D01*
X15147Y2235D01*
Y2591D01*
X15055Y2934D01*
X15049Y2944D01*
X16337Y4232D01*
X16448Y4398D01*
X16487Y4593D01*
Y4888D01*
X16877D01*
Y6890D01*
D02*
G37*
G36*
X122451Y6526D02*
X121049D01*
Y4524D01*
X121261D01*
X121274Y4458D01*
X121385Y4292D01*
X121576Y4100D01*
Y3675D01*
X121566Y3672D01*
X121257Y3494D01*
X121006Y3243D01*
X120828Y2934D01*
X120736Y2591D01*
Y2235D01*
X120828Y1892D01*
X121006Y1583D01*
X121257Y1332D01*
X121566Y1154D01*
X121909Y1062D01*
X122265D01*
X122608Y1154D01*
X122917Y1332D01*
X123168Y1583D01*
X123346Y1892D01*
X123438Y2235D01*
Y2591D01*
X123346Y2934D01*
X123168Y3243D01*
X122917Y3494D01*
X122608Y3672D01*
X122598Y3675D01*
Y4312D01*
X122559Y4507D01*
X122451Y4669D01*
Y6526D01*
D02*
G37*
G36*
X106497Y3764D02*
X106141D01*
X105797Y3672D01*
X105489Y3494D01*
X105238Y3243D01*
X105060Y2934D01*
X104968Y2591D01*
Y2235D01*
X105060Y1892D01*
X105238Y1583D01*
X105489Y1332D01*
X105797Y1154D01*
X106141Y1062D01*
X106497D01*
X106840Y1154D01*
X107148Y1332D01*
X107400Y1583D01*
X107578Y1892D01*
X107670Y2235D01*
Y2591D01*
X107578Y2934D01*
X107400Y3243D01*
X107148Y3494D01*
X106840Y3672D01*
X106497Y3764D01*
D02*
G37*
G36*
X79051Y6843D02*
X77649D01*
Y4841D01*
X77814D01*
Y3681D01*
X77779Y3672D01*
X77470Y3494D01*
X77219Y3243D01*
X77041Y2934D01*
X76949Y2591D01*
Y2235D01*
X77041Y1892D01*
X77219Y1583D01*
X77470Y1332D01*
X77779Y1154D01*
X78122Y1062D01*
X78478D01*
X78821Y1154D01*
X79130Y1332D01*
X79381Y1583D01*
X79559Y1892D01*
X79651Y2235D01*
Y2591D01*
X79559Y2934D01*
X79381Y3243D01*
X79130Y3494D01*
X78836Y3664D01*
Y4841D01*
X79051D01*
Y6843D01*
D02*
G37*
G36*
X27130Y14270D02*
X26680D01*
X26592Y14253D01*
X26517Y14203D01*
X26467Y14128D01*
X26450Y14040D01*
Y13525D01*
X26433Y13500D01*
X26394Y13305D01*
Y10845D01*
X26433Y10650D01*
X26544Y10484D01*
X28854Y8173D01*
Y3675D01*
X28844Y3672D01*
X28535Y3494D01*
X28284Y3243D01*
X28106Y2934D01*
X28014Y2591D01*
Y2235D01*
X28106Y1892D01*
X28284Y1583D01*
X28535Y1332D01*
X28844Y1154D01*
X29187Y1062D01*
X29543D01*
X29886Y1154D01*
X30195Y1332D01*
X30446Y1583D01*
X30624Y1892D01*
X30716Y2235D01*
Y2591D01*
X30624Y2934D01*
X30446Y3243D01*
X30195Y3494D01*
X29886Y3672D01*
X29876Y3675D01*
Y8385D01*
X29837Y8580D01*
X29726Y8746D01*
X29726Y8746D01*
X27416Y11057D01*
Y13305D01*
X27377Y13500D01*
X27360Y13525D01*
Y14040D01*
X27343Y14128D01*
X27293Y14203D01*
X27218Y14253D01*
X27130Y14270D01*
D02*
G37*
G36*
X24370Y6890D02*
X22968D01*
Y4888D01*
X23158D01*
Y3569D01*
X23197Y3374D01*
X23284Y3243D01*
X23284Y3243D01*
X23106Y2934D01*
X23014Y2591D01*
Y2235D01*
X23106Y1892D01*
X23284Y1583D01*
X23535Y1332D01*
X23844Y1154D01*
X24187Y1062D01*
X24543D01*
X24886Y1154D01*
X25195Y1332D01*
X25446Y1583D01*
X25624Y1892D01*
X25716Y2235D01*
Y2591D01*
X25624Y2934D01*
X25446Y3243D01*
X25195Y3494D01*
X24886Y3672D01*
X24543Y3764D01*
X24196D01*
X24180Y3781D01*
Y4888D01*
X24370D01*
Y6890D01*
D02*
G37*
G36*
X14580Y17598D02*
X14066Y17558D01*
X13564Y17437D01*
X13087Y17240D01*
X12647Y16970D01*
X12255Y16635D01*
X11920Y16243D01*
X11650Y15803D01*
X11453Y15326D01*
X11332Y14824D01*
X11292Y14310D01*
X11332Y13796D01*
X11453Y13294D01*
X11650Y12817D01*
X11920Y12377D01*
X12255Y11985D01*
X12647Y11650D01*
X13087Y11380D01*
X13564Y11183D01*
X14066Y11062D01*
X14580Y11022D01*
X15094Y11062D01*
X15596Y11183D01*
X16073Y11380D01*
X16513Y11650D01*
X16719Y11826D01*
X16805Y11733D01*
X15616Y10544D01*
X8448D01*
X8252Y10505D01*
X8087Y10394D01*
X6616Y8923D01*
X6521Y8782D01*
X5476D01*
Y7380D01*
X7478D01*
Y8232D01*
X7488Y8281D01*
Y8350D01*
X8660Y9522D01*
X11897D01*
X11910Y9395D01*
X11743Y9362D01*
X11577Y9251D01*
X8108Y5782D01*
X7997Y5616D01*
X7958Y5421D01*
Y3627D01*
X7948Y3624D01*
X7639Y3446D01*
X7388Y3195D01*
X7210Y2886D01*
X7118Y2543D01*
Y2187D01*
X7210Y1844D01*
X7388Y1535D01*
X7639Y1284D01*
X7948Y1106D01*
X8291Y1014D01*
X8647D01*
X8990Y1106D01*
X9299Y1284D01*
X9550Y1535D01*
X9728Y1844D01*
X9820Y2187D01*
Y2543D01*
X9728Y2886D01*
X9550Y3195D01*
X9299Y3446D01*
X8990Y3624D01*
X8980Y3627D01*
Y5209D01*
X12150Y8379D01*
X17915D01*
X18110Y8418D01*
X18276Y8529D01*
X22096Y12349D01*
X22138Y12357D01*
X22213Y12407D01*
X22263Y12482D01*
X22280Y12570D01*
Y12723D01*
X22286Y12750D01*
Y13093D01*
X22297Y13110D01*
X22336Y13305D01*
X22297Y13500D01*
X22280Y13525D01*
Y14040D01*
X22263Y14128D01*
X22213Y14203D01*
X22138Y14253D01*
X22050Y14270D01*
X21600D01*
X21512Y14253D01*
X21437Y14203D01*
X21387Y14128D01*
X21370Y14040D01*
Y13550D01*
X21303Y13450D01*
X21264Y13255D01*
Y12962D01*
X21128Y12826D01*
X21010Y12874D01*
Y13085D01*
X21027Y13110D01*
X21066Y13305D01*
X21027Y13500D01*
X21010Y13525D01*
Y14040D01*
X20993Y14128D01*
X20943Y14203D01*
X20868Y14253D01*
X20780Y14270D01*
X20330D01*
X20242Y14253D01*
X20167Y14203D01*
X20117Y14128D01*
X20100Y14040D01*
Y13816D01*
X19100D01*
X18905Y13777D01*
X18739Y13666D01*
X17157Y12085D01*
X17064Y12171D01*
X17240Y12377D01*
X17510Y12817D01*
X17707Y13294D01*
X17828Y13796D01*
X17868Y14310D01*
X17828Y14824D01*
X17707Y15326D01*
X17510Y15803D01*
X17240Y16243D01*
X16905Y16635D01*
X16513Y16970D01*
X16073Y17240D01*
X15596Y17437D01*
X15094Y17558D01*
X14580Y17598D01*
D02*
G37*
%LPD*%
G36*
X58441Y48625D02*
X58472Y48469D01*
X58561Y48336D01*
X62469Y44428D01*
X62420Y44311D01*
X53825D01*
X53786Y44294D01*
X53659Y44378D01*
Y46256D01*
X55839Y48436D01*
X55928Y48569D01*
X55959Y48725D01*
Y49049D01*
X56337D01*
Y46961D01*
X56299Y46869D01*
Y46679D01*
X56371Y46504D01*
X56505Y46370D01*
X56680Y46298D01*
X56870D01*
X57045Y46370D01*
X57179Y46504D01*
X57214Y46590D01*
X57341Y46565D01*
Y46391D01*
X57372Y46234D01*
X57461Y46101D01*
X57549Y46013D01*
Y45980D01*
X57621Y45805D01*
X57755Y45671D01*
X57930Y45599D01*
X58120D01*
X58295Y45671D01*
X58429Y45805D01*
X58501Y45980D01*
Y46170D01*
X58429Y46345D01*
X58295Y46479D01*
X58202Y46517D01*
X58159Y46560D01*
Y49049D01*
X58441D01*
Y48625D01*
D02*
G37*
G36*
X55141Y48894D02*
X52961Y46714D01*
X52872Y46581D01*
X52841Y46425D01*
Y35546D01*
X52872Y35389D01*
X52961Y35256D01*
X53426Y34792D01*
X53381Y34714D01*
X53299Y34408D01*
Y34157D01*
X53172Y34104D01*
X52684Y34592D01*
Y47631D01*
X53269Y48216D01*
X53475D01*
X53631Y48247D01*
X53764Y48336D01*
X54477Y49049D01*
X55141D01*
Y48894D01*
D02*
G37*
G36*
X99881Y28857D02*
X99831Y28730D01*
X94157D01*
X94119Y28871D01*
X93961Y29145D01*
X93737Y29368D01*
X93464Y29526D01*
X93158Y29608D01*
X92842D01*
X92536Y29526D01*
X92263Y29368D01*
X92039Y29145D01*
X91881Y28871D01*
X91866Y28816D01*
X90615D01*
X90566Y28933D01*
X90574Y28940D01*
X90646Y29115D01*
Y29305D01*
X90642Y29314D01*
X92487Y31159D01*
X92536Y31131D01*
X92842Y31049D01*
X93158D01*
X93464Y31131D01*
X93737Y31289D01*
X93961Y31513D01*
X94119Y31786D01*
X94134Y31841D01*
X96896D01*
X99881Y28857D01*
D02*
G37*
G36*
X81319Y33697D02*
X81487Y33529D01*
X81631Y33446D01*
Y28805D01*
X81327Y28501D01*
X81109D01*
Y33807D01*
X81236Y33841D01*
X81319Y33697D01*
D02*
G37*
G36*
X72476Y26532D02*
X72408Y26405D01*
X70999D01*
Y25595D01*
Y24809D01*
X68924D01*
X68872Y24936D01*
X70506Y26570D01*
X72451D01*
X72476Y26532D01*
D02*
G37*
G36*
X76675Y26735D02*
X73812Y23872D01*
X73777Y23878D01*
X73688Y23928D01*
Y26404D01*
X73657Y26560D01*
X73568Y26693D01*
X73525Y26735D01*
X73574Y26853D01*
X76626D01*
X76675Y26735D01*
D02*
G37*
G36*
X64960Y23467D02*
X64960Y23437D01*
X60416Y18893D01*
X50295D01*
X50239Y18960D01*
Y19286D01*
X59245D01*
X59401Y19317D01*
X59534Y19406D01*
X61039Y20911D01*
X61064Y20948D01*
X61264Y21148D01*
X61357Y21186D01*
X61491Y21320D01*
X61563Y21495D01*
Y21685D01*
X61491Y21860D01*
X61357Y21994D01*
X61182Y22066D01*
X60992D01*
X60817Y21994D01*
X60683Y21860D01*
X60611Y21685D01*
Y21652D01*
X60461Y21502D01*
X60436Y21464D01*
X59076Y20104D01*
X50239D01*
Y20430D01*
X50222Y20518D01*
X50172Y20593D01*
X50097Y20643D01*
X50009Y20660D01*
X49559D01*
X49471Y20643D01*
X49396Y20593D01*
X49346Y20518D01*
X49329Y20430D01*
Y18960D01*
X49273Y18893D01*
X49025D01*
X48969Y18960D01*
Y20430D01*
X48952Y20518D01*
X48923Y20562D01*
Y22854D01*
X49272Y23203D01*
X50696D01*
Y23495D01*
X52999D01*
Y23203D01*
X55001D01*
Y23495D01*
X55999D01*
Y23203D01*
X58001D01*
Y23495D01*
X63194D01*
X63264Y23481D01*
X64238D01*
X64246Y23472D01*
X64421Y23400D01*
X64611D01*
X64786Y23472D01*
X64833Y23519D01*
X64960Y23467D01*
D02*
G37*
G36*
X84782Y24302D02*
X85374D01*
Y24169D01*
X85405Y24012D01*
X85494Y23880D01*
X85787Y23587D01*
X85919Y23498D01*
X86021Y23478D01*
X86009Y23351D01*
X84679D01*
Y23266D01*
X84001D01*
Y23995D01*
Y24791D01*
X84782D01*
Y24302D01*
D02*
G37*
G36*
X98459Y21199D02*
X99051D01*
Y20809D01*
X98447D01*
X98285Y20876D01*
X98095D01*
X97920Y20804D01*
X97786Y20670D01*
X97714Y20495D01*
Y20305D01*
X97786Y20130D01*
X97920Y19996D01*
X98095Y19924D01*
X98285D01*
X98447Y19991D01*
X99051D01*
Y18007D01*
X99022Y17963D01*
X99005Y17875D01*
Y16405D01*
X99022Y16317D01*
X99072Y16242D01*
X99147Y16192D01*
X99235Y16175D01*
X99517D01*
X99569Y16048D01*
X95429Y11907D01*
X94211D01*
X94162Y12024D01*
X98313Y16175D01*
X98415D01*
X98503Y16192D01*
X98578Y16242D01*
X98628Y16317D01*
X98645Y16405D01*
Y17875D01*
X98628Y17963D01*
X98578Y18038D01*
X98503Y18088D01*
X98415Y18105D01*
X97965D01*
X97877Y18088D01*
X97802Y18038D01*
X97752Y17963D01*
X97735Y17875D01*
Y16753D01*
X97502Y16521D01*
X97375Y16573D01*
Y17875D01*
X97358Y17963D01*
X97329Y18007D01*
Y21199D01*
X97921D01*
Y21491D01*
X98459D01*
Y21199D01*
D02*
G37*
G36*
X48291Y23378D02*
X48225Y23312D01*
X48136Y23179D01*
X48105Y23023D01*
Y20562D01*
X48076Y20518D01*
X48059Y20430D01*
Y19128D01*
X47932Y19076D01*
X47699Y19308D01*
Y20430D01*
X47682Y20518D01*
X47632Y20593D01*
X47557Y20643D01*
X47469Y20660D01*
X47019D01*
X46931Y20643D01*
X46856Y20593D01*
X46806Y20518D01*
X46789Y20430D01*
Y18960D01*
X46806Y18872D01*
X46856Y18797D01*
X46931Y18747D01*
X47019Y18730D01*
X47121D01*
X47656Y18195D01*
X47789Y18106D01*
X47945Y18075D01*
X60585D01*
X60697Y18097D01*
X60760Y17980D01*
X60460Y17681D01*
X46786D01*
X45865Y18603D01*
X45917Y18730D01*
X46199D01*
X46287Y18747D01*
X46362Y18797D01*
X46412Y18872D01*
X46429Y18960D01*
Y20430D01*
X46412Y20518D01*
X46383Y20562D01*
Y23175D01*
X46407Y23199D01*
X47831D01*
Y23495D01*
X48242D01*
X48291Y23378D01*
D02*
G37*
G36*
X45576Y23397D02*
X45565Y23344D01*
Y20562D01*
X45536Y20518D01*
X45519Y20430D01*
Y19128D01*
X45392Y19076D01*
X45159Y19308D01*
Y20430D01*
X45142Y20518D01*
X45092Y20593D01*
X45017Y20643D01*
X44929Y20660D01*
X44479D01*
X44391Y20643D01*
X44316Y20593D01*
X44266Y20518D01*
X44249Y20430D01*
Y18960D01*
X44266Y18872D01*
X44316Y18797D01*
X44391Y18747D01*
X44479Y18730D01*
X44581D01*
X46164Y17147D01*
X46115Y17030D01*
X44897D01*
X43325Y18603D01*
X43377Y18730D01*
X43659D01*
X43747Y18747D01*
X43822Y18797D01*
X43872Y18872D01*
X43889Y18960D01*
Y20430D01*
X43872Y20518D01*
X43843Y20562D01*
Y23203D01*
X44981D01*
Y23495D01*
X45495D01*
X45576Y23397D01*
D02*
G37*
G36*
X75491Y14886D02*
X75010Y14405D01*
X74921Y14273D01*
X74890Y14116D01*
Y12616D01*
X74773Y12568D01*
X73254Y14087D01*
Y15499D01*
X75491D01*
Y14886D01*
D02*
G37*
G36*
X71351Y12401D02*
X71303Y12284D01*
X50216D01*
X50179Y12388D01*
X50174Y12411D01*
X50222Y12482D01*
X50239Y12570D01*
Y12824D01*
X58039D01*
X58234Y12863D01*
X58400Y12974D01*
X58511Y13140D01*
X58550Y13335D01*
X58511Y13530D01*
X58400Y13696D01*
X58234Y13807D01*
X58039Y13846D01*
X50239D01*
Y14040D01*
X50222Y14128D01*
X50172Y14203D01*
X50097Y14253D01*
X50009Y14270D01*
X49559D01*
X49471Y14253D01*
X49396Y14203D01*
X49346Y14128D01*
X49329Y14040D01*
Y13525D01*
X49312Y13500D01*
X49273Y13305D01*
X49312Y13110D01*
X49329Y13085D01*
Y12570D01*
X49346Y12482D01*
X49394Y12411D01*
X49389Y12388D01*
X49352Y12284D01*
X48946D01*
X48909Y12388D01*
X48904Y12411D01*
X48952Y12482D01*
X48969Y12570D01*
Y13085D01*
X48986Y13110D01*
X49025Y13305D01*
Y15155D01*
X49229Y15359D01*
X68393D01*
X71351Y12401D01*
D02*
G37*
G36*
X52974Y8420D02*
X52911Y8302D01*
X52852Y8314D01*
X46742D01*
X46474Y8582D01*
X46526Y8709D01*
X52684D01*
X52974Y8420D01*
D02*
G37*
G36*
X109463Y38461D02*
X109596Y38372D01*
X109752Y38341D01*
X109752Y38341D01*
X110833D01*
Y38049D01*
X110833D01*
Y37951D01*
X110833D01*
Y37159D01*
X109753D01*
Y37451D01*
X108329D01*
X107802Y37978D01*
Y38749D01*
X109175D01*
X109463Y38461D01*
D02*
G37*
G36*
X116505Y44994D02*
X116920Y44895D01*
X117314Y44731D01*
X117677Y44509D01*
X118002Y44232D01*
X118279Y43907D01*
X118501Y43544D01*
X118665Y43150D01*
X118764Y42735D01*
X118798Y42310D01*
X118764Y41885D01*
X118665Y41470D01*
X118501Y41076D01*
X118279Y40713D01*
X118002Y40388D01*
X117677Y40111D01*
X117314Y39889D01*
X116920Y39725D01*
X116505Y39626D01*
X116080Y39592D01*
X115655Y39626D01*
X115240Y39725D01*
X114846Y39889D01*
X114483Y40111D01*
X114158Y40388D01*
X113881Y40713D01*
X113659Y41076D01*
X113495Y41470D01*
X113396Y41885D01*
X113362Y42310D01*
X113396Y42735D01*
X113495Y43150D01*
X113659Y43544D01*
X113881Y43907D01*
X114158Y44232D01*
X114483Y44509D01*
X114846Y44731D01*
X115240Y44895D01*
X115655Y44994D01*
X116080Y45028D01*
X116505Y44994D01*
D02*
G37*
%LPC*%
G36*
X116252Y44061D02*
X115908D01*
X115569Y43994D01*
X115251Y43862D01*
X114964Y43670D01*
X114720Y43426D01*
X114528Y43139D01*
X114396Y42821D01*
X114329Y42482D01*
Y42138D01*
X114396Y41799D01*
X114528Y41481D01*
X114720Y41194D01*
X114964Y40950D01*
X115251Y40758D01*
X115569Y40626D01*
X115908Y40559D01*
X116252D01*
X116591Y40626D01*
X116909Y40758D01*
X117196Y40950D01*
X117440Y41194D01*
X117632Y41481D01*
X117764Y41799D01*
X117831Y42138D01*
Y42482D01*
X117764Y42821D01*
X117632Y43139D01*
X117440Y43426D01*
X117196Y43670D01*
X116909Y43862D01*
X116591Y43994D01*
X116252Y44061D01*
D02*
G37*
%LPD*%
G36*
X15005Y44994D02*
X15420Y44895D01*
X15814Y44731D01*
X16177Y44509D01*
X16502Y44232D01*
X16779Y43907D01*
X17001Y43544D01*
X17165Y43150D01*
X17264Y42735D01*
X17298Y42310D01*
X17264Y41885D01*
X17165Y41470D01*
X17001Y41076D01*
X16779Y40713D01*
X16502Y40388D01*
X16177Y40111D01*
X15814Y39889D01*
X15420Y39725D01*
X15005Y39626D01*
X14580Y39592D01*
X14155Y39626D01*
X13740Y39725D01*
X13346Y39889D01*
X12983Y40111D01*
X12658Y40388D01*
X12381Y40713D01*
X12159Y41076D01*
X11995Y41470D01*
X11896Y41885D01*
X11862Y42310D01*
X11896Y42735D01*
X11995Y43150D01*
X12159Y43544D01*
X12381Y43907D01*
X12658Y44232D01*
X12983Y44509D01*
X13346Y44731D01*
X13740Y44895D01*
X14155Y44994D01*
X14580Y45028D01*
X15005Y44994D01*
D02*
G37*
%LPC*%
G36*
X14752Y44061D02*
X14408D01*
X14069Y43994D01*
X13751Y43862D01*
X13464Y43670D01*
X13220Y43426D01*
X13028Y43139D01*
X12896Y42821D01*
X12829Y42482D01*
Y42138D01*
X12896Y41799D01*
X13028Y41481D01*
X13220Y41194D01*
X13464Y40950D01*
X13751Y40758D01*
X14069Y40626D01*
X14408Y40559D01*
X14752D01*
X15091Y40626D01*
X15409Y40758D01*
X15696Y40950D01*
X15940Y41194D01*
X16132Y41481D01*
X16264Y41799D01*
X16331Y42138D01*
Y42482D01*
X16264Y42821D01*
X16132Y43139D01*
X15940Y43426D01*
X15696Y43670D01*
X15409Y43862D01*
X15091Y43994D01*
X14752Y44061D01*
D02*
G37*
%LPD*%
G36*
X116505Y16994D02*
X116920Y16895D01*
X117314Y16731D01*
X117677Y16509D01*
X118002Y16232D01*
X118279Y15907D01*
X118501Y15544D01*
X118665Y15150D01*
X118764Y14735D01*
X118798Y14310D01*
X118764Y13885D01*
X118665Y13470D01*
X118501Y13076D01*
X118279Y12713D01*
X118002Y12388D01*
X117677Y12111D01*
X117314Y11889D01*
X116920Y11725D01*
X116505Y11626D01*
X116080Y11592D01*
X115655Y11626D01*
X115240Y11725D01*
X114846Y11889D01*
X114483Y12111D01*
X114158Y12388D01*
X113881Y12713D01*
X113659Y13076D01*
X113495Y13470D01*
X113396Y13885D01*
X113362Y14310D01*
X113396Y14735D01*
X113495Y15150D01*
X113659Y15544D01*
X113881Y15907D01*
X114158Y16232D01*
X114483Y16509D01*
X114846Y16731D01*
X115240Y16895D01*
X115655Y16994D01*
X116080Y17028D01*
X116505Y16994D01*
D02*
G37*
%LPC*%
G36*
X116252Y16061D02*
X115908D01*
X115569Y15994D01*
X115251Y15862D01*
X114964Y15670D01*
X114720Y15426D01*
X114528Y15139D01*
X114396Y14821D01*
X114329Y14482D01*
Y14138D01*
X114396Y13799D01*
X114528Y13481D01*
X114720Y13194D01*
X114964Y12950D01*
X115251Y12758D01*
X115569Y12626D01*
X115908Y12559D01*
X116252D01*
X116591Y12626D01*
X116909Y12758D01*
X117196Y12950D01*
X117440Y13194D01*
X117632Y13481D01*
X117764Y13799D01*
X117831Y14138D01*
Y14482D01*
X117764Y14821D01*
X117632Y15139D01*
X117440Y15426D01*
X117196Y15670D01*
X116909Y15862D01*
X116591Y15994D01*
X116252Y16061D01*
D02*
G37*
%LPD*%
G36*
X15005Y16994D02*
X15420Y16895D01*
X15814Y16731D01*
X16177Y16509D01*
X16502Y16232D01*
X16779Y15907D01*
X17001Y15544D01*
X17165Y15150D01*
X17264Y14735D01*
X17298Y14310D01*
X17264Y13885D01*
X17165Y13470D01*
X17001Y13076D01*
X16779Y12713D01*
X16502Y12388D01*
X16177Y12111D01*
X15814Y11889D01*
X15420Y11725D01*
X15005Y11626D01*
X14580Y11592D01*
X14155Y11626D01*
X13740Y11725D01*
X13346Y11889D01*
X12983Y12111D01*
X12658Y12388D01*
X12381Y12713D01*
X12159Y13076D01*
X11995Y13470D01*
X11896Y13885D01*
X11862Y14310D01*
X11896Y14735D01*
X11995Y15150D01*
X12159Y15544D01*
X12381Y15907D01*
X12658Y16232D01*
X12983Y16509D01*
X13346Y16731D01*
X13740Y16895D01*
X14155Y16994D01*
X14580Y17028D01*
X15005Y16994D01*
D02*
G37*
G36*
X20100Y12570D02*
X20117Y12482D01*
X20167Y12407D01*
X20242Y12357D01*
X20330Y12340D01*
X20476D01*
X20524Y12222D01*
X17703Y9401D01*
X15869D01*
X15856Y9528D01*
X16023Y9561D01*
X16189Y9672D01*
X19312Y12794D01*
X20100D01*
Y12570D01*
D02*
G37*
%LPC*%
G36*
X14752Y16061D02*
X14408D01*
X14069Y15994D01*
X13751Y15862D01*
X13464Y15670D01*
X13220Y15426D01*
X13028Y15139D01*
X12896Y14821D01*
X12829Y14482D01*
Y14138D01*
X12896Y13799D01*
X13028Y13481D01*
X13220Y13194D01*
X13464Y12950D01*
X13751Y12758D01*
X14069Y12626D01*
X14408Y12559D01*
X14752D01*
X15091Y12626D01*
X15409Y12758D01*
X15696Y12950D01*
X15940Y13194D01*
X16132Y13481D01*
X16264Y13799D01*
X16331Y14138D01*
Y14482D01*
X16264Y14821D01*
X16132Y15139D01*
X15940Y15426D01*
X15696Y15670D01*
X15409Y15862D01*
X15091Y15994D01*
X14752Y16061D01*
D02*
G37*
%LPD*%
D10*
X83177Y18000D02*
D03*
Y18800D02*
D03*
Y19600D02*
D03*
Y20400D02*
D03*
Y21200D02*
D03*
Y22000D02*
D03*
Y22800D02*
D03*
Y23600D02*
D03*
Y24400D02*
D03*
Y25200D02*
D03*
Y26000D02*
D03*
X71823D02*
D03*
Y25200D02*
D03*
Y24400D02*
D03*
Y23600D02*
D03*
Y22800D02*
D03*
Y22000D02*
D03*
Y21200D02*
D03*
Y20400D02*
D03*
Y19600D02*
D03*
Y18800D02*
D03*
Y18000D02*
D03*
D11*
X81500Y27677D02*
D03*
X80700D02*
D03*
X79900D02*
D03*
X79100D02*
D03*
X78300D02*
D03*
X77500D02*
D03*
X76700D02*
D03*
X75900D02*
D03*
X75100D02*
D03*
X74300D02*
D03*
X73500D02*
D03*
Y16323D02*
D03*
X74300D02*
D03*
X75100D02*
D03*
X75900D02*
D03*
X76700D02*
D03*
X77500D02*
D03*
X78300D02*
D03*
X79100D02*
D03*
X79900D02*
D03*
X80700D02*
D03*
X81500D02*
D03*
D12*
X123868Y24670D02*
D03*
Y25940D02*
D03*
Y27210D02*
D03*
Y28480D02*
D03*
X118418Y24670D02*
D03*
Y25940D02*
D03*
Y27210D02*
D03*
Y28480D02*
D03*
D13*
X121150Y26600D02*
D03*
D14*
X76250Y13250D02*
D03*
X77750D02*
D03*
X85380Y22500D02*
D03*
X86880D02*
D03*
X86983Y25153D02*
D03*
X85483D02*
D03*
X78613Y31877D02*
D03*
X77113D02*
D03*
X9250Y46000D02*
D03*
X7750D02*
D03*
X4750Y46000D02*
D03*
X6250D02*
D03*
X116080Y25750D02*
D03*
X114580D02*
D03*
X120500Y22500D02*
D03*
X119000D02*
D03*
X114750Y27750D02*
D03*
X116250D02*
D03*
X102684Y45000D02*
D03*
X104184D02*
D03*
D15*
X68750Y20205D02*
D03*
Y21705D02*
D03*
X109434Y44500D02*
D03*
Y43000D02*
D03*
X125497Y27226D02*
D03*
Y25726D02*
D03*
X26435Y45000D02*
D03*
Y46500D02*
D03*
X89434Y38750D02*
D03*
Y40250D02*
D03*
X111684Y38750D02*
D03*
Y37250D02*
D03*
D16*
X54450Y49800D02*
D03*
X55550D02*
D03*
X56650D02*
D03*
X57750D02*
D03*
X58850D02*
D03*
X59950D02*
D03*
X61050D02*
D03*
X62150D02*
D03*
D17*
X64620Y52000D02*
D03*
Y43800D02*
D03*
X50730D02*
D03*
Y52000D02*
D03*
D18*
X40894Y13305D02*
D03*
X42164D02*
D03*
X43434D02*
D03*
X44704D02*
D03*
X45974D02*
D03*
X47244D02*
D03*
X48514D02*
D03*
X49784D02*
D03*
Y19695D02*
D03*
X48514D02*
D03*
X47244D02*
D03*
X45974D02*
D03*
X44704D02*
D03*
X43434D02*
D03*
X42164D02*
D03*
X40894D02*
D03*
X96920Y10750D02*
D03*
X98190D02*
D03*
X99460D02*
D03*
X100730D02*
D03*
X102000D02*
D03*
X103270D02*
D03*
X104540D02*
D03*
X105810D02*
D03*
Y17140D02*
D03*
X104540D02*
D03*
X103270D02*
D03*
X102000D02*
D03*
X100730D02*
D03*
X99460D02*
D03*
X98190D02*
D03*
X96920D02*
D03*
X20555Y19695D02*
D03*
X21825D02*
D03*
X23095D02*
D03*
X24365D02*
D03*
X25635D02*
D03*
X26905D02*
D03*
X28175D02*
D03*
X29445D02*
D03*
Y13305D02*
D03*
X28175D02*
D03*
X26905D02*
D03*
X25635D02*
D03*
X24365D02*
D03*
X23095D02*
D03*
X21825D02*
D03*
X20555D02*
D03*
D19*
X105184Y27035D02*
D03*
Y27670D02*
D03*
Y28330D02*
D03*
Y28965D02*
D03*
X100816D02*
D03*
Y28330D02*
D03*
Y27670D02*
D03*
Y27035D02*
D03*
D20*
X96920Y24600D02*
D03*
Y21900D02*
D03*
X99460Y24600D02*
D03*
Y21900D02*
D03*
X91934Y40850D02*
D03*
Y38150D02*
D03*
X108752Y32400D02*
D03*
Y35100D02*
D03*
X49695Y23904D02*
D03*
Y26604D02*
D03*
X46830Y23900D02*
D03*
Y26600D02*
D03*
X108752Y36750D02*
D03*
Y39450D02*
D03*
X91934Y44150D02*
D03*
Y46850D02*
D03*
X57000Y26604D02*
D03*
Y23904D02*
D03*
X54000Y26604D02*
D03*
Y23904D02*
D03*
X20103D02*
D03*
Y26604D02*
D03*
X23095Y23900D02*
D03*
Y26600D02*
D03*
X43980Y23904D02*
D03*
Y26604D02*
D03*
X40945Y23904D02*
D03*
Y26604D02*
D03*
X27865Y23904D02*
D03*
Y26604D02*
D03*
X25500Y23904D02*
D03*
Y26604D02*
D03*
X6477Y5381D02*
D03*
Y8081D02*
D03*
X40005Y5635D02*
D03*
Y8335D02*
D03*
D21*
X119050Y5525D02*
D03*
X121750D02*
D03*
X108505Y5334D02*
D03*
X111205D02*
D03*
X52912Y5635D02*
D03*
X50212D02*
D03*
X65485Y5842D02*
D03*
X62785D02*
D03*
X78350D02*
D03*
X75650D02*
D03*
X101700Y5334D02*
D03*
X99000D02*
D03*
X16176Y5889D02*
D03*
X18876D02*
D03*
X23669D02*
D03*
X26369D02*
D03*
D22*
X106159Y38945D02*
D03*
Y40215D02*
D03*
Y41485D02*
D03*
Y42755D02*
D03*
X100709Y38945D02*
D03*
Y40215D02*
D03*
Y41485D02*
D03*
Y42755D02*
D03*
D23*
X3000Y31975D02*
D03*
X5500D02*
D03*
Y38025D02*
D03*
X3000D02*
D03*
D24*
X21890Y46025D02*
D03*
Y45075D02*
D03*
Y44125D02*
D03*
X24540D02*
D03*
Y45075D02*
D03*
Y46025D02*
D03*
D25*
X32550Y40050D02*
D03*
X42450D02*
D03*
D26*
X21500Y39300D02*
D03*
Y32200D02*
D03*
D27*
X30380Y51670D02*
D03*
X23280D02*
D03*
D28*
X22250Y51450D02*
X22280Y51420D01*
X18375Y51450D02*
X22250D01*
X126338Y28480D02*
X126763Y28054D01*
X123868Y28480D02*
X126338D01*
X60585Y18484D02*
X65416Y23315D01*
X65445D01*
X20675Y45075D02*
X21890D01*
X21890Y45075D01*
X20675Y45075D02*
X20675Y45075D01*
X20193Y46025D02*
X21890D01*
X19900Y41900D02*
Y45732D01*
X20193Y46025D01*
X19900Y41900D02*
X21500Y40300D01*
X109000Y24527D02*
Y24751D01*
X106100Y27652D02*
X109000Y24751D01*
X81500Y25200D02*
X85437D01*
X85783Y24854D01*
Y24169D02*
X86076Y23876D01*
X85783Y24169D02*
Y24854D01*
X86076Y23876D02*
X90170D01*
X77496Y27673D02*
Y28567D01*
X78300Y16323D02*
Y18208D01*
X21500Y39300D02*
Y40300D01*
X29750Y23904D02*
Y28550D01*
X21500Y36800D02*
Y39300D01*
Y36800D02*
X29750Y28550D01*
X124332Y24643D02*
X125550Y23425D01*
X123988Y24643D02*
X124332D01*
X125550Y23425D02*
X126175D01*
X128250Y25500D01*
X123976Y24631D02*
X123988Y24643D01*
X61883Y48500D02*
X62975D01*
X67750Y34500D02*
Y43725D01*
X62975Y48500D02*
X67750Y43725D01*
X54651Y31460D02*
Y34099D01*
Y31460D02*
X57000Y29111D01*
Y26604D02*
Y29111D01*
X61750Y23904D02*
Y38709D01*
X61850Y38809D01*
Y38850D01*
X55875Y36875D02*
Y40450D01*
Y36875D02*
X58500Y34250D01*
X22700Y51500D02*
Y51750D01*
X22280Y51420D02*
X22600D01*
X56746Y46803D02*
X56775Y46774D01*
X56746Y46803D02*
Y49704D01*
X76940Y26423D02*
X76959Y26404D01*
X76940Y26423D02*
X77496Y26979D01*
X76959Y26404D02*
X80296D01*
X73513Y22995D02*
X76940Y26423D01*
X80296Y26404D02*
X81500Y25200D01*
X79883Y23130D02*
Y25590D01*
X118518Y23132D02*
X119000Y22650D01*
Y22500D02*
Y22650D01*
X118518Y23132D02*
Y24623D01*
X112300Y44500D02*
X114875Y47075D01*
X124415D02*
X124604Y47263D01*
X114875Y47075D02*
X124415D01*
X124750Y47117D02*
Y51750D01*
X124604Y47263D02*
X127250Y44617D01*
Y43000D02*
Y44617D01*
X109434Y44500D02*
X112300D01*
X57750Y46391D02*
X58025Y46116D01*
Y46075D02*
Y46116D01*
X57750Y46391D02*
Y49800D01*
X58850Y48625D02*
Y49800D01*
Y48625D02*
X62927Y44548D01*
X62996D02*
X63250Y44294D01*
X62927Y44548D02*
X62996D01*
X61050Y49800D02*
X61200Y49650D01*
Y49183D02*
Y49650D01*
Y49183D02*
X61883Y48500D01*
X56650Y49800D02*
X56746Y49704D01*
X53250Y35546D02*
Y46425D01*
Y35546D02*
X54500Y34296D01*
X53250Y46425D02*
X55550Y48725D01*
X53475Y48625D02*
X54450Y49600D01*
X52275Y47800D02*
X53100Y48625D01*
X54450Y49600D02*
Y49800D01*
X53100Y48625D02*
X53475D01*
X52275Y34423D02*
Y47800D01*
Y34423D02*
X54000Y32698D01*
Y26604D02*
Y32698D01*
X55550Y48725D02*
Y49800D01*
X63250Y34250D02*
Y44294D01*
X67750Y34250D02*
X68000Y34500D01*
X63250Y34250D02*
X63250Y34250D01*
X126763Y28054D02*
X128236D01*
X127750Y28540D02*
Y37250D01*
Y28540D02*
X128236Y28054D01*
X22600Y51420D02*
X23030D01*
X69977Y23315D02*
X70614D01*
X101902Y21900D02*
X105156Y25153D01*
X99460Y21900D02*
X101902D01*
X98016Y27663D02*
X100809D01*
X94880Y24527D02*
X98016Y27663D01*
X100809D02*
X100816Y27670D01*
X105156Y25153D02*
Y26972D01*
X87066Y28407D02*
X93000D01*
X94361Y40215D02*
X100709D01*
X93726Y40850D02*
X94361Y40215D01*
X91934Y40850D02*
X93726D01*
X77000Y29063D02*
X77496Y28567D01*
X79540Y42500D02*
X83890Y46850D01*
X76980Y30533D02*
Y34230D01*
X77000Y29063D02*
Y30513D01*
X104719Y28965D02*
X105184D01*
X99460Y20400D02*
Y21900D01*
Y17140D02*
Y20400D01*
X98190D02*
X99460D01*
X88873D02*
X93000Y24527D01*
X83177Y18800D02*
X89434D01*
X83177Y20400D02*
X88873D01*
X111205Y5034D02*
X111731Y4508D01*
X111205Y5034D02*
Y5334D01*
X111731Y1603D02*
Y4508D01*
X75057Y17739D02*
X75096Y17700D01*
Y16327D02*
X75100Y16323D01*
X75096Y16327D02*
Y17700D01*
X75057Y17739D02*
Y17780D01*
X73823Y18506D02*
X76312D01*
X72845Y17528D02*
X73823Y18506D01*
X76312D02*
X76696Y18122D01*
X60750Y21212D02*
X61087Y21549D01*
Y21590D01*
X60750Y21200D02*
Y21212D01*
X59245Y19695D02*
X60750Y21200D01*
X49784Y19695D02*
X59245D01*
X90199Y29449D02*
X93000Y32250D01*
X90199Y29239D02*
Y29449D01*
X90170Y29210D02*
X90199Y29239D01*
X83693Y31780D02*
X87066Y28407D01*
X79883Y30745D02*
Y31877D01*
X79100Y29962D02*
X79883Y30745D01*
X79100Y27677D02*
Y29962D01*
X80700Y27677D02*
Y34538D01*
X81563Y35401D01*
X83693Y31780D02*
Y31877D01*
X81500Y27677D02*
Y28096D01*
X82040Y28636D02*
Y34250D01*
X81500Y28096D02*
X82040Y28636D01*
X73025Y31246D02*
Y31877D01*
X79883Y28643D02*
X79896Y28630D01*
X79883Y28643D02*
Y29718D01*
X79896Y27681D02*
Y28630D01*
Y27681D02*
X79900Y27677D01*
X79883Y23130D02*
X81813Y21200D01*
X81695Y26073D02*
X81767Y26000D01*
X83177D01*
X81654Y26073D02*
X81695D01*
X81813Y21200D02*
X83177D01*
X73513Y22995D02*
X78300Y18208D01*
X72521Y22004D02*
X73513Y22995D01*
X76696Y16327D02*
Y18122D01*
X67750Y21705D02*
X68750D01*
X61013Y16621D02*
X68791Y24400D01*
X71823D01*
X44728Y16621D02*
X61013D01*
X60630Y17272D02*
X70336Y26979D01*
X46617Y17272D02*
X60630D01*
X63250Y23904D02*
X63264Y23890D01*
X64502D01*
X64516Y23876D01*
X47945Y18484D02*
X60585D01*
X70336Y26979D02*
X72704D01*
X68795Y22004D02*
X71819D01*
X70614Y23315D02*
X71125Y22804D01*
X71819D02*
X71823Y22800D01*
X71125Y22804D02*
X71819D01*
X72704Y26979D02*
X73279Y26404D01*
X72986Y23600D02*
X73279Y23893D01*
Y26404D01*
X47244Y19185D02*
X47945Y18484D01*
X47244Y19185D02*
Y19695D01*
X72845Y13917D02*
Y17528D01*
X44704Y19185D02*
X46617Y17272D01*
X42164Y19185D02*
X44728Y16621D01*
X71823Y23600D02*
X72986D01*
X44704Y19185D02*
Y19695D01*
X76696Y16327D02*
X76700Y16323D01*
X72845Y13917D02*
X75264Y11498D01*
X95598D02*
X100730Y16630D01*
X75264Y11498D02*
X95598D01*
X100730Y16630D02*
Y17140D01*
X75299Y12384D02*
X75534Y12149D01*
X75299Y12384D02*
Y14116D01*
X75534Y12149D02*
X93709D01*
X98190Y16630D01*
X75900Y14717D02*
Y16323D01*
X75299Y14116D02*
X75900Y14717D01*
X98190Y16630D02*
Y17140D01*
X73025Y31246D02*
X75755Y28516D01*
X74420Y32190D02*
Y34250D01*
X75946Y29246D02*
Y30664D01*
X74420Y32190D02*
X75946Y30664D01*
Y29246D02*
X76406Y28786D01*
Y28736D02*
Y28786D01*
X76980Y30533D02*
X77000Y30513D01*
X75755Y28467D02*
X75896Y28326D01*
Y27681D02*
Y28326D01*
Y27681D02*
X75900Y27677D01*
X75755Y28467D02*
Y28516D01*
X76696Y27681D02*
Y28446D01*
X76406Y28736D02*
X76696Y28446D01*
X76960Y34253D02*
Y39920D01*
X79540Y42500D01*
X70200Y19417D02*
X70241D01*
X70423Y19600D02*
X71823D01*
X70241Y19417D02*
X70423Y19600D01*
X71823Y20400D02*
X73500D01*
X42164Y19185D02*
Y19695D01*
X43980Y23904D02*
X49395D01*
X40945D02*
X43734D01*
X43980D01*
X81500Y24474D02*
X81541D01*
X81615Y24400D01*
X83177D01*
X29445Y22206D02*
X30353Y23114D01*
X29445Y19695D02*
Y22206D01*
X27865Y23904D02*
X27875D01*
X28175Y19695D02*
Y23604D01*
X27875Y23904D02*
X28175Y23604D01*
X81596Y23596D02*
X83173D01*
X83177Y23600D01*
X81582Y23582D02*
X81596Y23596D01*
X26914Y19705D02*
Y22469D01*
X26905Y19695D02*
X26914Y19705D01*
Y22469D02*
X26924Y22479D01*
X24365Y19695D02*
Y21590D01*
X83177Y18000D02*
X85380D01*
X21834Y21580D02*
X21844Y21590D01*
X21825Y19695D02*
X21834Y19705D01*
Y21580D01*
X29301Y35814D02*
X36172D01*
X40408Y40050D02*
X42450D01*
X36172Y35814D02*
X40408Y40050D01*
X27865Y37250D02*
X29301Y35814D01*
X25815Y39300D02*
X27865Y37250D01*
X77750Y14700D02*
X78296Y15246D01*
Y16319D01*
X78300Y16323D01*
X77750Y13250D02*
Y14700D01*
X77500Y27677D02*
X77504Y27673D01*
Y26979D02*
Y27673D01*
X71827Y22004D02*
X72521D01*
X71823Y22000D02*
X71827Y22004D01*
X71819D02*
X71823Y22000D01*
X53083Y2457D02*
Y5464D01*
X52912Y5635D02*
X53083Y5464D01*
Y2457D02*
X53253Y2286D01*
X48514Y23023D02*
X49395Y23904D01*
X49695D01*
X48514Y19695D02*
Y23023D01*
X45974Y19695D02*
Y23344D01*
X40894Y19695D02*
Y23853D01*
X45974Y23344D02*
X46530Y23900D01*
X46830D01*
X43434Y19695D02*
Y23604D01*
X43734Y23904D01*
X29750D02*
X40945D01*
X40894Y23853D02*
X40945Y23904D01*
X3250Y19750D02*
X9500D01*
X3250D02*
Y23250D01*
Y19325D02*
Y19750D01*
X5500Y30500D02*
Y31975D01*
X3250Y28250D02*
X5500Y30500D01*
X109000Y24527D02*
X109099D01*
X110322Y25750D02*
X114580D01*
X109099Y24527D02*
X110322Y25750D01*
X105156Y26972D02*
X105184Y27001D01*
X93086Y28321D02*
X100074D01*
X100081Y28314D01*
X100316D01*
X93000Y24527D02*
X94880D01*
X93000Y28407D02*
X93086Y28321D01*
X97066Y32250D02*
X100350Y28965D01*
X100816D01*
X93000Y32250D02*
X97066D01*
X76960Y34250D02*
X76980Y34230D01*
X83890Y46850D02*
X91934D01*
X104184Y45000D02*
X104226Y44958D01*
X103884Y45300D02*
X104184Y45000D01*
X102652Y46850D02*
X103884Y45617D01*
Y45300D02*
Y45617D01*
X91934Y46850D02*
X102652D01*
X89584Y40250D02*
X90184Y40850D01*
X91934D01*
X89434Y40250D02*
X89584D01*
X91934Y40850D02*
Y44150D01*
X100707Y42752D02*
X100709Y42755D01*
X96503Y42752D02*
X100707D01*
X96500Y42750D02*
X96503Y42752D01*
X103194Y41485D02*
X105734Y38945D01*
X106159D01*
X100709Y41485D02*
X103194D01*
X100709D02*
Y42755D01*
X104226Y44958D02*
X105410D01*
X106159Y44209D01*
Y42755D02*
Y44209D01*
X108452Y36750D02*
X108752D01*
X107393Y37809D02*
X108452Y36750D01*
X107393Y37809D02*
Y39406D01*
X106584Y40215D02*
X107393Y39406D01*
X106159Y40215D02*
X106584D01*
X108752Y41485D02*
Y42468D01*
Y39450D02*
Y41485D01*
X106159D02*
X108752D01*
X109284Y43000D02*
X109434D01*
X108752Y42468D02*
X109284Y43000D01*
X108752Y39450D02*
X109052D01*
X109752Y38750D02*
X111684D01*
X109052Y39450D02*
X109752Y38750D01*
X111034Y36750D02*
X111534Y37250D01*
X111684D01*
X108752Y36750D02*
X111034D01*
X108752Y35100D02*
Y36750D01*
X105650Y28965D02*
X108152Y31468D01*
X108452Y32400D02*
X108752D01*
X105184Y28965D02*
X105650D01*
X108152Y31468D02*
Y32100D01*
X108452Y32400D01*
X105184Y28330D02*
Y28965D01*
Y27670D02*
Y28330D01*
Y27670D02*
X105202Y27652D01*
X106100D01*
X117550Y27750D02*
X118074Y27226D01*
Y27156D02*
X118120Y27110D01*
X118518D01*
X116250Y27750D02*
X117550D01*
X118074Y27156D02*
Y27226D01*
X118499Y25820D02*
X118518Y25840D01*
X116080Y25750D02*
X116150Y25820D01*
X118499D01*
X96920Y21900D02*
X99460D01*
X76696Y27681D02*
X76700Y27677D01*
X81563Y35401D02*
X83429D01*
X84580Y34250D01*
X79500Y39608D02*
X82040Y42148D01*
Y42500D01*
X79500Y39250D02*
Y39608D01*
X49695Y23904D02*
X54000D01*
X23095Y19695D02*
Y23900D01*
X20255Y23904D02*
X25500D01*
X96920Y17140D02*
Y21900D01*
X54500Y34250D02*
X54651Y34099D01*
X54500Y34250D02*
Y34296D01*
X61750Y23904D02*
X63250D01*
X9500Y19750D02*
X9892Y20142D01*
X22280Y49275D02*
Y51420D01*
X23030D02*
X23280Y51670D01*
X27875Y23904D02*
X29750D01*
X25635Y19695D02*
Y23769D01*
X25500Y23904D02*
X25635Y23769D01*
X20555Y19695D02*
Y23604D01*
X20255Y23904D02*
X20555Y23604D01*
X20103Y23904D02*
X20255D01*
X57000D02*
X61750D01*
X54000D02*
X57000D01*
X25500D02*
X27865D01*
X26585Y45000D02*
X29085Y42500D01*
X31350D02*
X32550Y41300D01*
Y40050D02*
Y41300D01*
X26435Y45000D02*
X26585D01*
X29085Y42500D02*
X31350D01*
X21500Y39300D02*
X25815D01*
X26385Y45050D02*
X26435Y45000D01*
X24540Y45075D02*
X24565Y45050D01*
X26385D01*
X25265Y46500D02*
X26435D01*
X24790Y46025D02*
X25265Y46500D01*
X24540Y46025D02*
X24790D01*
X21890Y44125D02*
Y45075D01*
X15250Y53500D02*
X20950D01*
X22700Y51750D01*
X15250Y48750D02*
Y53500D01*
X12500Y46000D02*
X15250Y48750D01*
X9250Y46000D02*
X12500D01*
X9250D02*
X9395Y46145D01*
Y49355D01*
X9540Y49500D01*
X4460D02*
X4605Y49355D01*
Y46145D02*
X4750Y46000D01*
X4605Y46145D02*
Y49355D01*
X4450Y45010D02*
Y45700D01*
X4440Y45000D02*
X4450Y45010D01*
X4440Y44500D02*
Y45000D01*
X4450Y45700D02*
X4750Y46000D01*
X4440Y44500D02*
X5500Y43440D01*
Y38025D02*
Y43440D01*
X7525Y38025D02*
X9250Y39750D01*
X5500Y38025D02*
X7525D01*
X5500Y31975D02*
X12475D01*
X15250Y34750D01*
D29*
X125531Y25726D02*
X125700Y25557D01*
Y24525D02*
Y25557D01*
X29365Y2413D02*
Y8385D01*
X26905Y10845D02*
Y13305D01*
Y10845D02*
X29365Y8385D01*
X26369Y5889D02*
Y9275D01*
X25635Y10009D02*
X26369Y9275D01*
X25635Y10009D02*
Y13305D01*
X125333Y25890D02*
X125497Y25726D01*
X124243Y25890D02*
X125333D01*
X8448Y10033D02*
X15828D01*
X6777Y8081D02*
X6977Y8281D01*
Y8562D01*
X8448Y10033D01*
X6477Y8081D02*
X6777D01*
X29495Y13090D02*
Y13255D01*
Y13090D02*
X30435D01*
X33492Y10033D02*
X41305D01*
X29445Y13305D02*
X29495Y13255D01*
X30435Y13090D02*
X33492Y10033D01*
X1549Y17401D02*
Y30049D01*
Y17401D02*
X3250Y15700D01*
Y7675D02*
Y15700D01*
X117583Y29020D02*
X118043Y28560D01*
X111750Y29020D02*
X117583D01*
X118043Y28530D02*
Y28560D01*
X126471Y3489D02*
Y3579D01*
X127087Y2413D02*
Y2873D01*
X101536Y9439D02*
X120611D01*
X126471Y3489D02*
X127087Y2873D01*
X120611Y9439D02*
X126471Y3579D01*
X114674Y5177D02*
X119046D01*
X111263Y8588D02*
X114674Y5177D01*
X49017Y15870D02*
X68605D01*
X48514Y15367D02*
X49017Y15870D01*
X68605D02*
X75204Y9271D01*
X85180Y22755D02*
X85380Y22555D01*
Y22500D02*
Y22555D01*
X83222Y22755D02*
X85180D01*
X121746Y4653D02*
X122087Y4312D01*
X121746Y4653D02*
Y4953D01*
X122087Y1651D02*
Y4312D01*
X98240Y10195D02*
X100698Y7737D01*
X99510Y10195D02*
X101117Y8588D01*
X100730Y10340D02*
Y10750D01*
X101199Y9776D02*
X101536Y9439D01*
X101199Y9776D02*
Y9871D01*
X100698Y7737D02*
X110911D01*
X101117Y8588D02*
X111263D01*
X100730Y10340D02*
X101199Y9871D01*
X110911Y7737D02*
X116731Y1917D01*
X99510Y10195D02*
Y10700D01*
X99460Y10750D02*
X99510Y10700D01*
X100307Y6858D02*
X102285D01*
X96970Y10195D02*
X100307Y6858D01*
X102285D02*
X103809Y5334D01*
X98190Y10750D02*
X98240Y10700D01*
Y10195D02*
Y10700D01*
X116731Y1603D02*
Y1917D01*
X96920Y10750D02*
X96970Y10700D01*
Y10195D02*
Y10700D01*
X103809Y5334D02*
X108505D01*
X101543Y5177D02*
X101700Y5334D01*
X101543Y1760D02*
Y5177D01*
X101386Y1603D02*
X101543Y1760D01*
X97141Y7493D02*
X99000Y5634D01*
Y5334D02*
Y5634D01*
X81094Y7493D02*
X97141D01*
X49814Y13335D02*
X58039D01*
X49784Y13305D02*
X49814Y13335D01*
X48514Y13305D02*
Y15367D01*
X79316Y9271D02*
X81094Y7493D01*
X75204Y9271D02*
X79316D01*
X75397Y7874D02*
X79219D01*
X83162Y3930D01*
Y2424D02*
X83300Y2286D01*
X83162Y2424D02*
Y3930D01*
X71498Y11773D02*
X75397Y7874D01*
X48271Y11773D02*
X71498D01*
X47294Y12750D02*
Y13255D01*
X47244Y13305D02*
X47294Y13255D01*
Y12750D02*
X48271Y11773D01*
X75150Y6342D02*
X75450D01*
X70570Y10922D02*
X75150Y6342D01*
X47852Y10922D02*
X70570D01*
X75450Y6342D02*
X75650Y6142D01*
Y5842D02*
Y6142D01*
X47433Y10071D02*
X63365D01*
X44754Y12750D02*
X47433Y10071D01*
X52896Y9220D02*
X56274Y5842D01*
X46406Y9220D02*
X52896D01*
X43434Y12192D02*
X46406Y9220D01*
X63365Y10071D02*
X68181Y5254D01*
X46024Y12750D02*
X47852Y10922D01*
X46024Y12750D02*
Y13255D01*
X45974Y13305D02*
X46024Y13255D01*
X78325Y2311D02*
Y5817D01*
X78350Y5842D01*
X78300Y2286D02*
X78325Y2311D01*
X44704Y13305D02*
X44754Y13255D01*
Y12750D02*
Y13255D01*
X68181Y4550D02*
Y5254D01*
Y4550D02*
X70445Y2286D01*
X43434Y12192D02*
Y13305D01*
X42214Y12120D02*
Y13255D01*
X42164Y13305D02*
X42214Y13255D01*
X43434Y13305D02*
X43434Y13305D01*
X42214Y12120D02*
X46530Y7804D01*
X52852D01*
X56274Y5842D02*
X62785D01*
X52852Y7804D02*
X58253Y2403D01*
X65445Y2286D02*
Y5842D01*
X58253Y2286D02*
Y2403D01*
X47324Y5635D02*
X50212D01*
X40944Y12015D02*
Y13255D01*
Y12015D02*
X47324Y5635D01*
X40894Y13305D02*
X40944Y13255D01*
X41305Y10033D02*
X47511Y3827D01*
Y2527D02*
X47752Y2286D01*
X47511Y2527D02*
Y3827D01*
X28175Y11703D02*
Y13305D01*
X31543Y8335D02*
X40005D01*
X28175Y11703D02*
X31543Y8335D01*
X40505Y4533D02*
Y5435D01*
X40005Y5635D02*
X40305D01*
X40505Y4533D02*
X42752Y2286D01*
X40305Y5635D02*
X40505Y5435D01*
X23669Y3569D02*
X24365Y2873D01*
Y2413D02*
Y2873D01*
X23669Y3569D02*
Y5889D01*
X18796Y2413D02*
X21500Y5117D01*
Y7804D02*
X24365Y10669D01*
X21500Y5117D02*
Y7804D01*
X24365Y10669D02*
Y13305D01*
X23045Y11958D02*
Y13255D01*
X18876Y7789D02*
X23045Y11958D01*
X18876Y5889D02*
Y7789D01*
X23045Y13255D02*
X23095Y13305D01*
X13796Y2413D02*
X15976Y4593D01*
Y5689D01*
X16176Y5889D01*
X11938Y8890D02*
X17915D01*
X8469Y5421D02*
X11938Y8890D01*
X8469Y2365D02*
Y5421D01*
X17915Y8890D02*
X21775Y12750D01*
X15828Y10033D02*
X19100Y13305D01*
X21775Y12750D02*
Y13255D01*
X21825Y13305D01*
X19100D02*
X20555D01*
X6177Y5381D02*
X6477D01*
X3469Y2365D02*
Y2673D01*
X6177Y5381D01*
X3000Y31500D02*
Y31975D01*
X1549Y30049D02*
X3000Y31500D01*
D30*
X20007Y23809D02*
X20103Y23904D01*
D31*
X111750Y27750D02*
D03*
D32*
Y29020D02*
D03*
D33*
X65445Y2413D02*
D03*
X70445D02*
D03*
X83300D02*
D03*
X78300D02*
D03*
X101319D02*
D03*
X106319D02*
D03*
X122087D02*
D03*
X127087D02*
D03*
X116731D02*
D03*
X111731D02*
D03*
X8469Y2365D02*
D03*
X3469D02*
D03*
X13796Y2413D02*
D03*
X18796D02*
D03*
X29365D02*
D03*
X24365D02*
D03*
X42775D02*
D03*
X47775D02*
D03*
X58253D02*
D03*
X53253D02*
D03*
X3300Y28200D02*
D03*
Y23200D02*
D03*
D34*
X92000Y14000D02*
D03*
X96500Y42750D02*
D03*
X15250Y34750D02*
D03*
X127250Y43000D02*
D03*
X15250Y53500D02*
D03*
X79500Y39250D02*
D03*
X54500Y34250D02*
D03*
X58500D02*
D03*
X63250D02*
D03*
X67750Y34250D02*
D03*
X98000Y35500D02*
D03*
X127750Y37250D02*
D03*
X109000Y24527D02*
D03*
X9250Y39750D02*
D03*
X15250Y19750D02*
D03*
X93000Y32250D02*
D03*
Y28407D02*
D03*
Y24527D02*
D03*
X10000Y19750D02*
D03*
X27865Y37250D02*
D03*
X48006Y34099D02*
D03*
D35*
X84540Y42500D02*
D03*
X82040D02*
D03*
D36*
X79540D02*
D03*
D37*
X86790Y50000D02*
D03*
X77290D02*
D03*
D38*
X3250Y7675D02*
D03*
X127987Y25514D02*
D03*
X76960Y34250D02*
D03*
X79500D02*
D03*
X82040D02*
D03*
X84580D02*
D03*
X87120D02*
D03*
D39*
X3250Y19325D02*
D03*
X127987Y28054D02*
D03*
D40*
X124750Y51750D02*
D03*
X122350Y49750D02*
D03*
X116850D02*
D03*
D41*
X74420Y34250D02*
D03*
D42*
X9540Y49500D02*
D03*
X4460D02*
D03*
D43*
X7000D02*
D03*
D44*
X116080Y14310D02*
D03*
Y42310D02*
D03*
X14580D02*
D03*
Y14310D02*
D03*
D45*
X18375Y51450D02*
D03*
X125700Y24525D02*
D03*
X65445Y23315D02*
D03*
X20675Y45075D02*
D03*
X56775Y46774D02*
D03*
X79883Y25590D02*
D03*
X58025Y46075D02*
D03*
X61850Y38850D02*
D03*
X55875Y40450D02*
D03*
X69977Y23315D02*
D03*
X98190Y20400D02*
D03*
X90170Y23876D02*
D03*
X89434Y18800D02*
D03*
X75057Y17780D02*
D03*
X61087Y21590D02*
D03*
X90170Y29210D02*
D03*
X79883Y31877D02*
D03*
X83693D02*
D03*
X73025D02*
D03*
X79883Y29718D02*
D03*
X81654Y26073D02*
D03*
X67750Y21705D02*
D03*
X64516Y23876D02*
D03*
X70200Y19417D02*
D03*
X57000Y29111D02*
D03*
X73500Y20400D02*
D03*
X81500Y24474D02*
D03*
X30353Y23114D02*
D03*
X81582Y23582D02*
D03*
X26924Y22479D02*
D03*
X24365Y21590D02*
D03*
X85380Y18000D02*
D03*
X21844Y21590D02*
D03*
X58039Y13335D02*
D03*
X22280Y49275D02*
D03*
%TF.MD5,f8bde4aa1737b320b66fae50cf1bdbcc*%
M02*
