M48
;Layer_Color=9474304
;FILE_FORMAT=4:3
METRIC,LZ
;TYPE=PLATED
T1F00S00C0.300
T2F00S00C0.600
T3F00S00C0.900
T4F00S00C1.000
T6F00S00C1.200
T8F00S00C1.600
T9F00S00C3.200
%
T01
X0021844Y002159
X0024365
X0026924Y0022479
X0030353Y0023114
X0061087Y002159
X0064516Y0023876
X0065445Y0023315
X0058039Y0013335
X006775Y0021705
X0069977Y0023315
X00702Y0019417
X00735Y00204
X0075057Y001778
X008538Y0018
X0089434Y00188
X009017Y0023876
X0081582Y0023582
X00815Y0024474
X0081654Y0026073
X0079883Y002559
X009819Y00204
X01257Y0024525
X009017Y002921
X0083693Y0031877
X0079883
Y0029718
X0073025Y0031877
X006185Y003885
X0055875Y004045
X0056775Y0046774
X0058025Y0046075
X0057Y0029111
X0020675Y0045075
X002228Y0049275
X0018375Y005145
T02
X011175Y002775
Y002902
T03
X000325Y0007675
Y0019325
X0127987Y0025514
Y0028054
X008712Y003425
X008458
X008204
X00795
X007696
X007442
T04
X000446Y00495
X0007
X000954
T06
X007954Y00425
X008204
X008454
T08
X0003469Y0002365
X0008469
X0013796Y0002413
X0018796
X0024365
X001525Y001975
X001
X00033Y00232
X0029365Y0002413
X0042775
X0047775
X0053253
X0058253
X0065445
X0070445
X00783
X00833
X0101319
X0106319
X0092Y0014
X0093Y0024527
X0109
X0111731Y0002413
X0116731
X0122087
X0127087
X012775Y003725
X012725Y0043
X00965Y004275
X0098Y00355
X0093Y003225
Y0028407
X00795Y003925
X006775Y003425
X006325Y003425
X00585
X00545
X0048006Y0034099
X0027865Y003725
X001525Y003475
X000925Y003975
X00033Y00282
X001525Y00535
T09
X001458Y001431
X011608
Y004231
X001458
M30
