%TF.GenerationSoftware,Altium Limited,Altium Designer,22.7.1 (60)*%
G04 Layer_Color=65535*
%FSLAX43Y43*%
%MOMM*%
%TF.SameCoordinates,1608F762-6F3A-48E5-B14A-7665CB884DB8*%
%TF.FilePolarity,Positive*%
%TF.FileFunction,Legend,Top*%
%TF.Part,Single*%
G01*
G75*
%TA.AperFunction,NonConductor*%
%ADD47C,0.254*%
%ADD48C,0.600*%
%ADD49C,0.250*%
%ADD50C,0.200*%
%ADD51C,0.000*%
%ADD52C,0.340*%
%ADD53C,0.152*%
%ADD54C,0.127*%
%ADD55C,0.100*%
%ADD56C,0.076*%
G36*
X70896Y20209D02*
X70642D01*
Y20590D01*
X70896D01*
Y20209D01*
D02*
G37*
G36*
X74910Y28604D02*
X75290D01*
Y28858D01*
X74910D01*
Y28604D01*
D02*
G37*
G36*
X78109Y15396D02*
X78491D01*
Y15142D01*
X78109D01*
Y15396D01*
D02*
G37*
G36*
X84104Y25010D02*
X84358D01*
Y25390D01*
X84104D01*
Y25010D01*
D02*
G37*
D47*
X1200Y54800D02*
X1300Y54900D01*
X12800Y47350D02*
Y54900D01*
X1200Y47350D02*
Y54800D01*
X12800Y47350D02*
Y54900D01*
X1200Y47350D02*
X12800D01*
X1200D02*
X12800D01*
X1200Y54800D02*
X1300Y54900D01*
X12800D01*
X1300D02*
X12800D01*
X1200Y47350D02*
Y54800D01*
D48*
X120843Y28075D02*
G03*
X120843Y28075I-300J0D01*
G01*
X103134Y42350D02*
G03*
X103134Y42350I-300J0D01*
G01*
D49*
X118543Y29330D02*
G03*
X118543Y29330I-125J0D01*
G01*
X130162Y28054D02*
G03*
X130162Y28054I-125J0D01*
G01*
X100834Y43605D02*
G03*
X100834Y43605I-125J0D01*
G01*
X2125Y31975D02*
G03*
X2125Y31975I-125J0D01*
G01*
X22015Y46850D02*
G03*
X22015Y46850I-125J0D01*
G01*
D50*
X93585Y14000D02*
G03*
X93585Y14000I-1585J0D01*
G01*
X98085Y42750D02*
G03*
X98085Y42750I-1585J0D01*
G01*
X77840Y42500D02*
G03*
X77840Y42500I-100J0D01*
G01*
X53575Y49875D02*
G03*
X53575Y49875I-100J0D01*
G01*
X52449Y54386D02*
G03*
X62901Y54386I5226J9052D01*
G01*
X40394Y11685D02*
G03*
X40394Y11685I-100J0D01*
G01*
X96420Y9130D02*
G03*
X96420Y9130I-100J0D01*
G01*
X16835Y34750D02*
G03*
X16835Y34750I-1585J0D01*
G01*
X128835Y43000D02*
G03*
X128835Y43000I-1585J0D01*
G01*
X23600Y40550D02*
G03*
X23600Y40550I-100J0D01*
G01*
X16835Y53500D02*
G03*
X16835Y53500I-1585J0D01*
G01*
X81085Y39250D02*
G03*
X81085Y39250I-1585J0D01*
G01*
X22130Y53670D02*
G03*
X22130Y53670I-100J0D01*
G01*
X56085Y34250D02*
G03*
X56085Y34250I-1585J0D01*
G01*
X60085D02*
G03*
X60085Y34250I-1585J0D01*
G01*
X64835D02*
G03*
X64835Y34250I-1585J0D01*
G01*
X69335Y34250D02*
G03*
X69335Y34250I-1585J0D01*
G01*
X99585Y35500D02*
G03*
X99585Y35500I-1585J0D01*
G01*
X129335Y37250D02*
G03*
X129335Y37250I-1585J0D01*
G01*
X110585Y24527D02*
G03*
X110585Y24527I-1585J0D01*
G01*
X10835Y39750D02*
G03*
X10835Y39750I-1585J0D01*
G01*
X16835Y19750D02*
G03*
X16835Y19750I-1585J0D01*
G01*
X94585Y32250D02*
G03*
X94585Y32250I-1585J0D01*
G01*
Y28407D02*
G03*
X94585Y28407I-1585J0D01*
G01*
Y24527D02*
G03*
X94585Y24527I-1585J0D01*
G01*
X11585Y19750D02*
G03*
X11585Y19750I-1585J0D01*
G01*
X29450Y37250D02*
G03*
X29450Y37250I-1585J0D01*
G01*
X20055Y11685D02*
G03*
X20055Y11685I-100J0D01*
G01*
X49591Y34099D02*
G03*
X49591Y34099I-1585J0D01*
G01*
X110850Y26850D02*
X112650D01*
Y29920D01*
X110850D02*
X112650D01*
X110850Y26850D02*
Y29920D01*
X119543Y24075D02*
X122743D01*
X119543Y29075D02*
X122743D01*
Y24075D02*
Y29075D01*
X119543Y24075D02*
Y29075D01*
X50875Y53450D02*
Y54400D01*
X64475Y39950D02*
Y42450D01*
X62925Y54400D02*
X64475D01*
Y53450D02*
Y54400D01*
X50875Y39950D02*
X64475D01*
X50875Y54400D02*
X52425D01*
X50875Y39950D02*
Y42450D01*
X97670Y22850D02*
Y23650D01*
X96170Y22850D02*
Y23650D01*
X100210Y22850D02*
Y23650D01*
X98710Y22850D02*
Y23650D01*
X120000Y6275D02*
X120800D01*
X120000Y4775D02*
X120800D01*
X109455Y6084D02*
X110255D01*
X109455Y4584D02*
X110255D01*
X1850Y10850D02*
Y16150D01*
X4650Y10850D02*
Y16150D01*
X1850D02*
X4650D01*
X1850Y10850D02*
X4650D01*
X126587Y24114D02*
Y29454D01*
X129387Y24114D02*
Y29454D01*
X126587Y24114D02*
X129387D01*
X126587Y29454D02*
X129387D01*
X88390Y32980D02*
Y35520D01*
X73150Y32980D02*
Y35520D01*
X88390D01*
X73150Y32980D02*
X88390D01*
X92684Y39100D02*
Y39900D01*
X91184Y39100D02*
Y39900D01*
X101834Y38350D02*
X105034D01*
X101834Y43350D02*
X105034D01*
Y38350D02*
Y43350D01*
X101834Y38350D02*
Y43350D01*
X1800Y32900D02*
Y37100D01*
X6700Y32900D02*
Y37100D01*
X3750Y32900D02*
X4750D01*
X3750Y37100D02*
X4750D01*
X22815Y46525D02*
X23615D01*
X22815Y43625D02*
X23615D01*
X22815D02*
Y46525D01*
X23615Y43625D02*
Y46525D01*
X108002Y33350D02*
Y34150D01*
X109502Y33350D02*
Y34150D01*
X51162Y4885D02*
X51962D01*
X51162Y6385D02*
X51962D01*
X63735Y5092D02*
X64535D01*
X63735Y6592D02*
X64535D01*
X76600Y5092D02*
X77400D01*
X76600Y6592D02*
X77400D01*
X48945Y24854D02*
Y25654D01*
X50445Y24854D02*
Y25654D01*
X46080Y24850D02*
Y25650D01*
X47580Y24850D02*
Y25650D01*
X108002Y37700D02*
Y38500D01*
X109502Y37700D02*
Y38500D01*
X91184Y45100D02*
Y45900D01*
X92684Y45100D02*
Y45900D01*
X57750Y24854D02*
Y25654D01*
X56250Y24854D02*
Y25654D01*
X54750Y24854D02*
Y25654D01*
X53250Y24854D02*
Y25654D01*
X19353Y24854D02*
Y25654D01*
X20853Y24854D02*
Y25654D01*
X22345Y24850D02*
Y25650D01*
X23845Y24850D02*
Y25650D01*
X43230Y24854D02*
Y25654D01*
X44730Y24854D02*
Y25654D01*
X40195Y24854D02*
Y25654D01*
X41695Y24854D02*
Y25654D01*
X27115Y24854D02*
Y25654D01*
X28615Y24854D02*
Y25654D01*
X24750Y24854D02*
Y25654D01*
X26250Y24854D02*
Y25654D01*
X99950Y4584D02*
X100750D01*
X99950Y6084D02*
X100750D01*
X5727Y6331D02*
Y7131D01*
X7227Y6331D02*
Y7131D01*
X17126Y6639D02*
X17926D01*
X17126Y5139D02*
X17926D01*
X24619Y6639D02*
X25419D01*
X24619Y5139D02*
X25419D01*
X39255Y6585D02*
Y7385D01*
X40755Y6585D02*
Y7385D01*
D51*
X103305Y26400D02*
G03*
X102695Y26400I-305J0D01*
G01*
D52*
X124920Y46950D02*
G03*
X124920Y46950I-170J0D01*
G01*
D53*
X82087Y16869D02*
X82631D01*
X82087Y27131D02*
X82631D01*
X72369Y26587D02*
Y27131D01*
Y16869D02*
X72913D01*
X82631D02*
Y17413D01*
Y26587D02*
Y27131D01*
X72369D02*
X72913D01*
X72369Y16869D02*
Y17413D01*
X101400Y29600D02*
X104600D01*
X101400Y26400D02*
X102695D01*
X103305D01*
X104600D01*
D54*
X62945Y413D02*
Y4413D01*
X72945D01*
Y413D02*
Y4413D01*
X62945Y413D02*
X72945D01*
X75800D02*
X85800D01*
Y4413D01*
X75800D02*
X85800D01*
X75800Y413D02*
Y4413D01*
X98819Y413D02*
Y4413D01*
X108819D01*
Y413D02*
Y4413D01*
X98819Y413D02*
X108819D01*
X119587D02*
Y4413D01*
X129587D01*
Y413D02*
Y4413D01*
X119587Y413D02*
X129587D01*
X109231D02*
X119231D01*
Y4413D01*
X109231D02*
X119231D01*
X109231Y413D02*
Y4413D01*
X75990Y51400D02*
Y54850D01*
Y43500D02*
Y48600D01*
Y43500D02*
X78290D01*
X85790D02*
X88090D01*
Y48600D01*
Y51400D02*
Y54850D01*
X75990D02*
X88090D01*
X969Y365D02*
X10969D01*
Y4365D01*
X969D02*
X10969D01*
X969Y365D02*
Y4365D01*
X11296Y413D02*
Y4413D01*
X21296D01*
Y413D02*
Y4413D01*
X11296Y413D02*
X21296D01*
X21865D02*
X31865D01*
Y4413D01*
X21865D02*
X31865D01*
X21865Y413D02*
Y4413D01*
X40275Y413D02*
Y4413D01*
X50275D01*
Y413D02*
Y4413D01*
X40275Y413D02*
X50275D01*
X50753D02*
X60753D01*
Y4413D01*
X50753D02*
X60753D01*
X50753Y413D02*
Y4413D01*
X1300Y20700D02*
Y30700D01*
X5300D01*
Y20700D02*
Y30700D01*
X1300Y20700D02*
X5300D01*
X40039Y14300D02*
Y18700D01*
X50639Y14300D02*
Y18700D01*
X96065Y11745D02*
Y16145D01*
X106665Y11745D02*
Y16145D01*
X111950Y47550D02*
X125950D01*
X111950D02*
Y55750D01*
X125950D01*
Y53850D02*
Y55750D01*
Y53850D02*
X129950D01*
Y47850D02*
Y53850D01*
X125950Y47850D02*
X129950D01*
X125950Y47550D02*
Y47850D01*
X17350Y38400D02*
X18850Y39900D01*
X17350Y31600D02*
Y38400D01*
X25650Y31600D02*
Y38400D01*
X24150Y39900D02*
X25650Y38400D01*
X22820Y39900D02*
X24150D01*
X18850D02*
X20180D01*
X22820Y31600D02*
X25650D01*
X17350D02*
X20180D01*
X30980Y47520D02*
Y50350D01*
Y52990D02*
Y55820D01*
X22680Y49020D02*
Y50350D01*
Y52990D02*
Y54320D01*
X24180Y55820D01*
X30980D01*
X24180Y47520D02*
X30980D01*
X22680Y49020D02*
X24180Y47520D01*
X30300Y14300D02*
Y18700D01*
X19700Y14300D02*
Y18700D01*
D55*
X31500Y43050D02*
Y46050D01*
X43500D01*
Y43050D02*
Y46050D01*
Y34050D02*
Y37050D01*
X31500Y34050D02*
X43500D01*
X31500D02*
Y37050D01*
X70567Y30350D02*
Y29517D01*
X70734Y29350D01*
X71067D01*
X71233Y29517D01*
Y30350D01*
X72066Y29350D02*
Y30350D01*
X71567Y29850D01*
X72233D01*
X110200Y30825D02*
Y31825D01*
X110700D01*
X110867Y31658D01*
Y31325D01*
X110700Y31158D01*
X110200D01*
X111200Y30825D02*
X111533D01*
X111367D01*
Y31825D01*
X111200Y31658D01*
X112700Y30825D02*
X112033D01*
X112700Y31492D01*
Y31658D01*
X112533Y31825D01*
X112200D01*
X112033Y31658D01*
X119900Y30800D02*
Y29967D01*
X120067Y29800D01*
X120400D01*
X120567Y29967D01*
Y30800D01*
X120900Y29800D02*
X121233D01*
X121067D01*
Y30800D01*
X120900Y30633D01*
X121733D02*
X121900Y30800D01*
X122233D01*
X122400Y30633D01*
Y29967D01*
X122233Y29800D01*
X121900D01*
X121733Y29967D01*
Y30633D01*
X77090Y11831D02*
X76924Y11998D01*
X76591D01*
X76424Y11831D01*
Y11165D01*
X76591Y10998D01*
X76924D01*
X77090Y11165D01*
X77424Y10998D02*
X77757D01*
X77590D01*
Y11998D01*
X77424Y11831D01*
X67583Y18541D02*
X67417Y18708D01*
X67084D01*
X66917Y18541D01*
Y17875D01*
X67084Y17708D01*
X67417D01*
X67583Y17875D01*
X67917Y18541D02*
X68083Y18708D01*
X68416D01*
X68583Y18541D01*
Y18375D01*
X68416Y18208D01*
X68250D01*
X68416D01*
X68583Y18041D01*
Y17875D01*
X68416Y17708D01*
X68083D01*
X67917Y17875D01*
X67348Y5317D02*
Y6317D01*
X67848D01*
X68015Y6150D01*
Y5817D01*
X67848Y5650D01*
X67348D01*
X69014Y6317D02*
X68681Y6150D01*
X68348Y5817D01*
Y5484D01*
X68514Y5317D01*
X68848D01*
X69014Y5484D01*
Y5650D01*
X68848Y5817D01*
X68348D01*
X80708Y4755D02*
Y5754D01*
X81207D01*
X81374Y5588D01*
Y5254D01*
X81207Y5088D01*
X80708D01*
X81707Y5754D02*
X82374D01*
Y5588D01*
X81707Y4921D01*
Y4755D01*
X103932Y5134D02*
Y6134D01*
X104432D01*
X104598Y5967D01*
Y5634D01*
X104432Y5467D01*
X103932D01*
X104932Y5967D02*
X105098Y6134D01*
X105431D01*
X105598Y5967D01*
Y5801D01*
X105431Y5634D01*
X105598Y5467D01*
Y5301D01*
X105431Y5134D01*
X105098D01*
X104932Y5301D01*
Y5467D01*
X105098Y5634D01*
X104932Y5801D01*
Y5967D01*
X105098Y5634D02*
X105431D01*
X124414Y5025D02*
Y6025D01*
X124913D01*
X125080Y5858D01*
Y5525D01*
X124913Y5358D01*
X124414D01*
X125413Y5025D02*
X125747D01*
X125580D01*
Y6025D01*
X125413Y5858D01*
X126246Y5025D02*
X126580D01*
X126413D01*
Y6025D01*
X126246Y5858D01*
X113425Y5345D02*
Y6345D01*
X113924D01*
X114091Y6178D01*
Y5845D01*
X113924Y5678D01*
X113425D01*
X114424Y5345D02*
X114758D01*
X114591D01*
Y6345D01*
X114424Y6178D01*
X115257D02*
X115424Y6345D01*
X115757D01*
X115924Y6178D01*
Y5512D01*
X115757Y5345D01*
X115424D01*
X115257Y5512D01*
Y6178D01*
X90767Y17231D02*
X91434D01*
X91100D01*
Y16232D01*
X91767D02*
Y17231D01*
X92267D01*
X92433Y17065D01*
Y16731D01*
X92267Y16565D01*
X91767D01*
X93266Y16232D02*
Y17231D01*
X92766Y16731D01*
X93433D01*
X110592Y43608D02*
X110425Y43442D01*
Y43109D01*
X110592Y42942D01*
X111258D01*
X111425Y43109D01*
Y43442D01*
X111258Y43608D01*
X110592Y43942D02*
X110425Y44108D01*
Y44441D01*
X110592Y44608D01*
X110758D01*
X110925Y44441D01*
X111092Y44608D01*
X111258D01*
X111425Y44441D01*
Y44108D01*
X111258Y43942D01*
X111092D01*
X110925Y44108D01*
X110758Y43942D01*
X110592D01*
X110925Y44108D02*
Y44441D01*
X94359Y46050D02*
Y45383D01*
X94692Y45050D01*
X95025Y45383D01*
Y46050D01*
X95359Y45050D02*
Y46050D01*
X95859D01*
X96025Y45883D01*
Y45550D01*
X95859Y45383D01*
X95359D01*
X95692D02*
X96025Y45050D01*
X97025Y46050D02*
X96358D01*
Y45050D01*
X97025D01*
X96358Y45550D02*
X96692D01*
X98025Y46050D02*
X97358D01*
Y45550D01*
X97691D01*
X97358D01*
Y45050D01*
X98358D02*
X98691D01*
X98524D01*
Y46050D01*
X98358Y45883D01*
X71592Y52650D02*
Y53650D01*
X72092D01*
X72259Y53483D01*
Y53150D01*
X72092Y52983D01*
X71592D01*
X71925D02*
X72259Y52650D01*
X73258D02*
X72592D01*
X73258Y53317D01*
Y53483D01*
X73092Y53650D01*
X72758D01*
X72592Y53483D01*
X74258Y53650D02*
X73591D01*
Y53150D01*
X73925Y53317D01*
X74091D01*
X74258Y53150D01*
Y52817D01*
X74091Y52650D01*
X73758D01*
X73591Y52817D01*
X49100Y54675D02*
X48767D01*
X48933D01*
Y53842D01*
X48767Y53675D01*
X48600D01*
X48434Y53842D01*
X49433Y53675D02*
X49766D01*
X49600D01*
Y54675D01*
X49433Y54508D01*
X5675Y27350D02*
Y28350D01*
X6175D01*
X6342Y28183D01*
Y27850D01*
X6175Y27683D01*
X5675D01*
X6675Y27350D02*
X7008D01*
X6842D01*
Y28350D01*
X6675Y28183D01*
X7508D02*
X7675Y28350D01*
X8008D01*
X8175Y28183D01*
Y28017D01*
X8008Y27850D01*
X7841D01*
X8008D01*
X8175Y27683D01*
Y27517D01*
X8008Y27350D01*
X7675D01*
X7508Y27517D01*
X125117Y28983D02*
X124950Y28817D01*
Y28484D01*
X125117Y28317D01*
X125783D01*
X125950Y28484D01*
Y28817D01*
X125783Y28983D01*
X125950Y29317D02*
Y29650D01*
Y29483D01*
X124950D01*
X125117Y29317D01*
X125950Y30150D02*
Y30483D01*
Y30316D01*
X124950D01*
X125117Y30150D01*
X55381Y4843D02*
Y5843D01*
X55881D01*
X56048Y5676D01*
Y5343D01*
X55881Y5176D01*
X55381D01*
X57048Y5843D02*
X56381D01*
Y5343D01*
X56714Y5510D01*
X56881D01*
X57048Y5343D01*
Y5010D01*
X56881Y4843D01*
X56548D01*
X56381Y5010D01*
X37442Y17225D02*
Y16392D01*
X37609Y16225D01*
X37942D01*
X38108Y16392D01*
Y17225D01*
X39108Y16225D02*
X38442D01*
X39108Y16892D01*
Y17058D01*
X38941Y17225D01*
X38608D01*
X38442Y17058D01*
X86008Y21183D02*
X85842Y21350D01*
X85509D01*
X85342Y21183D01*
Y20517D01*
X85509Y20350D01*
X85842D01*
X86008Y20517D01*
X87008Y21350D02*
X86342D01*
Y20850D01*
X86675Y21017D01*
X86841D01*
X87008Y20850D01*
Y20517D01*
X86841Y20350D01*
X86508D01*
X86342Y20517D01*
X95642Y25400D02*
Y26400D01*
X96142D01*
X96309Y26233D01*
Y25900D01*
X96142Y25733D01*
X95642D01*
X95975D02*
X96309Y25400D01*
X97308D02*
X96642D01*
X97308Y26067D01*
Y26233D01*
X97142Y26400D01*
X96808D01*
X96642Y26233D01*
X98308Y25400D02*
X97641D01*
X98308Y26067D01*
Y26233D01*
X98141Y26400D01*
X97808D01*
X97641Y26233D01*
X101862Y23705D02*
Y24704D01*
X102361D01*
X102528Y24538D01*
Y24204D01*
X102361Y24038D01*
X101862D01*
X102195D02*
X102528Y23705D01*
X103528D02*
X102861D01*
X103528Y24371D01*
Y24538D01*
X103361Y24704D01*
X103028D01*
X102861Y24538D01*
X104361Y23705D02*
Y24704D01*
X103861Y24204D01*
X104527D01*
X107492Y15925D02*
Y15092D01*
X107659Y14925D01*
X107992D01*
X108158Y15092D01*
Y15925D01*
X108492Y15758D02*
X108658Y15925D01*
X108991D01*
X109158Y15758D01*
Y15592D01*
X108991Y15425D01*
X108825D01*
X108991D01*
X109158Y15258D01*
Y15092D01*
X108991Y14925D01*
X108658D01*
X108492Y15092D01*
X17617Y54050D02*
X18284D01*
X17950D01*
Y53050D01*
X18617D02*
Y54050D01*
X19117D01*
X19283Y53883D01*
Y53550D01*
X19117Y53383D01*
X18617D01*
X20283Y53050D02*
X19617D01*
X20283Y53717D01*
Y53883D01*
X20116Y54050D01*
X19783D01*
X19617Y53883D01*
X20616D02*
X20783Y54050D01*
X21116D01*
X21283Y53883D01*
Y53217D01*
X21116Y53050D01*
X20783D01*
X20616Y53217D01*
Y53883D01*
X27142Y31908D02*
X26975Y32075D01*
X26642D01*
X26475Y31908D01*
Y31242D01*
X26642Y31075D01*
X26975D01*
X27142Y31242D01*
X27475Y31075D02*
X27808D01*
X27642D01*
Y32075D01*
X27475Y31908D01*
X28308D02*
X28475Y32075D01*
X28808D01*
X28975Y31908D01*
Y31742D01*
X28808Y31575D01*
X28975Y31408D01*
Y31242D01*
X28808Y31075D01*
X28475D01*
X28308Y31242D01*
Y31408D01*
X28475Y31575D01*
X28308Y31742D01*
Y31908D01*
X28475Y31575D02*
X28808D01*
X33159Y48669D02*
X32992Y48836D01*
X32659D01*
X32492Y48669D01*
Y48003D01*
X32659Y47836D01*
X32992D01*
X33159Y48003D01*
X33492Y47836D02*
X33825D01*
X33659D01*
Y48836D01*
X33492Y48669D01*
X34325Y48836D02*
X34991D01*
Y48669D01*
X34325Y48003D01*
Y47836D01*
X43009Y47925D02*
Y46925D01*
X43675D01*
X44008D02*
X44341D01*
X44175D01*
Y47925D01*
X44008Y47758D01*
X17509Y17901D02*
Y17068D01*
X17675Y16901D01*
X18008D01*
X18175Y17068D01*
Y17901D01*
X18508Y16901D02*
X18841D01*
X18675D01*
Y17901D01*
X18508Y17734D01*
X18342Y45800D02*
Y44967D01*
X18509Y44800D01*
X18842D01*
X19008Y44967D01*
Y45800D01*
X19342Y44967D02*
X19508Y44800D01*
X19841D01*
X20008Y44967D01*
Y45633D01*
X19841Y45800D01*
X19508D01*
X19342Y45633D01*
Y45467D01*
X19508Y45300D01*
X20008D01*
X10917Y46525D02*
Y45692D01*
X11084Y45525D01*
X11417D01*
X11583Y45692D01*
Y46525D01*
X11917Y46358D02*
X12083Y46525D01*
X12416D01*
X12583Y46358D01*
Y46192D01*
X12416Y46025D01*
X12583Y45858D01*
Y45692D01*
X12416Y45525D01*
X12083D01*
X11917Y45692D01*
Y45858D01*
X12083Y46025D01*
X11917Y46192D01*
Y46358D01*
X12083Y46025D02*
X12416D01*
X7342Y34675D02*
Y33842D01*
X7509Y33675D01*
X7842D01*
X8008Y33842D01*
Y34675D01*
X8342D02*
X9008D01*
Y34508D01*
X8342Y33842D01*
Y33675D01*
X102049Y31245D02*
Y30411D01*
X102216Y30245D01*
X102549D01*
X102715Y30411D01*
Y31245D01*
X103715D02*
X103382Y31078D01*
X103049Y30745D01*
Y30411D01*
X103215Y30245D01*
X103549D01*
X103715Y30411D01*
Y30578D01*
X103549Y30745D01*
X103049D01*
X102642Y38025D02*
Y37192D01*
X102809Y37025D01*
X103142D01*
X103308Y37192D01*
Y38025D01*
X104308D02*
X103642D01*
Y37525D01*
X103975Y37692D01*
X104141D01*
X104308Y37525D01*
Y37192D01*
X104141Y37025D01*
X103808D01*
X103642Y37192D01*
X122092Y43550D02*
X122759D01*
X122425D01*
Y42550D01*
X123092D02*
Y43550D01*
X123592D01*
X123758Y43383D01*
Y43050D01*
X123592Y42883D01*
X123092D01*
X124091Y42717D02*
X124258Y42550D01*
X124591D01*
X124758Y42717D01*
Y43383D01*
X124591Y43550D01*
X124258D01*
X124091Y43383D01*
Y43217D01*
X124258Y43050D01*
X124758D01*
X26116Y34599D02*
X26782D01*
X26449D01*
Y33599D01*
X27115D02*
Y34599D01*
X27615D01*
X27782Y34432D01*
Y34099D01*
X27615Y33932D01*
X27115D01*
X28115Y33599D02*
X28448D01*
X28282D01*
Y34599D01*
X28115Y34432D01*
X28948Y33766D02*
X29115Y33599D01*
X29448D01*
X29614Y33766D01*
Y34432D01*
X29448Y34599D01*
X29115D01*
X28948Y34432D01*
Y34266D01*
X29115Y34099D01*
X29614D01*
X13426Y38300D02*
X14092D01*
X13759D01*
Y37300D01*
X14425D02*
Y38300D01*
X14925D01*
X15092Y38133D01*
Y37800D01*
X14925Y37633D01*
X14425D01*
X15425Y37300D02*
X15758D01*
X15592D01*
Y38300D01*
X15425Y38133D01*
X16258D02*
X16425Y38300D01*
X16758D01*
X16924Y38133D01*
Y37967D01*
X16758Y37800D01*
X16924Y37633D01*
Y37467D01*
X16758Y37300D01*
X16425D01*
X16258Y37467D01*
Y37633D01*
X16425Y37800D01*
X16258Y37967D01*
Y38133D01*
X16425Y37800D02*
X16758D01*
X7626Y37250D02*
X8292D01*
X7959D01*
Y36250D01*
X8625D02*
Y37250D01*
X9125D01*
X9292Y37083D01*
Y36750D01*
X9125Y36583D01*
X8625D01*
X9625Y36250D02*
X9958D01*
X9792D01*
Y37250D01*
X9625Y37083D01*
X10458Y37250D02*
X11124D01*
Y37083D01*
X10458Y36417D01*
Y36250D01*
X8251Y22979D02*
X8917D01*
X8584D01*
Y21979D01*
X9250D02*
Y22979D01*
X9750D01*
X9917Y22812D01*
Y22479D01*
X9750Y22312D01*
X9250D01*
X10250Y21979D02*
X10583D01*
X10417D01*
Y22979D01*
X10250Y22812D01*
X11749Y22979D02*
X11416Y22812D01*
X11083Y22479D01*
Y22146D01*
X11250Y21979D01*
X11583D01*
X11749Y22146D01*
Y22312D01*
X11583Y22479D01*
X11083D01*
X95226Y32700D02*
X95892D01*
X95559D01*
Y31700D01*
X96225D02*
Y32700D01*
X96725D01*
X96892Y32533D01*
Y32200D01*
X96725Y32033D01*
X96225D01*
X97225Y31700D02*
X97558D01*
X97392D01*
Y32700D01*
X97225Y32533D01*
X98724Y32700D02*
X98058D01*
Y32200D01*
X98391Y32367D01*
X98558D01*
X98724Y32200D01*
Y31867D01*
X98558Y31700D01*
X98225D01*
X98058Y31867D01*
X95351Y28875D02*
X96017D01*
X95684D01*
Y27875D01*
X96350D02*
Y28875D01*
X96850D01*
X97017Y28708D01*
Y28375D01*
X96850Y28208D01*
X96350D01*
X97350Y27875D02*
X97683D01*
X97517D01*
Y28875D01*
X97350Y28708D01*
X98683Y27875D02*
Y28875D01*
X98183Y28375D01*
X98849D01*
X91251Y22205D02*
X91917D01*
X91584D01*
Y21205D01*
X92250D02*
Y22205D01*
X92750D01*
X92917Y22038D01*
Y21705D01*
X92750Y21538D01*
X92250D01*
X93250Y21205D02*
X93583D01*
X93417D01*
Y22205D01*
X93250Y22038D01*
X94083D02*
X94250Y22205D01*
X94583D01*
X94749Y22038D01*
Y21872D01*
X94583Y21705D01*
X94416D01*
X94583D01*
X94749Y21538D01*
Y21372D01*
X94583Y21205D01*
X94250D01*
X94083Y21372D01*
X107151Y22075D02*
X107817D01*
X107484D01*
Y21075D01*
X108150D02*
Y22075D01*
X108650D01*
X108817Y21908D01*
Y21575D01*
X108650Y21408D01*
X108150D01*
X109150Y21075D02*
X109483D01*
X109317D01*
Y22075D01*
X109150Y21908D01*
X110649Y21075D02*
X109983D01*
X110649Y21742D01*
Y21908D01*
X110483Y22075D01*
X110150D01*
X109983Y21908D01*
X81767Y39700D02*
X82434D01*
X82100D01*
Y38700D01*
X82767D02*
Y39700D01*
X83267D01*
X83433Y39533D01*
Y39200D01*
X83267Y39033D01*
X82767D01*
X83767Y38700D02*
X84100D01*
X83933D01*
Y39700D01*
X83767Y39533D01*
X84600Y38700D02*
X84933D01*
X84766D01*
Y39700D01*
X84600Y39533D01*
X121876Y37825D02*
X122542D01*
X122209D01*
Y36825D01*
X122875D02*
Y37825D01*
X123375D01*
X123542Y37658D01*
Y37325D01*
X123375Y37158D01*
X122875D01*
X123875Y36825D02*
X124208D01*
X124042D01*
Y37825D01*
X123875Y37658D01*
X124708D02*
X124875Y37825D01*
X125208D01*
X125374Y37658D01*
Y36992D01*
X125208Y36825D01*
X124875D01*
X124708Y36992D01*
Y37658D01*
X62017Y37550D02*
X62684D01*
X62350D01*
Y36550D01*
X63017D02*
Y37550D01*
X63517D01*
X63683Y37383D01*
Y37050D01*
X63517Y36883D01*
X63017D01*
X64016Y37383D02*
X64183Y37550D01*
X64516D01*
X64683Y37383D01*
Y37217D01*
X64516Y37050D01*
X64683Y36883D01*
Y36717D01*
X64516Y36550D01*
X64183D01*
X64016Y36717D01*
Y36883D01*
X64183Y37050D01*
X64016Y37217D01*
Y37383D01*
X64183Y37050D02*
X64516D01*
X66417Y31650D02*
X67084D01*
X66750D01*
Y30650D01*
X67417D02*
Y31650D01*
X67917D01*
X68083Y31483D01*
Y31150D01*
X67917Y30983D01*
X67417D01*
X68416Y31650D02*
X69083D01*
Y31483D01*
X68416Y30817D01*
Y30650D01*
X53167Y37525D02*
X53834D01*
X53500D01*
Y36525D01*
X54167D02*
Y37525D01*
X54667D01*
X54833Y37358D01*
Y37025D01*
X54667Y36858D01*
X54167D01*
X55833Y37525D02*
X55500Y37358D01*
X55166Y37025D01*
Y36692D01*
X55333Y36525D01*
X55666D01*
X55833Y36692D01*
Y36858D01*
X55666Y37025D01*
X55166D01*
X57117Y31750D02*
X57784D01*
X57450D01*
Y30750D01*
X58117D02*
Y31750D01*
X58617D01*
X58783Y31583D01*
Y31250D01*
X58617Y31083D01*
X58117D01*
X59783Y31750D02*
X59116D01*
Y31250D01*
X59450Y31417D01*
X59616D01*
X59783Y31250D01*
Y30917D01*
X59616Y30750D01*
X59283D01*
X59116Y30917D01*
X96492Y38800D02*
X97159D01*
X96825D01*
Y37800D01*
X97492D02*
Y38800D01*
X97992D01*
X98158Y38633D01*
Y38300D01*
X97992Y38133D01*
X97492D01*
X98491Y38633D02*
X98658Y38800D01*
X98991D01*
X99158Y38633D01*
Y38467D01*
X98991Y38300D01*
X98825D01*
X98991D01*
X99158Y38133D01*
Y37967D01*
X98991Y37800D01*
X98658D01*
X98491Y37967D01*
X13917Y22979D02*
X14584D01*
X14250D01*
Y21979D01*
X14917D02*
Y22979D01*
X15417D01*
X15583Y22812D01*
Y22479D01*
X15417Y22312D01*
X14917D01*
X16583Y21979D02*
X15916D01*
X16583Y22646D01*
Y22812D01*
X16416Y22979D01*
X16083D01*
X15916Y22812D01*
X46840Y37750D02*
X47506D01*
X47173D01*
Y36750D01*
X47839D02*
Y37750D01*
X48339D01*
X48506Y37583D01*
Y37250D01*
X48339Y37083D01*
X47839D01*
X48839Y36750D02*
X49172D01*
X49006D01*
Y37750D01*
X48839Y37583D01*
X94300Y38042D02*
X93300D01*
Y38542D01*
X93467Y38709D01*
X93800D01*
X93967Y38542D01*
Y38042D01*
Y38375D02*
X94300Y38709D01*
Y39708D02*
Y39042D01*
X93633Y39708D01*
X93467D01*
X93300Y39542D01*
Y39208D01*
X93467Y39042D01*
X94133Y40041D02*
X94300Y40208D01*
Y40541D01*
X94133Y40708D01*
X93467D01*
X93300Y40541D01*
Y40208D01*
X93467Y40041D01*
X93633D01*
X93800Y40208D01*
Y40708D01*
X110900Y32467D02*
X109900D01*
Y32967D01*
X110067Y33134D01*
X110400D01*
X110567Y32967D01*
Y32467D01*
Y32800D02*
X110900Y33134D01*
Y34133D02*
Y33467D01*
X110233Y34133D01*
X110067D01*
X109900Y33967D01*
Y33633D01*
X110067Y33467D01*
Y34466D02*
X109900Y34633D01*
Y34966D01*
X110067Y35133D01*
X110233D01*
X110400Y34966D01*
X110567Y35133D01*
X110733D01*
X110900Y34966D01*
Y34633D01*
X110733Y34466D01*
X110567D01*
X110400Y34633D01*
X110233Y34466D01*
X110067D01*
X110400Y34633D02*
Y34966D01*
X90670Y44142D02*
X89670D01*
Y44642D01*
X89837Y44809D01*
X90170D01*
X90337Y44642D01*
Y44142D01*
Y44475D02*
X90670Y44809D01*
Y45808D02*
Y45142D01*
X90003Y45808D01*
X89837D01*
X89670Y45642D01*
Y45308D01*
X89837Y45142D01*
X89670Y46141D02*
Y46808D01*
X89837D01*
X90503Y46141D01*
X90670D01*
X107667Y40150D02*
Y41150D01*
X108167D01*
X108334Y40983D01*
Y40650D01*
X108167Y40483D01*
X107667D01*
X108000D02*
X108334Y40150D01*
X109333D02*
X108667D01*
X109333Y40817D01*
Y40983D01*
X109167Y41150D01*
X108833D01*
X108667Y40983D01*
X110333Y41150D02*
X110000Y40983D01*
X109666Y40650D01*
Y40317D01*
X109833Y40150D01*
X110166D01*
X110333Y40317D01*
Y40483D01*
X110166Y40650D01*
X109666D01*
X53342Y27600D02*
Y28600D01*
X53842D01*
X54008Y28433D01*
Y28100D01*
X53842Y27933D01*
X53342D01*
X53675D02*
X54008Y27600D01*
X54841D02*
Y28600D01*
X54342Y28100D01*
X55008D01*
X119067Y7275D02*
Y8275D01*
X119567D01*
X119734Y8108D01*
Y7775D01*
X119567Y7608D01*
X119067D01*
X119400D02*
X119734Y7275D01*
X120733D02*
X120067D01*
X120733Y7942D01*
Y8108D01*
X120567Y8275D01*
X120233D01*
X120067Y8108D01*
X121066D02*
X121233Y8275D01*
X121566D01*
X121733Y8108D01*
Y7942D01*
X121566Y7775D01*
X121400D01*
X121566D01*
X121733Y7608D01*
Y7442D01*
X121566Y7275D01*
X121233D01*
X121066Y7442D01*
X108587Y7237D02*
Y8237D01*
X109087D01*
X109253Y8070D01*
Y7737D01*
X109087Y7570D01*
X108587D01*
X108920D02*
X109253Y7237D01*
X110253D02*
X109587D01*
X110253Y7904D01*
Y8070D01*
X110086Y8237D01*
X109753D01*
X109587Y8070D01*
X110586Y7237D02*
X110920D01*
X110753D01*
Y8237D01*
X110586Y8070D01*
X48692Y21725D02*
Y22725D01*
X49192D01*
X49359Y22558D01*
Y22225D01*
X49192Y22058D01*
X48692D01*
X49025D02*
X49359Y21725D01*
X50358D02*
X49692D01*
X50358Y22392D01*
Y22558D01*
X50192Y22725D01*
X49858D01*
X49692Y22558D01*
X50691D02*
X50858Y22725D01*
X51191D01*
X51358Y22558D01*
Y21892D01*
X51191Y21725D01*
X50858D01*
X50691Y21892D01*
Y22558D01*
X98970Y6993D02*
Y7993D01*
X99469D01*
X99636Y7826D01*
Y7493D01*
X99469Y7326D01*
X98970D01*
X99303D02*
X99636Y6993D01*
X99969D02*
X100302D01*
X100136D01*
Y7993D01*
X99969Y7826D01*
X100802Y7160D02*
X100969Y6993D01*
X101302D01*
X101469Y7160D01*
Y7826D01*
X101302Y7993D01*
X100969D01*
X100802Y7826D01*
Y7660D01*
X100969Y7493D01*
X101469D01*
X45945Y27746D02*
Y28746D01*
X46445D01*
X46612Y28579D01*
Y28246D01*
X46445Y28079D01*
X45945D01*
X46279D02*
X46612Y27746D01*
X46945D02*
X47278D01*
X47112D01*
Y28746D01*
X46945Y28579D01*
X47778D02*
X47945Y28746D01*
X48278D01*
X48445Y28579D01*
Y28413D01*
X48278Y28246D01*
X48445Y28079D01*
Y27913D01*
X48278Y27746D01*
X47945D01*
X47778Y27913D01*
Y28079D01*
X47945Y28246D01*
X47778Y28413D01*
Y28579D01*
X47945Y28246D02*
X48278D01*
X75841Y7374D02*
Y8374D01*
X76341D01*
X76507Y8207D01*
Y7874D01*
X76341Y7707D01*
X75841D01*
X76174D02*
X76507Y7374D01*
X76840D02*
X77174D01*
X77007D01*
Y8374D01*
X76840Y8207D01*
X77674Y8374D02*
X78340D01*
Y8207D01*
X77674Y7541D01*
Y7374D01*
X42625Y21750D02*
Y22750D01*
X43125D01*
X43292Y22583D01*
Y22250D01*
X43125Y22083D01*
X42625D01*
X42959D02*
X43292Y21750D01*
X43625D02*
X43958D01*
X43792D01*
Y22750D01*
X43625Y22583D01*
X45125Y22750D02*
X44791Y22583D01*
X44458Y22250D01*
Y21917D01*
X44625Y21750D01*
X44958D01*
X45125Y21917D01*
Y22083D01*
X44958Y22250D01*
X44458D01*
X62844Y7374D02*
Y8374D01*
X63344D01*
X63511Y8207D01*
Y7874D01*
X63344Y7707D01*
X62844D01*
X63178D02*
X63511Y7374D01*
X63844D02*
X64177D01*
X64011D01*
Y8374D01*
X63844Y8207D01*
X65344Y8374D02*
X64677D01*
Y7874D01*
X65010Y8041D01*
X65177D01*
X65344Y7874D01*
Y7541D01*
X65177Y7374D01*
X64844D01*
X64677Y7541D01*
X40140Y27754D02*
Y28754D01*
X40640D01*
X40807Y28587D01*
Y28254D01*
X40640Y28087D01*
X40140D01*
X40474D02*
X40807Y27754D01*
X41140D02*
X41473D01*
X41307D01*
Y28754D01*
X41140Y28587D01*
X42473Y27754D02*
Y28754D01*
X41973Y28254D01*
X42640D01*
X50250Y7000D02*
Y8000D01*
X50750D01*
X50917Y7833D01*
Y7500D01*
X50750Y7333D01*
X50250D01*
X50584D02*
X50917Y7000D01*
X51250D02*
X51583D01*
X51417D01*
Y8000D01*
X51250Y7833D01*
X52083D02*
X52250Y8000D01*
X52583D01*
X52750Y7833D01*
Y7667D01*
X52583Y7500D01*
X52416D01*
X52583D01*
X52750Y7333D01*
Y7167D01*
X52583Y7000D01*
X52250D01*
X52083Y7167D01*
X30675Y24275D02*
X29675D01*
Y24775D01*
X29842Y24942D01*
X30175D01*
X30342Y24775D01*
Y24275D01*
Y24609D02*
X30675Y24942D01*
Y25275D02*
Y25608D01*
Y25442D01*
X29675D01*
X29842Y25275D01*
X30675Y26775D02*
Y26108D01*
X30008Y26775D01*
X29842D01*
X29675Y26608D01*
Y26275D01*
X29842Y26108D01*
X38892Y9425D02*
Y10425D01*
X39392D01*
X39558Y10258D01*
Y9925D01*
X39392Y9758D01*
X38892D01*
X39225D02*
X39558Y9425D01*
X39892D02*
X40225D01*
X40058D01*
Y10425D01*
X39892Y10258D01*
X40725Y9425D02*
X41058D01*
X40891D01*
Y10425D01*
X40725Y10258D01*
X24075Y27975D02*
Y28975D01*
X24575D01*
X24742Y28808D01*
Y28475D01*
X24575Y28308D01*
X24075D01*
X24409D02*
X24742Y27975D01*
X25075D02*
X25408D01*
X25242D01*
Y28975D01*
X25075Y28808D01*
X25908D02*
X26075Y28975D01*
X26408D01*
X26575Y28808D01*
Y28142D01*
X26408Y27975D01*
X26075D01*
X25908Y28142D01*
Y28808D01*
X24291Y7304D02*
Y8303D01*
X24791D01*
X24958Y8137D01*
Y7804D01*
X24791Y7637D01*
X24291D01*
X24624D02*
X24958Y7304D01*
X25291Y7470D02*
X25457Y7304D01*
X25791D01*
X25957Y7470D01*
Y8137D01*
X25791Y8303D01*
X25457D01*
X25291Y8137D01*
Y7970D01*
X25457Y7804D01*
X25957D01*
X22317Y21625D02*
Y22625D01*
X22817D01*
X22983Y22458D01*
Y22125D01*
X22817Y21958D01*
X22317D01*
X22650D02*
X22983Y21625D01*
X23317Y22458D02*
X23483Y22625D01*
X23816D01*
X23983Y22458D01*
Y22292D01*
X23816Y22125D01*
X23983Y21958D01*
Y21792D01*
X23816Y21625D01*
X23483D01*
X23317Y21792D01*
Y21958D01*
X23483Y22125D01*
X23317Y22292D01*
Y22458D01*
X23483Y22125D02*
X23816D01*
X16917Y7225D02*
Y8225D01*
X17417D01*
X17583Y8058D01*
Y7725D01*
X17417Y7558D01*
X16917D01*
X17250D02*
X17583Y7225D01*
X17917Y8225D02*
X18583D01*
Y8058D01*
X17917Y7392D01*
Y7225D01*
X59775Y24317D02*
X58775D01*
Y24817D01*
X58942Y24983D01*
X59275D01*
X59442Y24817D01*
Y24317D01*
Y24650D02*
X59775Y24983D01*
X58942Y25317D02*
X58775Y25483D01*
Y25816D01*
X58942Y25983D01*
X59108D01*
X59275Y25816D01*
Y25650D01*
Y25816D01*
X59442Y25983D01*
X59608D01*
X59775Y25816D01*
Y25483D01*
X59608Y25317D01*
X19292Y28075D02*
Y29075D01*
X19792D01*
X19958Y28908D01*
Y28575D01*
X19792Y28408D01*
X19292D01*
X19625D02*
X19958Y28075D01*
X20958D02*
X20292D01*
X20958Y28742D01*
Y28908D01*
X20791Y29075D01*
X20458D01*
X20292Y28908D01*
X8700Y6234D02*
X7700D01*
Y6733D01*
X7867Y6900D01*
X8200D01*
X8367Y6733D01*
Y6234D01*
Y6567D02*
X8700Y6900D01*
Y7233D02*
Y7566D01*
Y7400D01*
X7700D01*
X7867Y7233D01*
X73139Y36233D02*
Y37232D01*
X73639D01*
X73805Y37066D01*
Y36732D01*
X73639Y36566D01*
X73139D01*
X74138Y36399D02*
X74305Y36233D01*
X74638D01*
X74805Y36399D01*
Y37066D01*
X74638Y37232D01*
X74305D01*
X74138Y37066D01*
Y36899D01*
X74305Y36732D01*
X74805D01*
X44467Y4700D02*
Y5700D01*
X44967D01*
X45133Y5533D01*
Y5200D01*
X44967Y5033D01*
X44467D01*
X45966Y4700D02*
Y5700D01*
X45467Y5200D01*
X46133D01*
X29978Y5135D02*
Y6135D01*
X30478D01*
X30644Y5968D01*
Y5635D01*
X30478Y5468D01*
X29978D01*
X30978Y5968D02*
X31144Y6135D01*
X31477D01*
X31644Y5968D01*
Y5802D01*
X31477Y5635D01*
X31311D01*
X31477D01*
X31644Y5468D01*
Y5302D01*
X31477Y5135D01*
X31144D01*
X30978Y5302D01*
X12387Y5117D02*
Y6116D01*
X12887D01*
X13053Y5950D01*
Y5616D01*
X12887Y5450D01*
X12387D01*
X14053Y5117D02*
X13387D01*
X14053Y5783D01*
Y5950D01*
X13886Y6116D01*
X13553D01*
X13387Y5950D01*
X2175Y4881D02*
Y5881D01*
X2675D01*
X2841Y5714D01*
Y5381D01*
X2675Y5214D01*
X2175D01*
X3174Y4881D02*
X3508D01*
X3341D01*
Y5881D01*
X3174Y5714D01*
X127109Y30775D02*
Y29775D01*
X127775D01*
X128775Y30608D02*
X128608Y30775D01*
X128275D01*
X128108Y30608D01*
Y30442D01*
X128275Y30275D01*
X128608D01*
X128775Y30108D01*
Y29942D01*
X128608Y29775D01*
X128275D01*
X128108Y29942D01*
X129108Y29775D02*
X129441D01*
X129275D01*
Y30775D01*
X129108Y30608D01*
X109333Y52250D02*
X109000D01*
X109167D01*
Y51417D01*
X109000Y51250D01*
X108834D01*
X108667Y51417D01*
X110333Y51250D02*
X109667D01*
X110333Y51917D01*
Y52083D01*
X110166Y52250D01*
X109833D01*
X109667Y52083D01*
X6000Y14050D02*
X5334D01*
Y13550D01*
X5667D01*
X5334D01*
Y13050D01*
X6333D02*
X6666D01*
X6500D01*
Y14050D01*
X6333Y13883D01*
X25917Y43083D02*
X25750Y43250D01*
X25417D01*
X25250Y43083D01*
Y42417D01*
X25417Y42250D01*
X25750D01*
X25917Y42417D01*
X26250Y42250D02*
X26583D01*
X26417D01*
Y43250D01*
X26250Y43083D01*
X27750Y43250D02*
X27416Y43083D01*
X27083Y42750D01*
Y42417D01*
X27250Y42250D01*
X27583D01*
X27750Y42417D01*
Y42583D01*
X27583Y42750D01*
X27083D01*
X8167Y44133D02*
X8000Y44300D01*
X7667D01*
X7500Y44133D01*
Y43467D01*
X7667Y43300D01*
X8000D01*
X8167Y43467D01*
X8500Y43300D02*
X8833D01*
X8667D01*
Y44300D01*
X8500Y44133D01*
X10000Y44300D02*
X9333D01*
Y43800D01*
X9666Y43967D01*
X9833D01*
X10000Y43800D01*
Y43467D01*
X9833Y43300D01*
X9500D01*
X9333Y43467D01*
X4002Y44003D02*
X3835Y44170D01*
X3502D01*
X3336Y44003D01*
Y43337D01*
X3502Y43170D01*
X3835D01*
X4002Y43337D01*
X4335Y43170D02*
X4669D01*
X4502D01*
Y44170D01*
X4335Y44003D01*
X5668Y43170D02*
Y44170D01*
X5168Y43670D01*
X5835D01*
X114667Y30083D02*
X114500Y30250D01*
X114167D01*
X114000Y30083D01*
Y29417D01*
X114167Y29250D01*
X114500D01*
X114667Y29417D01*
X115000Y29250D02*
X115333D01*
X115167D01*
Y30250D01*
X115000Y30083D01*
X115833D02*
X116000Y30250D01*
X116333D01*
X116500Y30083D01*
Y29917D01*
X116333Y29750D01*
X116166D01*
X116333D01*
X116500Y29583D01*
Y29417D01*
X116333Y29250D01*
X116000D01*
X115833Y29417D01*
X119167Y20833D02*
X119000Y21000D01*
X118667D01*
X118500Y20833D01*
Y20167D01*
X118667Y20000D01*
X119000D01*
X119167Y20167D01*
X119500Y20000D02*
X119833D01*
X119667D01*
Y21000D01*
X119500Y20833D01*
X121000Y20000D02*
X120333D01*
X121000Y20667D01*
Y20833D01*
X120833Y21000D01*
X120500D01*
X120333Y20833D01*
X102942Y46883D02*
X102775Y47050D01*
X102442D01*
X102275Y46883D01*
Y46217D01*
X102442Y46050D01*
X102775D01*
X102942Y46217D01*
X103275Y46050D02*
X103608D01*
X103442D01*
Y47050D01*
X103275Y46883D01*
X104108D02*
X104275Y47050D01*
X104608D01*
X104775Y46883D01*
Y46217D01*
X104608Y46050D01*
X104275D01*
X104108Y46217D01*
Y46883D01*
X87308Y39808D02*
X87142Y39975D01*
X86809D01*
X86642Y39808D01*
Y39142D01*
X86809Y38975D01*
X87142D01*
X87308Y39142D01*
X87642D02*
X87808Y38975D01*
X88141D01*
X88308Y39142D01*
Y39808D01*
X88141Y39975D01*
X87808D01*
X87642Y39808D01*
Y39642D01*
X87808Y39475D01*
X88308D01*
X115333Y23833D02*
X115167Y24000D01*
X114834D01*
X114667Y23833D01*
Y23167D01*
X114834Y23000D01*
X115167D01*
X115333Y23167D01*
X115667Y24000D02*
X116333D01*
Y23833D01*
X115667Y23167D01*
Y23000D01*
X112917Y37933D02*
X112750Y37767D01*
Y37434D01*
X112917Y37267D01*
X113583D01*
X113750Y37434D01*
Y37767D01*
X113583Y37933D01*
X112750Y38933D02*
X112917Y38600D01*
X113250Y38267D01*
X113583D01*
X113750Y38433D01*
Y38766D01*
X113583Y38933D01*
X113417D01*
X113250Y38766D01*
Y38267D01*
X77583Y30758D02*
X77417Y30925D01*
X77084D01*
X76917Y30758D01*
Y30092D01*
X77084Y29925D01*
X77417D01*
X77583Y30092D01*
X78416Y29925D02*
Y30925D01*
X77917Y30425D01*
X78583D01*
X86158Y27108D02*
X85992Y27275D01*
X85659D01*
X85492Y27108D01*
Y26442D01*
X85659Y26275D01*
X85992D01*
X86158Y26442D01*
X87158Y26275D02*
X86492D01*
X87158Y26942D01*
Y27108D01*
X86991Y27275D01*
X86658D01*
X86492Y27108D01*
D56*
X84802Y16796D02*
X83956Y17642D01*
X84802D02*
X83956Y16796D01*
X84802Y17219D02*
X83956D01*
X84379Y17642D02*
Y16796D01*
%TF.MD5,b6aab805852750f83c479d6ea5e64ae3*%
M02*
