%TF.GenerationSoftware,Altium Limited,Altium Designer,22.7.1 (60)*%
G04 Layer_Color=255*
%FSLAX43Y43*%
%MOMM*%
%TF.SameCoordinates,1608F762-6F3A-48E5-B14A-7665CB884DB8*%
%TF.FilePolarity,Positive*%
%TF.FileFunction,Pads,Top*%
%TF.Part,Single*%
G01*
G75*
%TA.AperFunction,SMDPad,CuDef*%
%ADD10R,1.346X0.508*%
%ADD11R,0.508X1.346*%
%ADD12O,1.450X0.600*%
%ADD13R,2.400X3.200*%
%ADD14R,1.100X1.400*%
%ADD15R,1.400X1.100*%
%ADD16R,0.800X1.200*%
%ADD17R,1.500X2.000*%
G04:AMPARAMS|DCode=18|XSize=1.62mm|YSize=0.6mm|CornerRadius=0.075mm|HoleSize=0mm|Usage=FLASHONLY|Rotation=90.000|XOffset=0mm|YOffset=0mm|HoleType=Round|Shape=RoundedRectangle|*
%AMROUNDEDRECTD18*
21,1,1.620,0.450,0,0,90.0*
21,1,1.470,0.600,0,0,90.0*
1,1,0.150,0.225,0.735*
1,1,0.150,0.225,-0.735*
1,1,0.150,-0.225,-0.735*
1,1,0.150,-0.225,0.735*
%
%ADD18ROUNDEDRECTD18*%
%ADD19R,1.499X0.432*%
%ADD20R,1.700X1.100*%
%ADD21R,1.100X1.700*%
G04:AMPARAMS|DCode=22|XSize=0.6mm|YSize=1.45mm|CornerRadius=0.051mm|HoleSize=0mm|Usage=FLASHONLY|Rotation=90.000|XOffset=0mm|YOffset=0mm|HoleType=Round|Shape=RoundedRectangle|*
%AMROUNDEDRECTD22*
21,1,0.600,1.348,0,0,90.0*
21,1,0.498,1.450,0,0,90.0*
1,1,0.102,0.674,0.249*
1,1,0.102,0.674,-0.249*
1,1,0.102,-0.674,-0.249*
1,1,0.102,-0.674,0.249*
%
%ADD22ROUNDEDRECTD22*%
G04:AMPARAMS|DCode=23|XSize=0.9mm|YSize=1.85mm|CornerRadius=0.225mm|HoleSize=0mm|Usage=FLASHONLY|Rotation=180.000|XOffset=0mm|YOffset=0mm|HoleType=Round|Shape=RoundedRectangle|*
%AMROUNDEDRECTD23*
21,1,0.900,1.400,0,0,180.0*
21,1,0.450,1.850,0,0,180.0*
1,1,0.450,-0.225,0.700*
1,1,0.450,0.225,0.700*
1,1,0.450,0.225,-0.700*
1,1,0.450,-0.225,-0.700*
%
%ADD23ROUNDEDRECTD23*%
%ADD24R,1.050X0.550*%
%ADD25R,2.900X5.400*%
%ADD26R,2.000X4.000*%
%ADD27R,4.000X2.000*%
%TA.AperFunction,ComponentPad*%
%ADD31C,1.000*%
%ADD32R,1.000X1.000*%
%ADD33C,2.400*%
%ADD34C,2.100*%
%ADD35C,1.800*%
%ADD36R,1.800X1.800*%
%ADD37O,4.200X2.100*%
%ADD38C,1.500*%
%ADD39R,1.500X1.500*%
%ADD40O,1.508X3.016*%
%ADD41R,1.500X1.500*%
%ADD42C,1.600*%
%ADD43R,1.600X1.600*%
%TA.AperFunction,ViaPad*%
%ADD44C,3.200*%
D10*
X83177Y18000D02*
D03*
Y18800D02*
D03*
Y19600D02*
D03*
Y20400D02*
D03*
Y21200D02*
D03*
Y22000D02*
D03*
Y22800D02*
D03*
Y23600D02*
D03*
Y24400D02*
D03*
Y25200D02*
D03*
Y26000D02*
D03*
X71823D02*
D03*
Y25200D02*
D03*
Y24400D02*
D03*
Y23600D02*
D03*
Y22800D02*
D03*
Y22000D02*
D03*
Y21200D02*
D03*
Y20400D02*
D03*
Y19600D02*
D03*
Y18800D02*
D03*
Y18000D02*
D03*
D11*
X81500Y27677D02*
D03*
X80700D02*
D03*
X79900D02*
D03*
X79100D02*
D03*
X78300D02*
D03*
X77500D02*
D03*
X76700D02*
D03*
X75900D02*
D03*
X75100D02*
D03*
X74300D02*
D03*
X73500D02*
D03*
Y16323D02*
D03*
X74300D02*
D03*
X75100D02*
D03*
X75900D02*
D03*
X76700D02*
D03*
X77500D02*
D03*
X78300D02*
D03*
X79100D02*
D03*
X79900D02*
D03*
X80700D02*
D03*
X81500D02*
D03*
D12*
X123868Y24670D02*
D03*
Y25940D02*
D03*
Y27210D02*
D03*
Y28480D02*
D03*
X118418Y24670D02*
D03*
Y25940D02*
D03*
Y27210D02*
D03*
Y28480D02*
D03*
D13*
X121150Y26600D02*
D03*
D14*
X76250Y13250D02*
D03*
X77750D02*
D03*
X85380Y22500D02*
D03*
X86880D02*
D03*
X86983Y25153D02*
D03*
X85483D02*
D03*
X78613Y31877D02*
D03*
X77113D02*
D03*
X9250Y46000D02*
D03*
X7750D02*
D03*
X4750Y46000D02*
D03*
X6250D02*
D03*
X116080Y25750D02*
D03*
X114580D02*
D03*
X120500Y22500D02*
D03*
X119000D02*
D03*
X114750Y27750D02*
D03*
X116250D02*
D03*
X102684Y45000D02*
D03*
X104184D02*
D03*
D15*
X68750Y20205D02*
D03*
Y21705D02*
D03*
X109434Y44500D02*
D03*
Y43000D02*
D03*
X125497Y27226D02*
D03*
Y25726D02*
D03*
X26435Y45000D02*
D03*
Y46500D02*
D03*
X89434Y38750D02*
D03*
Y40250D02*
D03*
X111684Y38750D02*
D03*
Y37250D02*
D03*
D16*
X54450Y49800D02*
D03*
X55550D02*
D03*
X56650D02*
D03*
X57750D02*
D03*
X58850D02*
D03*
X59950D02*
D03*
X61050D02*
D03*
X62150D02*
D03*
D17*
X64620Y52000D02*
D03*
Y43800D02*
D03*
X50730D02*
D03*
Y52000D02*
D03*
D18*
X40894Y13305D02*
D03*
X42164D02*
D03*
X43434D02*
D03*
X44704D02*
D03*
X45974D02*
D03*
X47244D02*
D03*
X48514D02*
D03*
X49784D02*
D03*
Y19695D02*
D03*
X48514D02*
D03*
X47244D02*
D03*
X45974D02*
D03*
X44704D02*
D03*
X43434D02*
D03*
X42164D02*
D03*
X40894D02*
D03*
X96920Y10750D02*
D03*
X98190D02*
D03*
X99460D02*
D03*
X100730D02*
D03*
X102000D02*
D03*
X103270D02*
D03*
X104540D02*
D03*
X105810D02*
D03*
Y17140D02*
D03*
X104540D02*
D03*
X103270D02*
D03*
X102000D02*
D03*
X100730D02*
D03*
X99460D02*
D03*
X98190D02*
D03*
X96920D02*
D03*
X20555Y19695D02*
D03*
X21825D02*
D03*
X23095D02*
D03*
X24365D02*
D03*
X25635D02*
D03*
X26905D02*
D03*
X28175D02*
D03*
X29445D02*
D03*
Y13305D02*
D03*
X28175D02*
D03*
X26905D02*
D03*
X25635D02*
D03*
X24365D02*
D03*
X23095D02*
D03*
X21825D02*
D03*
X20555D02*
D03*
D19*
X105184Y27035D02*
D03*
Y27670D02*
D03*
Y28330D02*
D03*
Y28965D02*
D03*
X100816D02*
D03*
Y28330D02*
D03*
Y27670D02*
D03*
Y27035D02*
D03*
D20*
X96920Y24600D02*
D03*
Y21900D02*
D03*
X99460Y24600D02*
D03*
Y21900D02*
D03*
X91934Y40850D02*
D03*
Y38150D02*
D03*
X108752Y32400D02*
D03*
Y35100D02*
D03*
X49695Y23904D02*
D03*
Y26604D02*
D03*
X46830Y23900D02*
D03*
Y26600D02*
D03*
X108752Y36750D02*
D03*
Y39450D02*
D03*
X91934Y44150D02*
D03*
Y46850D02*
D03*
X57000Y26604D02*
D03*
Y23904D02*
D03*
X54000Y26604D02*
D03*
Y23904D02*
D03*
X20103D02*
D03*
Y26604D02*
D03*
X23095Y23900D02*
D03*
Y26600D02*
D03*
X43980Y23904D02*
D03*
Y26604D02*
D03*
X40945Y23904D02*
D03*
Y26604D02*
D03*
X27865Y23904D02*
D03*
Y26604D02*
D03*
X25500Y23904D02*
D03*
Y26604D02*
D03*
X6477Y5381D02*
D03*
Y8081D02*
D03*
X40005Y5635D02*
D03*
Y8335D02*
D03*
D21*
X119050Y5525D02*
D03*
X121750D02*
D03*
X108505Y5334D02*
D03*
X111205D02*
D03*
X52912Y5635D02*
D03*
X50212D02*
D03*
X65485Y5842D02*
D03*
X62785D02*
D03*
X78350D02*
D03*
X75650D02*
D03*
X101700Y5334D02*
D03*
X99000D02*
D03*
X16176Y5889D02*
D03*
X18876D02*
D03*
X23669D02*
D03*
X26369D02*
D03*
D22*
X106159Y38945D02*
D03*
Y40215D02*
D03*
Y41485D02*
D03*
Y42755D02*
D03*
X100709Y38945D02*
D03*
Y40215D02*
D03*
Y41485D02*
D03*
Y42755D02*
D03*
D23*
X3000Y31975D02*
D03*
X5500D02*
D03*
Y38025D02*
D03*
X3000D02*
D03*
D24*
X21890Y46025D02*
D03*
Y45075D02*
D03*
Y44125D02*
D03*
X24540D02*
D03*
Y45075D02*
D03*
Y46025D02*
D03*
D25*
X32550Y40050D02*
D03*
X42450D02*
D03*
D26*
X21500Y39300D02*
D03*
Y32200D02*
D03*
D27*
X30380Y51670D02*
D03*
X23280D02*
D03*
D31*
X111750Y27750D02*
D03*
D32*
Y29020D02*
D03*
D33*
X65445Y2413D02*
D03*
X70445D02*
D03*
X83300D02*
D03*
X78300D02*
D03*
X101319D02*
D03*
X106319D02*
D03*
X122087D02*
D03*
X127087D02*
D03*
X116731D02*
D03*
X111731D02*
D03*
X8469Y2365D02*
D03*
X3469D02*
D03*
X13796Y2413D02*
D03*
X18796D02*
D03*
X29365D02*
D03*
X24365D02*
D03*
X42775D02*
D03*
X47775D02*
D03*
X58253D02*
D03*
X53253D02*
D03*
X3300Y28200D02*
D03*
Y23200D02*
D03*
D34*
X92000Y14000D02*
D03*
X96500Y42750D02*
D03*
X15250Y34750D02*
D03*
X127250Y43000D02*
D03*
X15250Y53500D02*
D03*
X79500Y39250D02*
D03*
X54500Y34250D02*
D03*
X58500D02*
D03*
X63250D02*
D03*
X67750Y34250D02*
D03*
X98000Y35500D02*
D03*
X127750Y37250D02*
D03*
X109000Y24527D02*
D03*
X9250Y39750D02*
D03*
X15250Y19750D02*
D03*
X93000Y32250D02*
D03*
Y28407D02*
D03*
Y24527D02*
D03*
X10000Y19750D02*
D03*
X27865Y37250D02*
D03*
X48006Y34099D02*
D03*
D35*
X84540Y42500D02*
D03*
X82040D02*
D03*
D36*
X79540D02*
D03*
D37*
X86790Y50000D02*
D03*
X77290D02*
D03*
D38*
X3250Y7675D02*
D03*
X127987Y25514D02*
D03*
X76960Y34250D02*
D03*
X79500D02*
D03*
X82040D02*
D03*
X84580D02*
D03*
X87120D02*
D03*
D39*
X3250Y19325D02*
D03*
X127987Y28054D02*
D03*
D40*
X124750Y51750D02*
D03*
X122350Y49750D02*
D03*
X116850D02*
D03*
D41*
X74420Y34250D02*
D03*
D42*
X9540Y49500D02*
D03*
X4460D02*
D03*
D43*
X7000D02*
D03*
D44*
X116080Y14310D02*
D03*
Y42310D02*
D03*
X14580D02*
D03*
Y14310D02*
D03*
%TF.MD5,178aa55cb8262e8b67900f1d0708fab3*%
M02*
