%TF.GenerationSoftware,Altium Limited,Altium Designer,22.7.1 (60)*%
G04 Layer_Color=32896*
%FSLAX43Y43*%
%MOMM*%
%TF.SameCoordinates,1608F762-6F3A-48E5-B14A-7665CB884DB8*%
%TF.FilePolarity,Positive*%
%TF.FileFunction,Legend,Bot*%
%TF.Part,Single*%
G01*
G75*
%TA.AperFunction,NonConductor*%
%ADD47C,0.254*%
D47*
X49863Y11262D02*
X50879D01*
X49863Y12278D01*
Y12531D01*
X50117Y12785D01*
X50625D01*
X50879Y12531D01*
X48339Y11262D02*
X49355D01*
X48339Y12278D01*
Y12531D01*
X48593Y12785D01*
X49101D01*
X49355Y12531D01*
X46816Y11262D02*
X47832D01*
X46816Y12278D01*
Y12531D01*
X47070Y12785D01*
X47578D01*
X47832Y12531D01*
X46308Y12785D02*
X45292D01*
Y12531D01*
X46308Y11516D01*
Y11262D01*
X44785Y11008D02*
X43769D01*
X43261Y12785D02*
Y11262D01*
X42499D01*
X42245Y11516D01*
Y11770D01*
X42499Y12024D01*
X43261D01*
X42499D01*
X42245Y12278D01*
Y12531D01*
X42499Y12785D01*
X43261D01*
X41484Y11262D02*
X40976D01*
X40722Y11516D01*
Y12024D01*
X40976Y12278D01*
X41484D01*
X41737Y12024D01*
Y11516D01*
X41484Y11262D01*
X40214D02*
X39706D01*
X39960D01*
Y12278D01*
X40214D01*
X38690Y12531D02*
Y12278D01*
X38944D01*
X38437D01*
X38690D01*
Y11516D01*
X38437Y11262D01*
X36913D02*
X37421D01*
X37675Y11516D01*
Y12024D01*
X37421Y12278D01*
X36913D01*
X36659Y12024D01*
Y11770D01*
X37675D01*
X36151Y12785D02*
Y11262D01*
X35390D01*
X35136Y11516D01*
Y11770D01*
X35390Y12024D01*
X36151D01*
X35390D01*
X35136Y12278D01*
Y12531D01*
X35390Y12785D01*
X36151D01*
X34628Y12278D02*
Y11262D01*
Y11770D01*
X34374Y12024D01*
X34120Y12278D01*
X33866D01*
X33104D02*
Y11516D01*
X32850Y11262D01*
X32089D01*
Y12278D01*
X31581Y11262D02*
X31073D01*
X31327D01*
Y12278D01*
X31581D01*
X30057Y12531D02*
Y12278D01*
X30311D01*
X29803D01*
X30057D01*
Y11516D01*
X29803Y11262D01*
X28788Y12278D02*
X28280D01*
X28026Y12024D01*
Y11262D01*
X28788D01*
X29042Y11516D01*
X28788Y11770D01*
X28026D01*
X27010Y10754D02*
X26756D01*
X26502Y11008D01*
Y12278D01*
X27264D01*
X27518Y12024D01*
Y11516D01*
X27264Y11262D01*
X26502D01*
X25233D02*
X25741D01*
X25995Y11516D01*
Y12024D01*
X25741Y12278D01*
X25233D01*
X24979Y12024D01*
Y11770D01*
X25995D01*
X24471Y11008D02*
X23455D01*
X22948Y12785D02*
Y11262D01*
X21932D01*
X21424Y12785D02*
Y11262D01*
X20662D01*
X20408Y11516D01*
Y12531D01*
X20662Y12785D01*
X21424D01*
X19901D02*
Y11262D01*
X19139D01*
X18885Y11516D01*
Y12531D01*
X19139Y12785D01*
X19901D01*
%TF.MD5,117757cfcd1b02cf34f2324708a47905*%
M02*
