%TF.GenerationSoftware,Altium Limited,Altium Designer,22.7.1 (60)*%
G04 Layer_Physical_Order=2*
G04 Layer_Color=16711680*
%FSLAX43Y43*%
%MOMM*%
%TF.SameCoordinates,1608F762-6F3A-48E5-B14A-7665CB884DB8*%
%TF.FilePolarity,Positive*%
%TF.FileFunction,Copper,L2,Bot,Signal*%
%TF.Part,Single*%
G01*
G75*
%TA.AperFunction,Conductor*%
%ADD28C,0.500*%
%ADD29C,0.700*%
%TA.AperFunction,ComponentPad*%
%ADD31C,1.000*%
%ADD32R,1.000X1.000*%
%ADD33C,2.400*%
%ADD34C,2.100*%
%ADD35C,1.800*%
%ADD36R,1.800X1.800*%
%ADD37O,4.200X2.100*%
%ADD38C,1.500*%
%ADD39R,1.500X1.500*%
%ADD40O,1.508X3.016*%
%ADD41R,1.500X1.500*%
%ADD42C,1.600*%
%ADD43R,1.600X1.600*%
%TA.AperFunction,ViaPad*%
%ADD44C,3.200*%
%ADD45C,0.650*%
%TA.AperFunction,Conductor*%
%ADD46C,1.000*%
%TA.AperFunction,NonConductor*%
%ADD47C,0.254*%
G36*
X91020Y53350D02*
X91021Y53345D01*
X91020Y53340D01*
X91031Y53080D01*
X91034Y53065D01*
X91033Y53050D01*
X91115Y52536D01*
X91122Y52517D01*
X91124Y52497D01*
X91285Y52003D01*
X91295Y51985D01*
X91300Y51966D01*
X91536Y51502D01*
X91549Y51486D01*
X91557Y51468D01*
X91863Y51047D01*
X91878Y51034D01*
X91889Y51017D01*
X92257Y50649D01*
X92274Y50638D01*
X92287Y50623D01*
X92708Y50317D01*
X92726Y50309D01*
X92742Y50296D01*
X93206Y50060D01*
X93225Y50055D01*
X93243Y50045D01*
X93737Y49884D01*
X93757Y49882D01*
X93776Y49875D01*
X94290Y49793D01*
X94310Y49794D01*
X94330Y49790D01*
X94850D01*
X94870Y49794D01*
X94890Y49793D01*
X95404Y49875D01*
X95423Y49882D01*
X95443Y49884D01*
X95937Y50045D01*
X95955Y50055D01*
X95974Y50060D01*
X96438Y50296D01*
X96454Y50309D01*
X96472Y50317D01*
X96893Y50623D01*
X96906Y50638D01*
X96923Y50649D01*
X97291Y51017D01*
X97302Y51034D01*
X97317Y51047D01*
X97623Y51468D01*
X97631Y51486D01*
X97644Y51502D01*
X97880Y51966D01*
X97885Y51985D01*
X97895Y52003D01*
X98056Y52497D01*
X98058Y52517D01*
X98065Y52536D01*
X98147Y53050D01*
X98146Y53065D01*
X98149Y53080D01*
X98160Y53340D01*
X98159Y53345D01*
X98160Y53350D01*
Y56330D01*
X130410D01*
Y230D01*
X98155D01*
Y3235D01*
X98154Y3240D01*
X98155Y3245D01*
X98144Y3505D01*
X98141Y3520D01*
X98142Y3535D01*
X98060Y4049D01*
X98053Y4068D01*
X98051Y4088D01*
X97890Y4582D01*
X97880Y4600D01*
X97875Y4619D01*
X97639Y5083D01*
X97626Y5099D01*
X97618Y5117D01*
X97312Y5538D01*
X97297Y5551D01*
X97286Y5568D01*
X96918Y5936D01*
X96901Y5947D01*
X96888Y5962D01*
X96467Y6268D01*
X96449Y6276D01*
X96433Y6289D01*
X95969Y6525D01*
X95950Y6530D01*
X95932Y6540D01*
X95438Y6701D01*
X95418Y6703D01*
X95399Y6710D01*
X94885Y6792D01*
X94865Y6791D01*
X94845Y6795D01*
X94325D01*
X94305Y6791D01*
X94285Y6792D01*
X93771Y6710D01*
X93752Y6703D01*
X93732Y6701D01*
X93238Y6540D01*
X93220Y6530D01*
X93201Y6525D01*
X92737Y6289D01*
X92721Y6276D01*
X92703Y6268D01*
X92282Y5962D01*
X92269Y5947D01*
X92252Y5936D01*
X91884Y5568D01*
X91873Y5551D01*
X91858Y5538D01*
X91552Y5117D01*
X91544Y5099D01*
X91531Y5083D01*
X91295Y4619D01*
X91290Y4600D01*
X91280Y4582D01*
X91119Y4088D01*
X91117Y4068D01*
X91110Y4049D01*
X91028Y3535D01*
X91029Y3520D01*
X91026Y3505D01*
X91015Y3245D01*
X91016Y3240D01*
X91015Y3235D01*
Y255D01*
X39645D01*
Y3235D01*
X39644Y3240D01*
X39645Y3245D01*
X39634Y3505D01*
X39631Y3520D01*
X39632Y3535D01*
X39550Y4049D01*
X39543Y4068D01*
X39541Y4088D01*
X39380Y4582D01*
X39370Y4600D01*
X39365Y4619D01*
X39129Y5083D01*
X39116Y5099D01*
X39108Y5117D01*
X38802Y5538D01*
X38787Y5551D01*
X38776Y5568D01*
X38408Y5936D01*
X38391Y5947D01*
X38378Y5962D01*
X37957Y6268D01*
X37939Y6276D01*
X37923Y6289D01*
X37459Y6525D01*
X37440Y6530D01*
X37422Y6540D01*
X36928Y6701D01*
X36908Y6703D01*
X36889Y6710D01*
X36375Y6792D01*
X36355Y6791D01*
X36335Y6795D01*
X35815D01*
X35795Y6791D01*
X35775Y6792D01*
X35261Y6710D01*
X35242Y6703D01*
X35222Y6701D01*
X34728Y6540D01*
X34710Y6530D01*
X34691Y6525D01*
X34227Y6289D01*
X34211Y6276D01*
X34193Y6268D01*
X33772Y5962D01*
X33759Y5947D01*
X33742Y5936D01*
X33374Y5568D01*
X33363Y5551D01*
X33348Y5538D01*
X33042Y5117D01*
X33034Y5099D01*
X33021Y5083D01*
X32785Y4619D01*
X32780Y4600D01*
X32770Y4582D01*
X32609Y4088D01*
X32607Y4068D01*
X32600Y4049D01*
X32518Y3535D01*
X32519Y3520D01*
X32516Y3505D01*
X32505Y3245D01*
X32506Y3240D01*
X32505Y3235D01*
Y255D01*
X255D01*
Y56355D01*
X32505D01*
Y53375D01*
X32506Y53370D01*
X32505Y53365D01*
X32516Y53105D01*
X32519Y53090D01*
X32518Y53075D01*
X32600Y52561D01*
X32607Y52542D01*
X32609Y52522D01*
X32770Y52028D01*
X32780Y52010D01*
X32785Y51991D01*
X33021Y51527D01*
X33034Y51511D01*
X33042Y51493D01*
X33348Y51072D01*
X33363Y51059D01*
X33374Y51042D01*
X33742Y50674D01*
X33759Y50663D01*
X33772Y50648D01*
X34193Y50342D01*
X34211Y50334D01*
X34227Y50321D01*
X34691Y50085D01*
X34710Y50080D01*
X34728Y50070D01*
X35222Y49909D01*
X35242Y49907D01*
X35261Y49900D01*
X35775Y49818D01*
X35795Y49819D01*
X35815Y49815D01*
X36335D01*
X36355Y49819D01*
X36375Y49818D01*
X36889Y49900D01*
X36908Y49907D01*
X36928Y49909D01*
X37422Y50070D01*
X37440Y50080D01*
X37459Y50085D01*
X37923Y50321D01*
X37939Y50334D01*
X37957Y50342D01*
X38378Y50648D01*
X38391Y50663D01*
X38408Y50674D01*
X38776Y51042D01*
X38787Y51059D01*
X38802Y51072D01*
X39108Y51493D01*
X39116Y51511D01*
X39129Y51527D01*
X39365Y51991D01*
X39370Y52010D01*
X39380Y52028D01*
X39541Y52522D01*
X39543Y52542D01*
X39550Y52561D01*
X39632Y53075D01*
X39631Y53090D01*
X39634Y53105D01*
X39645Y53365D01*
X39644Y53370D01*
X39645Y53375D01*
Y56355D01*
X91020D01*
Y53350D01*
D02*
G37*
%LPC*%
G36*
X15408Y54701D02*
X15092D01*
X14786Y54619D01*
X14513Y54461D01*
X14289Y54237D01*
X14131Y53964D01*
X14049Y53658D01*
Y53342D01*
X14131Y53036D01*
X14289Y52763D01*
X14513Y52539D01*
X14786Y52381D01*
X15092Y52299D01*
X15408D01*
X15714Y52381D01*
X15987Y52539D01*
X16211Y52763D01*
X16369Y53036D01*
X16451Y53342D01*
Y53658D01*
X16369Y53964D01*
X16211Y54237D01*
X15987Y54461D01*
X15714Y54619D01*
X15408Y54701D01*
D02*
G37*
G36*
X87840Y51261D02*
X86890D01*
Y50100D01*
X89088D01*
X89058Y50326D01*
X88932Y50630D01*
X88732Y50892D01*
X88470Y51092D01*
X88166Y51218D01*
X87840Y51261D01*
D02*
G37*
G36*
X86690D02*
X85740D01*
X85414Y51218D01*
X85110Y51092D01*
X84848Y50892D01*
X84648Y50630D01*
X84522Y50326D01*
X84492Y50100D01*
X86690D01*
Y51261D01*
D02*
G37*
G36*
X78340D02*
X77390D01*
Y50100D01*
X79588D01*
X79558Y50326D01*
X79432Y50630D01*
X79232Y50892D01*
X78970Y51092D01*
X78666Y51218D01*
X78340Y51261D01*
D02*
G37*
G36*
X77190D02*
X76240D01*
X75914Y51218D01*
X75610Y51092D01*
X75348Y50892D01*
X75148Y50630D01*
X75022Y50326D01*
X74992Y50100D01*
X77190D01*
Y51261D01*
D02*
G37*
G36*
X124750Y53417D02*
X124514Y53386D01*
X124294Y53295D01*
X124105Y53149D01*
X123959Y52960D01*
X123868Y52740D01*
X123837Y52504D01*
Y50996D01*
X123868Y50760D01*
X123959Y50540D01*
X124105Y50351D01*
X124294Y50205D01*
X124514Y50114D01*
X124750Y50083D01*
X124986Y50114D01*
X125206Y50205D01*
X125395Y50351D01*
X125541Y50540D01*
X125632Y50760D01*
X125663Y50996D01*
Y52504D01*
X125632Y52740D01*
X125541Y52960D01*
X125395Y53149D01*
X125206Y53295D01*
X124986Y53386D01*
X124750Y53417D01*
D02*
G37*
G36*
X122450Y51453D02*
Y49850D01*
X123312D01*
Y50504D01*
X123279Y50753D01*
X123183Y50985D01*
X123030Y51184D01*
X122831Y51337D01*
X122599Y51433D01*
X122450Y51453D01*
D02*
G37*
G36*
X122250Y51453D02*
X122101Y51433D01*
X121869Y51337D01*
X121670Y51184D01*
X121517Y50985D01*
X121421Y50753D01*
X121388Y50504D01*
Y49850D01*
X122250D01*
Y51453D01*
D02*
G37*
G36*
X8000Y50500D02*
X7100D01*
Y49600D01*
X8000D01*
Y50500D01*
D02*
G37*
G36*
X6900D02*
X6000D01*
Y49600D01*
X6900D01*
Y50500D01*
D02*
G37*
G36*
X22375Y49751D02*
X22185D01*
X22023Y49683D01*
X21175D01*
X21019Y49652D01*
X20886Y49564D01*
X20386Y49064D01*
X20297Y48931D01*
X20266Y48775D01*
Y45332D01*
X20199Y45170D01*
Y44980D01*
X20271Y44805D01*
X20405Y44671D01*
X20580Y44599D01*
X20770D01*
X20945Y44671D01*
X21079Y44805D01*
X21151Y44980D01*
Y45170D01*
X21084Y45332D01*
Y48605D01*
X21344Y48866D01*
X22023D01*
X22185Y48799D01*
X22375D01*
X22550Y48871D01*
X22684Y49005D01*
X22756Y49180D01*
Y49369D01*
X22684Y49544D01*
X22550Y49678D01*
X22375Y49751D01*
D02*
G37*
G36*
X9665Y50451D02*
X9415D01*
X9173Y50386D01*
X8956Y50261D01*
X8779Y50084D01*
X8654Y49867D01*
X8589Y49625D01*
Y49375D01*
X8654Y49133D01*
X8779Y48916D01*
X8956Y48739D01*
X9173Y48614D01*
X9415Y48549D01*
X9665D01*
X9907Y48614D01*
X10124Y48739D01*
X10301Y48916D01*
X10426Y49133D01*
X10491Y49375D01*
Y49625D01*
X10426Y49867D01*
X10301Y50084D01*
X10124Y50261D01*
X9907Y50386D01*
X9665Y50451D01*
D02*
G37*
G36*
X4585D02*
X4335D01*
X4093Y50386D01*
X3876Y50261D01*
X3699Y50084D01*
X3574Y49867D01*
X3509Y49625D01*
Y49375D01*
X3574Y49133D01*
X3699Y48916D01*
X3876Y48739D01*
X4093Y48614D01*
X4335Y48549D01*
X4585D01*
X4827Y48614D01*
X5044Y48739D01*
X5221Y48916D01*
X5346Y49133D01*
X5411Y49375D01*
Y49625D01*
X5346Y49867D01*
X5221Y50084D01*
X5044Y50261D01*
X4827Y50386D01*
X4585Y50451D01*
D02*
G37*
G36*
X8000Y49400D02*
X7100D01*
Y48500D01*
X8000D01*
Y49400D01*
D02*
G37*
G36*
X6900D02*
X6000D01*
Y48500D01*
X6900D01*
Y49400D01*
D02*
G37*
G36*
X116850Y51417D02*
X116614Y51386D01*
X116394Y51295D01*
X116205Y51149D01*
X116059Y50960D01*
X115968Y50740D01*
X115937Y50504D01*
Y48996D01*
X115968Y48760D01*
X116059Y48540D01*
X116205Y48351D01*
X116394Y48205D01*
X116614Y48114D01*
X116850Y48083D01*
X117086Y48114D01*
X117306Y48205D01*
X117495Y48351D01*
X117641Y48540D01*
X117732Y48760D01*
X117763Y48996D01*
Y50504D01*
X117732Y50740D01*
X117641Y50960D01*
X117495Y51149D01*
X117306Y51295D01*
X117086Y51386D01*
X116850Y51417D01*
D02*
G37*
G36*
X123312Y49650D02*
X122450D01*
Y48047D01*
X122599Y48067D01*
X122831Y48163D01*
X123030Y48316D01*
X123183Y48515D01*
X123279Y48747D01*
X123312Y48996D01*
Y49650D01*
D02*
G37*
G36*
X122250D02*
X121388D01*
Y48996D01*
X121421Y48747D01*
X121517Y48515D01*
X121670Y48316D01*
X121869Y48163D01*
X122101Y48067D01*
X122250Y48047D01*
Y49650D01*
D02*
G37*
G36*
X84685Y43600D02*
X84640D01*
Y42600D01*
X85640D01*
Y42645D01*
X85565Y42925D01*
X85420Y43175D01*
X85215Y43380D01*
X84965Y43525D01*
X84685Y43600D01*
D02*
G37*
G36*
X84440D02*
X84395D01*
X84115Y43525D01*
X83865Y43380D01*
X83660Y43175D01*
X83515Y42925D01*
X83440Y42645D01*
Y42600D01*
X84440D01*
Y43600D01*
D02*
G37*
G36*
X127408Y44201D02*
X127092D01*
X126786Y44119D01*
X126513Y43961D01*
X126289Y43737D01*
X126131Y43464D01*
X126049Y43158D01*
Y42842D01*
X126131Y42536D01*
X126289Y42263D01*
X126513Y42039D01*
X126786Y41881D01*
X127092Y41799D01*
X127408D01*
X127714Y41881D01*
X127987Y42039D01*
X128211Y42263D01*
X128369Y42536D01*
X128451Y42842D01*
Y43158D01*
X128369Y43464D01*
X128211Y43737D01*
X127987Y43961D01*
X127714Y44119D01*
X127408Y44201D01*
D02*
G37*
G36*
X96658Y43951D02*
X96342D01*
X96036Y43869D01*
X95763Y43711D01*
X95539Y43487D01*
X95381Y43214D01*
X95299Y42908D01*
Y42592D01*
X95381Y42286D01*
X95539Y42013D01*
X95763Y41789D01*
X96036Y41631D01*
X96342Y41549D01*
X96658D01*
X96964Y41631D01*
X97237Y41789D01*
X97461Y42013D01*
X97619Y42286D01*
X97701Y42592D01*
Y42908D01*
X97619Y43214D01*
X97461Y43487D01*
X97237Y43711D01*
X96964Y43869D01*
X96658Y43951D01*
D02*
G37*
G36*
X82178Y43551D02*
X81902D01*
X81634Y43479D01*
X81395Y43341D01*
X81199Y43145D01*
X81061Y42906D01*
X80989Y42638D01*
Y42362D01*
X81061Y42094D01*
X81199Y41855D01*
X81395Y41659D01*
X81634Y41521D01*
X81902Y41449D01*
X82178D01*
X82446Y41521D01*
X82685Y41659D01*
X82881Y41855D01*
X83019Y42094D01*
X83091Y42362D01*
Y42638D01*
X83019Y42906D01*
X82881Y43145D01*
X82685Y43341D01*
X82446Y43479D01*
X82178Y43551D01*
D02*
G37*
G36*
X80591D02*
X78489D01*
Y41449D01*
X80591D01*
Y43551D01*
D02*
G37*
G36*
X85640Y42400D02*
X84640D01*
Y41400D01*
X84685D01*
X84965Y41475D01*
X85215Y41620D01*
X85420Y41825D01*
X85565Y42075D01*
X85640Y42355D01*
Y42400D01*
D02*
G37*
G36*
X84440D02*
X83440D01*
Y42355D01*
X83515Y42075D01*
X83660Y41825D01*
X83865Y41620D01*
X84115Y41475D01*
X84395Y41400D01*
X84440D01*
Y42400D01*
D02*
G37*
G36*
X116080Y45598D02*
X115566Y45558D01*
X115064Y45437D01*
X114587Y45240D01*
X114147Y44970D01*
X113755Y44635D01*
X113420Y44243D01*
X113150Y43803D01*
X112953Y43326D01*
X112832Y42824D01*
X112792Y42310D01*
X112832Y41796D01*
X112953Y41294D01*
X113150Y40817D01*
X113420Y40377D01*
X113755Y39985D01*
X114147Y39650D01*
X114587Y39380D01*
X115064Y39183D01*
X115566Y39062D01*
X116080Y39022D01*
X116594Y39062D01*
X117096Y39183D01*
X117573Y39380D01*
X118013Y39650D01*
X118405Y39985D01*
X118740Y40377D01*
X119010Y40817D01*
X119207Y41294D01*
X119328Y41796D01*
X119368Y42310D01*
X119328Y42824D01*
X119207Y43326D01*
X119010Y43803D01*
X118740Y44243D01*
X118405Y44635D01*
X118013Y44970D01*
X117573Y45240D01*
X117096Y45437D01*
X116594Y45558D01*
X116080Y45598D01*
D02*
G37*
G36*
X14580D02*
X14066Y45558D01*
X13564Y45437D01*
X13087Y45240D01*
X12647Y44970D01*
X12255Y44635D01*
X11920Y44243D01*
X11650Y43803D01*
X11453Y43326D01*
X11332Y42824D01*
X11292Y42310D01*
X11332Y41796D01*
X11453Y41294D01*
X11650Y40817D01*
X11920Y40377D01*
X12255Y39985D01*
X12647Y39650D01*
X13087Y39380D01*
X13564Y39183D01*
X14066Y39062D01*
X14580Y39022D01*
X15094Y39062D01*
X15596Y39183D01*
X16073Y39380D01*
X16513Y39650D01*
X16905Y39985D01*
X17240Y40377D01*
X17510Y40817D01*
X17707Y41294D01*
X17828Y41796D01*
X17868Y42310D01*
X17828Y42824D01*
X17707Y43326D01*
X17510Y43803D01*
X17240Y44243D01*
X16905Y44635D01*
X16513Y44970D01*
X16073Y45240D01*
X15596Y45437D01*
X15094Y45558D01*
X14580Y45598D01*
D02*
G37*
G36*
X9408Y40951D02*
X9092D01*
X8786Y40869D01*
X8513Y40711D01*
X8289Y40487D01*
X8131Y40214D01*
X8049Y39908D01*
Y39592D01*
X8131Y39286D01*
X8289Y39013D01*
X8513Y38789D01*
X8786Y38631D01*
X9092Y38549D01*
X9408D01*
X9714Y38631D01*
X9987Y38789D01*
X10211Y39013D01*
X10369Y39286D01*
X10451Y39592D01*
Y39908D01*
X10369Y40214D01*
X10211Y40487D01*
X9987Y40711D01*
X9714Y40869D01*
X9408Y40951D01*
D02*
G37*
G36*
X79658Y40451D02*
X79342D01*
X79036Y40369D01*
X78763Y40211D01*
X78539Y39987D01*
X78381Y39714D01*
X78366Y39659D01*
X77353D01*
X77196Y39628D01*
X77064Y39539D01*
X72736Y35211D01*
X72647Y35079D01*
X72616Y34922D01*
Y32134D01*
X72549Y31972D01*
Y31782D01*
X72589Y31687D01*
X72504Y31560D01*
X71018D01*
X68841Y33737D01*
X68869Y33786D01*
X68951Y34092D01*
Y34408D01*
X68869Y34714D01*
X68711Y34987D01*
X68487Y35211D01*
X68214Y35369D01*
X67908Y35451D01*
X67592D01*
X67286Y35369D01*
X67013Y35211D01*
X66789Y34987D01*
X66631Y34714D01*
X66549Y34408D01*
Y34092D01*
X66631Y33786D01*
X66789Y33513D01*
X67013Y33289D01*
X67286Y33131D01*
X67592Y33049D01*
X67908D01*
X68214Y33131D01*
X68263Y33159D01*
X70560Y30862D01*
X70693Y30773D01*
X70750Y30762D01*
X70737Y30635D01*
X67443D01*
X64341Y33737D01*
X64369Y33786D01*
X64451Y34092D01*
Y34408D01*
X64369Y34714D01*
X64211Y34987D01*
X63987Y35211D01*
X63714Y35369D01*
X63408Y35451D01*
X63092D01*
X62786Y35369D01*
X62513Y35211D01*
X62289Y34987D01*
X62131Y34714D01*
X62049Y34408D01*
Y34092D01*
X62131Y33786D01*
X62289Y33513D01*
X62513Y33289D01*
X62786Y33131D01*
X63092Y33049D01*
X63408D01*
X63714Y33131D01*
X63763Y33159D01*
X66985Y29937D01*
X67118Y29848D01*
X67274Y29817D01*
X79206D01*
X79412Y29610D01*
X79479Y29448D01*
X79613Y29314D01*
X79788Y29242D01*
X79978D01*
X80073Y29282D01*
X80200Y29197D01*
Y26565D01*
X79649Y26014D01*
X79643Y26006D01*
X79613Y25994D01*
X79479Y25860D01*
X79407Y25685D01*
Y25495D01*
X79479Y25320D01*
X79613Y25186D01*
X79788Y25114D01*
X79938D01*
X79999Y24996D01*
X76997Y21994D01*
X76908Y21861D01*
X76877Y21704D01*
Y17822D01*
X73688Y14633D01*
X65320D01*
X56550Y23403D01*
X56417Y23492D01*
X56261Y23523D01*
X30610D01*
X30448Y23590D01*
X30258D01*
X30083Y23518D01*
X29949Y23384D01*
X29877Y23209D01*
Y23019D01*
X29888Y22993D01*
X29817Y22888D01*
X27181D01*
X27019Y22955D01*
X26829D01*
X26654Y22883D01*
X26520Y22749D01*
X26448Y22574D01*
Y22384D01*
X26520Y22209D01*
X26604Y22126D01*
X26551Y21999D01*
X24622D01*
X24460Y22066D01*
X24270D01*
X24095Y21994D01*
X23961Y21860D01*
X23889Y21685D01*
Y21495D01*
X23961Y21320D01*
X24095Y21186D01*
X24270Y21114D01*
X24460D01*
X24622Y21181D01*
X53806D01*
X63846Y11141D01*
X63979Y11052D01*
X64135Y11021D01*
X76542D01*
X76699Y11052D01*
X76831Y11141D01*
X79327Y13637D01*
X79416Y13770D01*
X79447Y13926D01*
Y20906D01*
X81647Y23106D01*
X81676D01*
X81851Y23178D01*
X81985Y23312D01*
X82058Y23487D01*
Y23676D01*
X81985Y23851D01*
X81851Y23985D01*
X81830Y24131D01*
X81904Y24204D01*
X81976Y24379D01*
Y24569D01*
X81904Y24744D01*
X81770Y24878D01*
X81595Y24950D01*
X81405D01*
X81230Y24878D01*
X81096Y24744D01*
X81058Y24651D01*
X81029Y24622D01*
X80992Y24597D01*
X77890Y21495D01*
X77746Y21531D01*
X77739Y21554D01*
X77744Y21584D01*
X81762Y25602D01*
X81924Y25669D01*
X82058Y25803D01*
X82130Y25978D01*
Y26167D01*
X82058Y26342D01*
X81924Y26476D01*
X81749Y26549D01*
X81559D01*
X81384Y26476D01*
X81251Y26342D01*
X81183Y26180D01*
X80571Y25568D01*
X80436Y25612D01*
X80432Y25641D01*
X80898Y26107D01*
X80987Y26240D01*
X81018Y26396D01*
Y30019D01*
X80987Y30175D01*
X80898Y30308D01*
X79922Y31284D01*
X79971Y31401D01*
X79978D01*
X80140Y31468D01*
X83436D01*
X83598Y31401D01*
X83788D01*
X83963Y31473D01*
X84097Y31607D01*
X84169Y31782D01*
Y31972D01*
X84097Y32147D01*
X83963Y32281D01*
X83788Y32353D01*
X83598D01*
X83436Y32286D01*
X80140D01*
X79978Y32353D01*
X79788D01*
X79613Y32281D01*
X79479Y32147D01*
X79407Y31972D01*
Y31782D01*
X79447Y31687D01*
X79362Y31560D01*
X73546D01*
X73461Y31687D01*
X73501Y31782D01*
Y31972D01*
X73434Y32134D01*
Y33257D01*
X73519Y33349D01*
X75321D01*
Y35151D01*
X73998D01*
X73949Y35268D01*
X77522Y38841D01*
X78366D01*
X78381Y38786D01*
X78539Y38513D01*
X78763Y38289D01*
X79036Y38131D01*
X79342Y38049D01*
X79658D01*
X79964Y38131D01*
X80237Y38289D01*
X80461Y38513D01*
X80619Y38786D01*
X80701Y39092D01*
Y39408D01*
X80619Y39714D01*
X80461Y39987D01*
X80237Y40211D01*
X79964Y40369D01*
X79658Y40451D01*
D02*
G37*
G36*
X127908Y38451D02*
X127592D01*
X127286Y38369D01*
X127013Y38211D01*
X126789Y37987D01*
X126631Y37714D01*
X126549Y37408D01*
Y37092D01*
X126631Y36786D01*
X126789Y36513D01*
X127013Y36289D01*
X127286Y36131D01*
X127592Y36049D01*
X127908D01*
X128214Y36131D01*
X128487Y36289D01*
X128711Y36513D01*
X128869Y36786D01*
X128951Y37092D01*
Y37408D01*
X128869Y37714D01*
X128711Y37987D01*
X128487Y38211D01*
X128214Y38369D01*
X127908Y38451D01*
D02*
G37*
G36*
X28023D02*
X27707D01*
X27401Y38369D01*
X27128Y38211D01*
X26904Y37987D01*
X26746Y37714D01*
X26664Y37408D01*
Y37092D01*
X26746Y36786D01*
X26904Y36513D01*
X27128Y36289D01*
X27401Y36131D01*
X27707Y36049D01*
X28023D01*
X28329Y36131D01*
X28602Y36289D01*
X28826Y36513D01*
X28984Y36786D01*
X29066Y37092D01*
Y37408D01*
X28984Y37714D01*
X28826Y37987D01*
X28602Y38211D01*
X28329Y38369D01*
X28023Y38451D01*
D02*
G37*
G36*
X98165Y36750D02*
X98100D01*
Y35600D01*
X99250D01*
Y35665D01*
X99165Y35982D01*
X99000Y36268D01*
X98768Y36500D01*
X98482Y36665D01*
X98165Y36750D01*
D02*
G37*
G36*
X97900D02*
X97835D01*
X97518Y36665D01*
X97232Y36500D01*
X97000Y36268D01*
X96835Y35982D01*
X96750Y35665D01*
Y35600D01*
X97900D01*
Y36750D01*
D02*
G37*
G36*
X79625Y35200D02*
X79600D01*
Y34350D01*
X80450D01*
Y34375D01*
X80385Y34617D01*
X80260Y34833D01*
X80083Y35010D01*
X79867Y35135D01*
X79625Y35200D01*
D02*
G37*
G36*
X79400D02*
X79375D01*
X79133Y35135D01*
X78917Y35010D01*
X78740Y34833D01*
X78615Y34617D01*
X78550Y34375D01*
Y34350D01*
X79400D01*
Y35200D01*
D02*
G37*
G36*
X99250Y35400D02*
X98100D01*
Y34250D01*
X98165D01*
X98482Y34335D01*
X98768Y34500D01*
X99000Y34732D01*
X99165Y35018D01*
X99250Y35335D01*
Y35400D01*
D02*
G37*
G36*
X97900D02*
X96750D01*
Y35335D01*
X96835Y35018D01*
X97000Y34732D01*
X97232Y34500D01*
X97518Y34335D01*
X97835Y34250D01*
X97900D01*
Y35400D01*
D02*
G37*
G36*
X48171Y35349D02*
X48106D01*
Y34199D01*
X49256D01*
Y34264D01*
X49171Y34581D01*
X49006Y34867D01*
X48774Y35099D01*
X48488Y35264D01*
X48171Y35349D01*
D02*
G37*
G36*
X47906D02*
X47841D01*
X47524Y35264D01*
X47238Y35099D01*
X47006Y34867D01*
X46841Y34581D01*
X46756Y34264D01*
Y34199D01*
X47906D01*
Y35349D01*
D02*
G37*
G36*
X15408Y35951D02*
X15092D01*
X14786Y35869D01*
X14513Y35711D01*
X14289Y35487D01*
X14131Y35214D01*
X14049Y34908D01*
Y34592D01*
X14131Y34286D01*
X14289Y34013D01*
X14513Y33789D01*
X14786Y33631D01*
X15092Y33549D01*
X15408D01*
X15714Y33631D01*
X15987Y33789D01*
X16211Y34013D01*
X16369Y34286D01*
X16451Y34592D01*
Y34908D01*
X16369Y35214D01*
X16211Y35487D01*
X15987Y35711D01*
X15714Y35869D01*
X15408Y35951D01*
D02*
G37*
G36*
X87239Y35151D02*
X87001D01*
X86772Y35090D01*
X86567Y34971D01*
X86399Y34803D01*
X86280Y34598D01*
X86219Y34369D01*
Y34131D01*
X86280Y33902D01*
X86399Y33697D01*
X86567Y33529D01*
X86772Y33410D01*
X87001Y33349D01*
X87239D01*
X87468Y33410D01*
X87673Y33529D01*
X87841Y33697D01*
X87960Y33902D01*
X88021Y34131D01*
Y34369D01*
X87960Y34598D01*
X87841Y34803D01*
X87673Y34971D01*
X87468Y35090D01*
X87239Y35151D01*
D02*
G37*
G36*
X84699D02*
X84461D01*
X84232Y35090D01*
X84027Y34971D01*
X83859Y34803D01*
X83740Y34598D01*
X83679Y34369D01*
Y34131D01*
X83740Y33902D01*
X83859Y33697D01*
X84027Y33529D01*
X84232Y33410D01*
X84461Y33349D01*
X84699D01*
X84928Y33410D01*
X85133Y33529D01*
X85301Y33697D01*
X85420Y33902D01*
X85481Y34131D01*
Y34369D01*
X85420Y34598D01*
X85301Y34803D01*
X85133Y34971D01*
X84928Y35090D01*
X84699Y35151D01*
D02*
G37*
G36*
X82159D02*
X81921D01*
X81692Y35090D01*
X81487Y34971D01*
X81319Y34803D01*
X81200Y34598D01*
X81139Y34369D01*
Y34131D01*
X81200Y33902D01*
X81319Y33697D01*
X81487Y33529D01*
X81692Y33410D01*
X81921Y33349D01*
X82159D01*
X82388Y33410D01*
X82593Y33529D01*
X82761Y33697D01*
X82880Y33902D01*
X82941Y34131D01*
Y34369D01*
X82880Y34598D01*
X82761Y34803D01*
X82593Y34971D01*
X82388Y35090D01*
X82159Y35151D01*
D02*
G37*
G36*
X77079D02*
X76841D01*
X76612Y35090D01*
X76407Y34971D01*
X76239Y34803D01*
X76120Y34598D01*
X76059Y34369D01*
Y34131D01*
X76120Y33902D01*
X76239Y33697D01*
X76407Y33529D01*
X76612Y33410D01*
X76841Y33349D01*
X77079D01*
X77308Y33410D01*
X77513Y33529D01*
X77681Y33697D01*
X77800Y33902D01*
X77861Y34131D01*
Y34369D01*
X77800Y34598D01*
X77681Y34803D01*
X77513Y34971D01*
X77308Y35090D01*
X77079Y35151D01*
D02*
G37*
G36*
X80450Y34150D02*
X79600D01*
Y33300D01*
X79625D01*
X79867Y33365D01*
X80083Y33490D01*
X80260Y33667D01*
X80385Y33883D01*
X80450Y34125D01*
Y34150D01*
D02*
G37*
G36*
X79400D02*
X78550D01*
Y34125D01*
X78615Y33883D01*
X78740Y33667D01*
X78917Y33490D01*
X79133Y33365D01*
X79375Y33300D01*
X79400D01*
Y34150D01*
D02*
G37*
G36*
X54658Y35451D02*
X54342D01*
X54036Y35369D01*
X53763Y35211D01*
X53539Y34987D01*
X53381Y34714D01*
X53299Y34408D01*
Y34092D01*
X53381Y33786D01*
X53539Y33513D01*
X53763Y33289D01*
X54036Y33131D01*
X54342Y33049D01*
X54658D01*
X54964Y33131D01*
X55237Y33289D01*
X55461Y33513D01*
X55619Y33786D01*
X55701Y34092D01*
Y34408D01*
X55619Y34714D01*
X55461Y34987D01*
X55237Y35211D01*
X54964Y35369D01*
X54658Y35451D01*
D02*
G37*
G36*
X49256Y33999D02*
X48106D01*
Y32849D01*
X48171D01*
X48488Y32934D01*
X48774Y33099D01*
X49006Y33331D01*
X49171Y33617D01*
X49256Y33934D01*
Y33999D01*
D02*
G37*
G36*
X47906D02*
X46756D01*
Y33934D01*
X46841Y33617D01*
X47006Y33331D01*
X47238Y33099D01*
X47524Y32934D01*
X47841Y32849D01*
X47906D01*
Y33999D01*
D02*
G37*
G36*
X93158Y33451D02*
X92842D01*
X92536Y33369D01*
X92263Y33211D01*
X92039Y32987D01*
X91881Y32714D01*
X91799Y32408D01*
Y32092D01*
X91881Y31786D01*
X92039Y31513D01*
X92263Y31289D01*
X92536Y31131D01*
X92842Y31049D01*
X93158D01*
X93464Y31131D01*
X93737Y31289D01*
X93961Y31513D01*
X94119Y31786D01*
X94201Y32092D01*
Y32408D01*
X94119Y32714D01*
X93961Y32987D01*
X93737Y33211D01*
X93464Y33369D01*
X93158Y33451D01*
D02*
G37*
G36*
Y29608D02*
X92842D01*
X92536Y29526D01*
X92263Y29368D01*
X92039Y29145D01*
X91881Y28871D01*
X91799Y28565D01*
Y28249D01*
X91881Y27944D01*
X92039Y27670D01*
X92263Y27446D01*
X92536Y27288D01*
X92842Y27206D01*
X93158D01*
X93464Y27288D01*
X93737Y27446D01*
X93961Y27670D01*
X94119Y27944D01*
X94201Y28249D01*
Y28565D01*
X94119Y28871D01*
X93961Y29145D01*
X93737Y29368D01*
X93464Y29526D01*
X93158Y29608D01*
D02*
G37*
G36*
X128888Y28955D02*
X127086D01*
Y27153D01*
X128888D01*
Y28955D01*
D02*
G37*
G36*
X3478Y29551D02*
X3122D01*
X2779Y29459D01*
X2470Y29281D01*
X2219Y29030D01*
X2041Y28721D01*
X1949Y28378D01*
Y28022D01*
X2041Y27679D01*
X2219Y27370D01*
X2470Y27119D01*
X2779Y26941D01*
X3122Y26849D01*
X3478D01*
X3821Y26941D01*
X4130Y27119D01*
X4381Y27370D01*
X4559Y27679D01*
X4651Y28022D01*
Y28378D01*
X4559Y28721D01*
X4381Y29030D01*
X4130Y29281D01*
X3821Y29459D01*
X3478Y29551D01*
D02*
G37*
G36*
X128106Y26415D02*
X127869D01*
X127640Y26354D01*
X127434Y26235D01*
X127266Y26068D01*
X127148Y25862D01*
X127086Y25633D01*
Y25396D01*
X127148Y25167D01*
X127266Y24961D01*
X127434Y24793D01*
X127640Y24675D01*
X127869Y24613D01*
X128106D01*
X128335Y24675D01*
X128541Y24793D01*
X128708Y24961D01*
X128827Y25167D01*
X128888Y25396D01*
Y25633D01*
X128827Y25862D01*
X128708Y26068D01*
X128541Y26235D01*
X128335Y26354D01*
X128106Y26415D01*
D02*
G37*
G36*
X10168Y26808D02*
X5549D01*
Y24474D01*
X10168D01*
Y26808D01*
D02*
G37*
G36*
X31000Y52157D02*
X18425D01*
X18255Y52134D01*
X18097Y52069D01*
X17961Y51964D01*
X17911Y51914D01*
X17806Y51778D01*
X17741Y51620D01*
X17718Y51450D01*
X17741Y51280D01*
X17806Y51122D01*
X17911Y50986D01*
X18047Y50881D01*
X18205Y50816D01*
X18375Y50793D01*
X18545Y50816D01*
X18612Y50843D01*
X30728D01*
X34036Y47536D01*
X34172Y47431D01*
X34330Y47366D01*
X34500Y47343D01*
X56466D01*
X56516Y47216D01*
X56480Y47183D01*
X53399D01*
X53243Y47152D01*
X53110Y47063D01*
X52461Y46414D01*
X52372Y46281D01*
X52341Y46125D01*
Y41858D01*
X52372Y41701D01*
X52461Y41569D01*
X53869Y40161D01*
X54001Y40072D01*
X54158Y40041D01*
X55618D01*
X55780Y39974D01*
X55970D01*
X56145Y40046D01*
X56279Y40180D01*
X56351Y40355D01*
Y40545D01*
X56279Y40720D01*
X56145Y40854D01*
X55970Y40926D01*
X55780D01*
X55618Y40859D01*
X54327D01*
X54117Y41069D01*
X54165Y41187D01*
X62830D01*
X62836Y41189D01*
X62941Y41118D01*
Y40519D01*
X61742Y39321D01*
X61580Y39254D01*
X61446Y39120D01*
X61374Y38945D01*
Y38755D01*
X61446Y38580D01*
X61580Y38446D01*
X61755Y38374D01*
X61945D01*
X62120Y38446D01*
X62254Y38580D01*
X62321Y38742D01*
X63639Y40061D01*
X63728Y40194D01*
X63759Y40350D01*
Y44194D01*
X63728Y44350D01*
X63639Y44483D01*
X61758Y46364D01*
X61625Y46453D01*
X61469Y46484D01*
X58282D01*
X58120Y46551D01*
X57930D01*
X57755Y46479D01*
X57621Y46345D01*
X57549Y46170D01*
Y45980D01*
X57621Y45805D01*
X57755Y45671D01*
X57930Y45599D01*
X58120D01*
X58282Y45666D01*
X61300D01*
X62538Y44428D01*
X62489Y44311D01*
X53825D01*
X53709Y44263D01*
X53662Y44147D01*
Y41690D01*
X53544Y41642D01*
X53159Y42027D01*
Y45956D01*
X53568Y46365D01*
X56518D01*
X56680Y46298D01*
X56870D01*
X57045Y46370D01*
X57179Y46504D01*
X57251Y46679D01*
Y46869D01*
X57179Y47044D01*
X57045Y47178D01*
X56951Y47216D01*
X56976Y47343D01*
X103228D01*
X107343Y43228D01*
Y30496D01*
X107366Y30326D01*
X107431Y30167D01*
X107536Y30031D01*
X110412Y27155D01*
X110548Y27050D01*
X110707Y26985D01*
X110877Y26962D01*
X111609D01*
X114603Y23968D01*
X114739Y23864D01*
X114898Y23798D01*
X115068Y23776D01*
X115068Y23776D01*
X125607D01*
X125777Y23798D01*
X125936Y23864D01*
X126072Y23968D01*
X126176Y24104D01*
X126242Y24262D01*
X126264Y24432D01*
X126242Y24602D01*
X126176Y24761D01*
X126072Y24897D01*
X125936Y25001D01*
X125777Y25067D01*
X125607Y25089D01*
X115340D01*
X112214Y28214D01*
X112180Y28240D01*
X112179Y28242D01*
X112217Y28362D01*
X112222Y28369D01*
X112401D01*
Y29671D01*
X111099D01*
Y28505D01*
X110972Y28452D01*
X108657Y30768D01*
Y43500D01*
X108634Y43670D01*
X108569Y43828D01*
X108464Y43964D01*
X103964Y48464D01*
X103828Y48569D01*
X103670Y48634D01*
X103500Y48657D01*
X88184D01*
X88166Y48782D01*
X88470Y48908D01*
X88732Y49108D01*
X88932Y49370D01*
X89058Y49674D01*
X89088Y49900D01*
X84492D01*
X84522Y49674D01*
X84648Y49370D01*
X84848Y49108D01*
X85110Y48908D01*
X85414Y48782D01*
X85396Y48657D01*
X78684D01*
X78666Y48782D01*
X78970Y48908D01*
X79232Y49108D01*
X79432Y49370D01*
X79558Y49674D01*
X79588Y49900D01*
X74992D01*
X75022Y49674D01*
X75148Y49370D01*
X75348Y49108D01*
X75610Y48908D01*
X75914Y48782D01*
X75896Y48657D01*
X34772D01*
X31464Y51964D01*
X31328Y52069D01*
X31170Y52134D01*
X31000Y52157D01*
D02*
G37*
G36*
X109158Y25728D02*
X108842D01*
X108536Y25646D01*
X108263Y25488D01*
X108039Y25264D01*
X107881Y24990D01*
X107799Y24685D01*
Y24369D01*
X107881Y24063D01*
X108039Y23789D01*
X108263Y23566D01*
X108536Y23408D01*
X108842Y23326D01*
X109158D01*
X109464Y23408D01*
X109737Y23566D01*
X109961Y23789D01*
X110119Y24063D01*
X110201Y24369D01*
Y24685D01*
X110119Y24990D01*
X109961Y25264D01*
X109737Y25488D01*
X109464Y25646D01*
X109158Y25728D01*
D02*
G37*
G36*
X93158D02*
X92842D01*
X92536Y25646D01*
X92263Y25488D01*
X92039Y25264D01*
X91881Y24990D01*
X91799Y24685D01*
Y24369D01*
X91881Y24063D01*
X92039Y23789D01*
X92263Y23566D01*
X92536Y23408D01*
X92842Y23326D01*
X93158D01*
X93464Y23408D01*
X93737Y23566D01*
X93961Y23789D01*
X94119Y24063D01*
X94201Y24369D01*
Y24685D01*
X94119Y24990D01*
X93961Y25264D01*
X93737Y25488D01*
X93464Y25646D01*
X93158Y25728D01*
D02*
G37*
G36*
X64611Y24352D02*
X64421D01*
X64246Y24280D01*
X64112Y24146D01*
X64040Y23971D01*
Y23781D01*
X64112Y23606D01*
X64136Y23583D01*
Y22988D01*
X64167Y22831D01*
X64256Y22698D01*
X65538Y21416D01*
X65671Y21327D01*
X65827Y21296D01*
X67493D01*
X67655Y21229D01*
X67845D01*
X68020Y21301D01*
X68154Y21435D01*
X68226Y21610D01*
Y21800D01*
X68154Y21975D01*
X68020Y22109D01*
X67845Y22181D01*
X67655D01*
X67493Y22114D01*
X65997D01*
X65398Y22712D01*
X65451Y22839D01*
X65540D01*
X65702Y22906D01*
X69720D01*
X69882Y22839D01*
X70072D01*
X70247Y22912D01*
X70381Y23046D01*
X70453Y23221D01*
Y23410D01*
X70381Y23585D01*
X70247Y23719D01*
X70072Y23791D01*
X69882D01*
X69720Y23724D01*
X65702D01*
X65540Y23791D01*
X65350D01*
X65175Y23719D01*
X65166Y23710D01*
X65013Y23736D01*
X64992Y23781D01*
Y23971D01*
X64920Y24146D01*
X64786Y24280D01*
X64611Y24352D01*
D02*
G37*
G36*
X3478Y24551D02*
X3122D01*
X2779Y24459D01*
X2470Y24281D01*
X2219Y24030D01*
X2041Y23721D01*
X1949Y23378D01*
Y23022D01*
X2041Y22679D01*
X2219Y22370D01*
X2470Y22119D01*
X2779Y21941D01*
X3122Y21849D01*
X3478D01*
X3821Y21941D01*
X4130Y22119D01*
X4381Y22370D01*
X4559Y22679D01*
X4651Y23022D01*
Y23378D01*
X4559Y23721D01*
X4381Y24030D01*
X4130Y24281D01*
X3821Y24459D01*
X3478Y24551D01*
D02*
G37*
G36*
X90265Y29686D02*
X90075D01*
X89900Y29614D01*
X89766Y29480D01*
X89699Y29318D01*
X88992Y28610D01*
X88903Y28477D01*
X88872Y28321D01*
Y18953D01*
X88903Y18797D01*
X88958Y18714D01*
Y18705D01*
X89031Y18530D01*
X89165Y18396D01*
X89340Y18324D01*
X89529D01*
X89704Y18396D01*
X89838Y18530D01*
X89910Y18705D01*
Y18895D01*
X89838Y19070D01*
X89704Y19204D01*
X89690Y19209D01*
Y23503D01*
X89817Y23556D01*
X89900Y23472D01*
X90062Y23405D01*
X93357Y20111D01*
X93490Y20022D01*
X93646Y19991D01*
X97933D01*
X98095Y19924D01*
X98285D01*
X98460Y19996D01*
X98594Y20130D01*
X98666Y20305D01*
Y20495D01*
X98594Y20670D01*
X98460Y20804D01*
X98285Y20876D01*
X98095D01*
X97933Y20809D01*
X93815D01*
X90641Y23984D01*
X90574Y24146D01*
X90440Y24280D01*
X90265Y24352D01*
X90075D01*
X89900Y24280D01*
X89817Y24196D01*
X89690Y24249D01*
Y28152D01*
X90278Y28739D01*
X90440Y28806D01*
X90574Y28940D01*
X90646Y29115D01*
Y29305D01*
X90574Y29480D01*
X90440Y29614D01*
X90265Y29686D01*
D02*
G37*
G36*
X15415Y21000D02*
X15350D01*
Y19850D01*
X16500D01*
Y19915D01*
X16415Y20232D01*
X16250Y20518D01*
X16018Y20750D01*
X15732Y20915D01*
X15415Y21000D01*
D02*
G37*
G36*
X15150D02*
X15085D01*
X14768Y20915D01*
X14482Y20750D01*
X14250Y20518D01*
X14085Y20232D01*
X14000Y19915D01*
Y19850D01*
X15150D01*
Y21000D01*
D02*
G37*
G36*
X58658Y35451D02*
X58342D01*
X58036Y35369D01*
X57763Y35211D01*
X57539Y34987D01*
X57381Y34714D01*
X57299Y34408D01*
Y34092D01*
X57381Y33786D01*
X57539Y33513D01*
X57763Y33289D01*
X58036Y33131D01*
X58091Y33116D01*
Y32596D01*
X55985Y30490D01*
X55896Y30357D01*
X55865Y30200D01*
Y28810D01*
X55896Y28653D01*
X55985Y28521D01*
X65377Y19128D01*
X65510Y19040D01*
X65667Y19008D01*
X69943D01*
X70105Y18941D01*
X70295D01*
X70470Y19014D01*
X70604Y19148D01*
X70676Y19323D01*
Y19512D01*
X70604Y19687D01*
X70506Y19784D01*
X70558Y19911D01*
X73420D01*
X73485Y19924D01*
X73595D01*
X73770Y19996D01*
X73904Y20130D01*
X73976Y20305D01*
Y20495D01*
X73904Y20670D01*
X73770Y20804D01*
X73595Y20876D01*
X73405D01*
X73230Y20804D01*
X73156Y20729D01*
X65960D01*
X57471Y29218D01*
X57404Y29380D01*
X57270Y29514D01*
X57095Y29587D01*
X56905D01*
X56810Y29547D01*
X56683Y29632D01*
Y30031D01*
X58789Y32137D01*
X58878Y32270D01*
X58909Y32426D01*
Y33116D01*
X58964Y33131D01*
X59237Y33289D01*
X59461Y33513D01*
X59619Y33786D01*
X59701Y34092D01*
Y34408D01*
X59619Y34714D01*
X59461Y34987D01*
X59237Y35211D01*
X58964Y35369D01*
X58658Y35451D01*
D02*
G37*
G36*
X10158Y20951D02*
X9842D01*
X9536Y20869D01*
X9263Y20711D01*
X9039Y20487D01*
X8881Y20214D01*
X8799Y19908D01*
Y19592D01*
X8881Y19286D01*
X9039Y19013D01*
X9263Y18789D01*
X9536Y18631D01*
X9842Y18549D01*
X10158D01*
X10464Y18631D01*
X10737Y18789D01*
X10961Y19013D01*
X11119Y19286D01*
X11201Y19592D01*
Y19908D01*
X11119Y20214D01*
X10961Y20487D01*
X10737Y20711D01*
X10464Y20869D01*
X10158Y20951D01*
D02*
G37*
G36*
X16500Y19650D02*
X15350D01*
Y18500D01*
X15415D01*
X15732Y18585D01*
X16018Y18750D01*
X16250Y18982D01*
X16415Y19268D01*
X16500Y19585D01*
Y19650D01*
D02*
G37*
G36*
X15150D02*
X14000D01*
Y19585D01*
X14085Y19268D01*
X14250Y18982D01*
X14482Y18750D01*
X14768Y18585D01*
X15085Y18500D01*
X15150D01*
Y19650D01*
D02*
G37*
G36*
X4151Y20226D02*
X2349D01*
Y18424D01*
X4151D01*
Y20226D01*
D02*
G37*
G36*
X61182Y22066D02*
X60992D01*
X60817Y21994D01*
X60683Y21860D01*
X60611Y21685D01*
Y21495D01*
X60683Y21320D01*
X60817Y21186D01*
X60979Y21119D01*
X64735Y17364D01*
X64868Y17275D01*
X65024Y17244D01*
X74930D01*
X75086Y17275D01*
X75129Y17304D01*
X75152D01*
X75327Y17376D01*
X75461Y17510D01*
X75533Y17685D01*
Y17875D01*
X75461Y18050D01*
X75327Y18184D01*
X75152Y18256D01*
X74962D01*
X74787Y18184D01*
X74666Y18062D01*
X65193D01*
X61558Y21698D01*
X61491Y21860D01*
X61357Y21994D01*
X61182Y22066D01*
D02*
G37*
G36*
X92165Y15250D02*
X92100D01*
Y14100D01*
X93250D01*
Y14165D01*
X93165Y14482D01*
X93000Y14768D01*
X92768Y15000D01*
X92482Y15165D01*
X92165Y15250D01*
D02*
G37*
G36*
X91900D02*
X91835D01*
X91518Y15165D01*
X91232Y15000D01*
X91000Y14768D01*
X90835Y14482D01*
X90750Y14165D01*
Y14100D01*
X91900D01*
Y15250D01*
D02*
G37*
G36*
X93250Y13900D02*
X92100D01*
Y12750D01*
X92165D01*
X92482Y12835D01*
X92768Y13000D01*
X93000Y13232D01*
X93165Y13518D01*
X93250Y13835D01*
Y13900D01*
D02*
G37*
G36*
X91900D02*
X90750D01*
Y13835D01*
X90835Y13518D01*
X91000Y13232D01*
X91232Y13000D01*
X91518Y12835D01*
X91835Y12750D01*
X91900D01*
Y13900D01*
D02*
G37*
G36*
X116080Y17598D02*
X115566Y17558D01*
X115064Y17437D01*
X114587Y17240D01*
X114147Y16970D01*
X113755Y16635D01*
X113420Y16243D01*
X113150Y15803D01*
X112953Y15326D01*
X112832Y14824D01*
X112792Y14310D01*
X112832Y13796D01*
X112953Y13294D01*
X113150Y12817D01*
X113420Y12377D01*
X113755Y11985D01*
X114147Y11650D01*
X114587Y11380D01*
X115064Y11183D01*
X115566Y11062D01*
X116080Y11022D01*
X116594Y11062D01*
X117096Y11183D01*
X117573Y11380D01*
X118013Y11650D01*
X118405Y11985D01*
X118740Y12377D01*
X119010Y12817D01*
X119207Y13294D01*
X119328Y13796D01*
X119368Y14310D01*
X119328Y14824D01*
X119207Y15326D01*
X119010Y15803D01*
X118740Y16243D01*
X118405Y16635D01*
X118013Y16970D01*
X117573Y17240D01*
X117096Y17437D01*
X116594Y17558D01*
X116080Y17598D01*
D02*
G37*
G36*
X14580D02*
X14066Y17558D01*
X13564Y17437D01*
X13087Y17240D01*
X12647Y16970D01*
X12255Y16635D01*
X11920Y16243D01*
X11650Y15803D01*
X11453Y15326D01*
X11332Y14824D01*
X11292Y14310D01*
X11332Y13796D01*
X11453Y13294D01*
X11650Y12817D01*
X11920Y12377D01*
X12255Y11985D01*
X12647Y11650D01*
X13087Y11380D01*
X13564Y11183D01*
X14066Y11062D01*
X14580Y11022D01*
X15094Y11062D01*
X15596Y11183D01*
X16073Y11380D01*
X16513Y11650D01*
X16905Y11985D01*
X17240Y12377D01*
X17510Y12817D01*
X17707Y13294D01*
X17828Y13796D01*
X17868Y14310D01*
X17828Y14824D01*
X17707Y15326D01*
X17510Y15803D01*
X17240Y16243D01*
X16905Y16635D01*
X16513Y16970D01*
X16073Y17240D01*
X15596Y17437D01*
X15094Y17558D01*
X14580Y17598D01*
D02*
G37*
G36*
X51284Y13190D02*
X18480D01*
Y10349D01*
X51284D01*
Y13190D01*
D02*
G37*
G36*
X21939Y22066D02*
X21749D01*
X21574Y21994D01*
X21440Y21860D01*
X21368Y21685D01*
Y21495D01*
X21440Y21320D01*
X21574Y21186D01*
X21736Y21119D01*
X23120Y19736D01*
X23253Y19647D01*
X23409Y19616D01*
X53593D01*
X63592Y9617D01*
X63725Y9528D01*
X63881Y9497D01*
X78082D01*
X78239Y9528D01*
X78372Y9617D01*
X85669Y16914D01*
X85758Y17047D01*
X85789Y17204D01*
Y17743D01*
X85856Y17905D01*
Y18095D01*
X85784Y18270D01*
X85650Y18404D01*
X85475Y18476D01*
X85285D01*
X85110Y18404D01*
X84976Y18270D01*
X84904Y18095D01*
Y17905D01*
X84971Y17743D01*
Y17373D01*
X77913Y10315D01*
X64050D01*
X54051Y20314D01*
X53918Y20403D01*
X53762Y20434D01*
X23578D01*
X22315Y21698D01*
X22248Y21860D01*
X22114Y21994D01*
X21939Y22066D01*
D02*
G37*
G36*
X3369Y8576D02*
X3131D01*
X2902Y8515D01*
X2697Y8396D01*
X2529Y8228D01*
X2410Y8023D01*
X2349Y7794D01*
Y7556D01*
X2410Y7327D01*
X2529Y7122D01*
X2697Y6954D01*
X2902Y6835D01*
X3131Y6774D01*
X3369D01*
X3598Y6835D01*
X3803Y6954D01*
X3971Y7122D01*
X4090Y7327D01*
X4151Y7556D01*
Y7794D01*
X4090Y8023D01*
X3971Y8228D01*
X3803Y8396D01*
X3598Y8515D01*
X3369Y8576D01*
D02*
G37*
G36*
X127265Y3764D02*
X126909D01*
X126566Y3672D01*
X126257Y3494D01*
X126006Y3243D01*
X125828Y2934D01*
X125736Y2591D01*
Y2235D01*
X125828Y1892D01*
X126006Y1583D01*
X126257Y1332D01*
X126566Y1154D01*
X126909Y1062D01*
X127265D01*
X127608Y1154D01*
X127917Y1332D01*
X128168Y1583D01*
X128346Y1892D01*
X128438Y2235D01*
Y2591D01*
X128346Y2934D01*
X128168Y3243D01*
X127917Y3494D01*
X127608Y3672D01*
X127265Y3764D01*
D02*
G37*
G36*
X122265D02*
X121909D01*
X121566Y3672D01*
X121257Y3494D01*
X121006Y3243D01*
X120828Y2934D01*
X120736Y2591D01*
Y2235D01*
X120828Y1892D01*
X121006Y1583D01*
X121257Y1332D01*
X121566Y1154D01*
X121909Y1062D01*
X122265D01*
X122608Y1154D01*
X122917Y1332D01*
X123168Y1583D01*
X123346Y1892D01*
X123438Y2235D01*
Y2591D01*
X123346Y2934D01*
X123168Y3243D01*
X122917Y3494D01*
X122608Y3672D01*
X122265Y3764D01*
D02*
G37*
G36*
X116909D02*
X116553D01*
X116210Y3672D01*
X115901Y3494D01*
X115650Y3243D01*
X115472Y2934D01*
X115380Y2591D01*
Y2235D01*
X115472Y1892D01*
X115650Y1583D01*
X115901Y1332D01*
X116210Y1154D01*
X116553Y1062D01*
X116909D01*
X117252Y1154D01*
X117561Y1332D01*
X117812Y1583D01*
X117990Y1892D01*
X118082Y2235D01*
Y2591D01*
X117990Y2934D01*
X117812Y3243D01*
X117561Y3494D01*
X117252Y3672D01*
X116909Y3764D01*
D02*
G37*
G36*
X111909D02*
X111553D01*
X111210Y3672D01*
X110901Y3494D01*
X110650Y3243D01*
X110472Y2934D01*
X110380Y2591D01*
Y2235D01*
X110472Y1892D01*
X110650Y1583D01*
X110901Y1332D01*
X111210Y1154D01*
X111553Y1062D01*
X111909D01*
X112252Y1154D01*
X112561Y1332D01*
X112812Y1583D01*
X112990Y1892D01*
X113082Y2235D01*
Y2591D01*
X112990Y2934D01*
X112812Y3243D01*
X112561Y3494D01*
X112252Y3672D01*
X111909Y3764D01*
D02*
G37*
G36*
X58039Y13846D02*
X57844Y13807D01*
X57678Y13696D01*
X57567Y13530D01*
X57528Y13335D01*
X57567Y13140D01*
X57678Y12974D01*
X63381Y7270D01*
X63547Y7160D01*
X63742Y7121D01*
X100146D01*
X104968Y2299D01*
Y2235D01*
X105060Y1892D01*
X105238Y1583D01*
X105489Y1332D01*
X105797Y1154D01*
X106141Y1062D01*
X106497D01*
X106840Y1154D01*
X107148Y1332D01*
X107400Y1583D01*
X107578Y1892D01*
X107670Y2235D01*
Y2591D01*
X107578Y2934D01*
X107400Y3243D01*
X107148Y3494D01*
X106840Y3672D01*
X106497Y3764D01*
X106141D01*
X105797Y3672D01*
X105489Y3494D01*
X105353Y3358D01*
X100719Y7993D01*
X100553Y8104D01*
X100357Y8142D01*
X63954D01*
X58400Y13696D01*
X58234Y13807D01*
X58039Y13846D01*
D02*
G37*
G36*
X101497Y3764D02*
X101141D01*
X100797Y3672D01*
X100489Y3494D01*
X100238Y3243D01*
X100060Y2934D01*
X99968Y2591D01*
Y2235D01*
X100060Y1892D01*
X100238Y1583D01*
X100489Y1332D01*
X100797Y1154D01*
X101141Y1062D01*
X101497D01*
X101840Y1154D01*
X102148Y1332D01*
X102400Y1583D01*
X102578Y1892D01*
X102670Y2235D01*
Y2591D01*
X102578Y2934D01*
X102400Y3243D01*
X102148Y3494D01*
X101840Y3672D01*
X101497Y3764D01*
D02*
G37*
G36*
X83478D02*
X83122D01*
X82779Y3672D01*
X82470Y3494D01*
X82219Y3243D01*
X82041Y2934D01*
X81949Y2591D01*
Y2235D01*
X82041Y1892D01*
X82219Y1583D01*
X82470Y1332D01*
X82779Y1154D01*
X83122Y1062D01*
X83478D01*
X83821Y1154D01*
X84130Y1332D01*
X84381Y1583D01*
X84559Y1892D01*
X84651Y2235D01*
Y2591D01*
X84559Y2934D01*
X84381Y3243D01*
X84130Y3494D01*
X83821Y3672D01*
X83478Y3764D01*
D02*
G37*
G36*
X78478D02*
X78122D01*
X77779Y3672D01*
X77470Y3494D01*
X77219Y3243D01*
X77041Y2934D01*
X76949Y2591D01*
Y2235D01*
X77041Y1892D01*
X77219Y1583D01*
X77470Y1332D01*
X77779Y1154D01*
X78122Y1062D01*
X78478D01*
X78821Y1154D01*
X79130Y1332D01*
X79381Y1583D01*
X79559Y1892D01*
X79651Y2235D01*
Y2591D01*
X79559Y2934D01*
X79381Y3243D01*
X79130Y3494D01*
X78821Y3672D01*
X78478Y3764D01*
D02*
G37*
G36*
X70623D02*
X70267D01*
X69924Y3672D01*
X69615Y3494D01*
X69364Y3243D01*
X69186Y2934D01*
X69094Y2591D01*
Y2235D01*
X69186Y1892D01*
X69364Y1583D01*
X69615Y1332D01*
X69924Y1154D01*
X70267Y1062D01*
X70623D01*
X70966Y1154D01*
X71275Y1332D01*
X71526Y1583D01*
X71704Y1892D01*
X71796Y2235D01*
Y2591D01*
X71704Y2934D01*
X71526Y3243D01*
X71275Y3494D01*
X70966Y3672D01*
X70623Y3764D01*
D02*
G37*
G36*
X65623D02*
X65267D01*
X64924Y3672D01*
X64615Y3494D01*
X64364Y3243D01*
X64186Y2934D01*
X64094Y2591D01*
Y2235D01*
X64186Y1892D01*
X64364Y1583D01*
X64615Y1332D01*
X64924Y1154D01*
X65267Y1062D01*
X65623D01*
X65966Y1154D01*
X66275Y1332D01*
X66526Y1583D01*
X66704Y1892D01*
X66796Y2235D01*
Y2591D01*
X66704Y2934D01*
X66526Y3243D01*
X66275Y3494D01*
X65966Y3672D01*
X65623Y3764D01*
D02*
G37*
G36*
X58431D02*
X58075D01*
X57732Y3672D01*
X57423Y3494D01*
X57172Y3243D01*
X56994Y2934D01*
X56902Y2591D01*
Y2235D01*
X56994Y1892D01*
X57172Y1583D01*
X57423Y1332D01*
X57732Y1154D01*
X58075Y1062D01*
X58431D01*
X58774Y1154D01*
X59083Y1332D01*
X59334Y1583D01*
X59512Y1892D01*
X59604Y2235D01*
Y2591D01*
X59512Y2934D01*
X59334Y3243D01*
X59083Y3494D01*
X58774Y3672D01*
X58431Y3764D01*
D02*
G37*
G36*
X53431D02*
X53075D01*
X52732Y3672D01*
X52423Y3494D01*
X52172Y3243D01*
X51994Y2934D01*
X51902Y2591D01*
Y2235D01*
X51994Y1892D01*
X52172Y1583D01*
X52423Y1332D01*
X52732Y1154D01*
X53075Y1062D01*
X53431D01*
X53774Y1154D01*
X54083Y1332D01*
X54334Y1583D01*
X54512Y1892D01*
X54604Y2235D01*
Y2591D01*
X54512Y2934D01*
X54334Y3243D01*
X54083Y3494D01*
X53774Y3672D01*
X53431Y3764D01*
D02*
G37*
G36*
X47953D02*
X47597D01*
X47254Y3672D01*
X46945Y3494D01*
X46694Y3243D01*
X46516Y2934D01*
X46424Y2591D01*
Y2235D01*
X46516Y1892D01*
X46694Y1583D01*
X46945Y1332D01*
X47254Y1154D01*
X47597Y1062D01*
X47953D01*
X48296Y1154D01*
X48605Y1332D01*
X48856Y1583D01*
X49034Y1892D01*
X49126Y2235D01*
Y2591D01*
X49034Y2934D01*
X48856Y3243D01*
X48605Y3494D01*
X48296Y3672D01*
X47953Y3764D01*
D02*
G37*
G36*
X42953D02*
X42597D01*
X42254Y3672D01*
X41945Y3494D01*
X41694Y3243D01*
X41516Y2934D01*
X41424Y2591D01*
Y2235D01*
X41516Y1892D01*
X41694Y1583D01*
X41945Y1332D01*
X42254Y1154D01*
X42597Y1062D01*
X42953D01*
X43296Y1154D01*
X43605Y1332D01*
X43856Y1583D01*
X44034Y1892D01*
X44126Y2235D01*
Y2591D01*
X44034Y2934D01*
X43856Y3243D01*
X43605Y3494D01*
X43296Y3672D01*
X42953Y3764D01*
D02*
G37*
G36*
X29543D02*
X29187D01*
X28844Y3672D01*
X28535Y3494D01*
X28284Y3243D01*
X28106Y2934D01*
X28014Y2591D01*
Y2235D01*
X28106Y1892D01*
X28284Y1583D01*
X28535Y1332D01*
X28844Y1154D01*
X29187Y1062D01*
X29543D01*
X29886Y1154D01*
X30195Y1332D01*
X30446Y1583D01*
X30624Y1892D01*
X30716Y2235D01*
Y2591D01*
X30624Y2934D01*
X30446Y3243D01*
X30195Y3494D01*
X29886Y3672D01*
X29543Y3764D01*
D02*
G37*
G36*
X24543D02*
X24187D01*
X23844Y3672D01*
X23535Y3494D01*
X23284Y3243D01*
X23106Y2934D01*
X23014Y2591D01*
Y2235D01*
X23106Y1892D01*
X23284Y1583D01*
X23535Y1332D01*
X23844Y1154D01*
X24187Y1062D01*
X24543D01*
X24886Y1154D01*
X25195Y1332D01*
X25446Y1583D01*
X25624Y1892D01*
X25716Y2235D01*
Y2591D01*
X25624Y2934D01*
X25446Y3243D01*
X25195Y3494D01*
X24886Y3672D01*
X24543Y3764D01*
D02*
G37*
G36*
X18974D02*
X18618D01*
X18275Y3672D01*
X17966Y3494D01*
X17715Y3243D01*
X17537Y2934D01*
X17445Y2591D01*
Y2235D01*
X17537Y1892D01*
X17715Y1583D01*
X17966Y1332D01*
X18275Y1154D01*
X18618Y1062D01*
X18974D01*
X19317Y1154D01*
X19626Y1332D01*
X19877Y1583D01*
X20055Y1892D01*
X20147Y2235D01*
Y2591D01*
X20055Y2934D01*
X19877Y3243D01*
X19626Y3494D01*
X19317Y3672D01*
X18974Y3764D01*
D02*
G37*
G36*
X13974D02*
X13618D01*
X13275Y3672D01*
X12966Y3494D01*
X12715Y3243D01*
X12537Y2934D01*
X12445Y2591D01*
Y2235D01*
X12537Y1892D01*
X12715Y1583D01*
X12966Y1332D01*
X13275Y1154D01*
X13618Y1062D01*
X13974D01*
X14317Y1154D01*
X14626Y1332D01*
X14877Y1583D01*
X15055Y1892D01*
X15147Y2235D01*
Y2591D01*
X15055Y2934D01*
X14877Y3243D01*
X14626Y3494D01*
X14317Y3672D01*
X13974Y3764D01*
D02*
G37*
G36*
X8647Y3716D02*
X8291D01*
X7948Y3624D01*
X7639Y3446D01*
X7388Y3195D01*
X7210Y2886D01*
X7118Y2543D01*
Y2187D01*
X7210Y1844D01*
X7388Y1535D01*
X7639Y1284D01*
X7948Y1106D01*
X8291Y1014D01*
X8647D01*
X8990Y1106D01*
X9299Y1284D01*
X9550Y1535D01*
X9728Y1844D01*
X9820Y2187D01*
Y2543D01*
X9728Y2886D01*
X9550Y3195D01*
X9299Y3446D01*
X8990Y3624D01*
X8647Y3716D01*
D02*
G37*
G36*
X3647D02*
X3291D01*
X2948Y3624D01*
X2639Y3446D01*
X2388Y3195D01*
X2210Y2886D01*
X2118Y2543D01*
Y2187D01*
X2210Y1844D01*
X2388Y1535D01*
X2639Y1284D01*
X2948Y1106D01*
X3291Y1014D01*
X3647D01*
X3990Y1106D01*
X4299Y1284D01*
X4550Y1535D01*
X4728Y1844D01*
X4820Y2187D01*
Y2543D01*
X4728Y2886D01*
X4550Y3195D01*
X4299Y3446D01*
X3990Y3624D01*
X3647Y3716D01*
D02*
G37*
%LPD*%
G36*
X116505Y44994D02*
X116920Y44895D01*
X117314Y44731D01*
X117677Y44509D01*
X118002Y44232D01*
X118279Y43907D01*
X118501Y43544D01*
X118665Y43150D01*
X118764Y42735D01*
X118798Y42310D01*
X118764Y41885D01*
X118665Y41470D01*
X118501Y41076D01*
X118279Y40713D01*
X118002Y40388D01*
X117677Y40111D01*
X117314Y39889D01*
X116920Y39725D01*
X116505Y39626D01*
X116080Y39592D01*
X115655Y39626D01*
X115240Y39725D01*
X114846Y39889D01*
X114483Y40111D01*
X114158Y40388D01*
X113881Y40713D01*
X113659Y41076D01*
X113495Y41470D01*
X113396Y41885D01*
X113362Y42310D01*
X113396Y42735D01*
X113495Y43150D01*
X113659Y43544D01*
X113881Y43907D01*
X114158Y44232D01*
X114483Y44509D01*
X114846Y44731D01*
X115240Y44895D01*
X115655Y44994D01*
X116080Y45028D01*
X116505Y44994D01*
D02*
G37*
%LPC*%
G36*
X116252Y44061D02*
X115908D01*
X115569Y43994D01*
X115251Y43862D01*
X114964Y43670D01*
X114720Y43426D01*
X114528Y43139D01*
X114396Y42821D01*
X114329Y42482D01*
Y42138D01*
X114396Y41799D01*
X114528Y41481D01*
X114720Y41194D01*
X114964Y40950D01*
X115251Y40758D01*
X115569Y40626D01*
X115908Y40559D01*
X116252D01*
X116591Y40626D01*
X116909Y40758D01*
X117196Y40950D01*
X117440Y41194D01*
X117632Y41481D01*
X117764Y41799D01*
X117831Y42138D01*
Y42482D01*
X117764Y42821D01*
X117632Y43139D01*
X117440Y43426D01*
X117196Y43670D01*
X116909Y43862D01*
X116591Y43994D01*
X116252Y44061D01*
D02*
G37*
%LPD*%
G36*
X15005Y44994D02*
X15420Y44895D01*
X15814Y44731D01*
X16177Y44509D01*
X16502Y44232D01*
X16779Y43907D01*
X17001Y43544D01*
X17165Y43150D01*
X17264Y42735D01*
X17298Y42310D01*
X17264Y41885D01*
X17165Y41470D01*
X17001Y41076D01*
X16779Y40713D01*
X16502Y40388D01*
X16177Y40111D01*
X15814Y39889D01*
X15420Y39725D01*
X15005Y39626D01*
X14580Y39592D01*
X14155Y39626D01*
X13740Y39725D01*
X13346Y39889D01*
X12983Y40111D01*
X12658Y40388D01*
X12381Y40713D01*
X12159Y41076D01*
X11995Y41470D01*
X11896Y41885D01*
X11862Y42310D01*
X11896Y42735D01*
X11995Y43150D01*
X12159Y43544D01*
X12381Y43907D01*
X12658Y44232D01*
X12983Y44509D01*
X13346Y44731D01*
X13740Y44895D01*
X14155Y44994D01*
X14580Y45028D01*
X15005Y44994D01*
D02*
G37*
%LPC*%
G36*
X14752Y44061D02*
X14408D01*
X14069Y43994D01*
X13751Y43862D01*
X13464Y43670D01*
X13220Y43426D01*
X13028Y43139D01*
X12896Y42821D01*
X12829Y42482D01*
Y42138D01*
X12896Y41799D01*
X13028Y41481D01*
X13220Y41194D01*
X13464Y40950D01*
X13751Y40758D01*
X14069Y40626D01*
X14408Y40559D01*
X14752D01*
X15091Y40626D01*
X15409Y40758D01*
X15696Y40950D01*
X15940Y41194D01*
X16132Y41481D01*
X16264Y41799D01*
X16331Y42138D01*
Y42482D01*
X16264Y42821D01*
X16132Y43139D01*
X15940Y43426D01*
X15696Y43670D01*
X15409Y43862D01*
X15091Y43994D01*
X14752Y44061D01*
D02*
G37*
%LPD*%
G36*
X64862Y13935D02*
X64995Y13846D01*
X65151Y13815D01*
X73857D01*
X74013Y13846D01*
X74146Y13935D01*
X77550Y17339D01*
X77648Y17312D01*
X77677Y17291D01*
Y15713D01*
X75048Y13084D01*
X65091D01*
X55597Y22578D01*
X55650Y22705D01*
X56092D01*
X64862Y13935D01*
D02*
G37*
G36*
X64633Y12386D02*
X64766Y12297D01*
X64922Y12266D01*
X75217D01*
X75374Y12297D01*
X75506Y12386D01*
X78375Y15255D01*
X78464Y15387D01*
X78495Y15544D01*
Y20817D01*
X78502Y20822D01*
X78629Y20754D01*
Y14096D01*
X76373Y11839D01*
X64304D01*
X54291Y21852D01*
X54323Y21958D01*
X54338Y21979D01*
X55040D01*
X64633Y12386D01*
D02*
G37*
G36*
X116505Y16994D02*
X116920Y16895D01*
X117314Y16731D01*
X117677Y16509D01*
X118002Y16232D01*
X118279Y15907D01*
X118501Y15544D01*
X118665Y15150D01*
X118764Y14735D01*
X118798Y14310D01*
X118764Y13885D01*
X118665Y13470D01*
X118501Y13076D01*
X118279Y12713D01*
X118002Y12388D01*
X117677Y12111D01*
X117314Y11889D01*
X116920Y11725D01*
X116505Y11626D01*
X116080Y11592D01*
X115655Y11626D01*
X115240Y11725D01*
X114846Y11889D01*
X114483Y12111D01*
X114158Y12388D01*
X113881Y12713D01*
X113659Y13076D01*
X113495Y13470D01*
X113396Y13885D01*
X113362Y14310D01*
X113396Y14735D01*
X113495Y15150D01*
X113659Y15544D01*
X113881Y15907D01*
X114158Y16232D01*
X114483Y16509D01*
X114846Y16731D01*
X115240Y16895D01*
X115655Y16994D01*
X116080Y17028D01*
X116505Y16994D01*
D02*
G37*
%LPC*%
G36*
X116252Y16061D02*
X115908D01*
X115569Y15994D01*
X115251Y15862D01*
X114964Y15670D01*
X114720Y15426D01*
X114528Y15139D01*
X114396Y14821D01*
X114329Y14482D01*
Y14138D01*
X114396Y13799D01*
X114528Y13481D01*
X114720Y13194D01*
X114964Y12950D01*
X115251Y12758D01*
X115569Y12626D01*
X115908Y12559D01*
X116252D01*
X116591Y12626D01*
X116909Y12758D01*
X117196Y12950D01*
X117440Y13194D01*
X117632Y13481D01*
X117764Y13799D01*
X117831Y14138D01*
Y14482D01*
X117764Y14821D01*
X117632Y15139D01*
X117440Y15426D01*
X117196Y15670D01*
X116909Y15862D01*
X116591Y15994D01*
X116252Y16061D01*
D02*
G37*
%LPD*%
G36*
X15005Y16994D02*
X15420Y16895D01*
X15814Y16731D01*
X16177Y16509D01*
X16502Y16232D01*
X16779Y15907D01*
X17001Y15544D01*
X17165Y15150D01*
X17264Y14735D01*
X17298Y14310D01*
X17264Y13885D01*
X17165Y13470D01*
X17001Y13076D01*
X16779Y12713D01*
X16502Y12388D01*
X16177Y12111D01*
X15814Y11889D01*
X15420Y11725D01*
X15005Y11626D01*
X14580Y11592D01*
X14155Y11626D01*
X13740Y11725D01*
X13346Y11889D01*
X12983Y12111D01*
X12658Y12388D01*
X12381Y12713D01*
X12159Y13076D01*
X11995Y13470D01*
X11896Y13885D01*
X11862Y14310D01*
X11896Y14735D01*
X11995Y15150D01*
X12159Y15544D01*
X12381Y15907D01*
X12658Y16232D01*
X12983Y16509D01*
X13346Y16731D01*
X13740Y16895D01*
X14155Y16994D01*
X14580Y17028D01*
X15005Y16994D01*
D02*
G37*
%LPC*%
G36*
X14752Y16061D02*
X14408D01*
X14069Y15994D01*
X13751Y15862D01*
X13464Y15670D01*
X13220Y15426D01*
X13028Y15139D01*
X12896Y14821D01*
X12829Y14482D01*
Y14138D01*
X12896Y13799D01*
X13028Y13481D01*
X13220Y13194D01*
X13464Y12950D01*
X13751Y12758D01*
X14069Y12626D01*
X14408Y12559D01*
X14752D01*
X15091Y12626D01*
X15409Y12758D01*
X15696Y12950D01*
X15940Y13194D01*
X16132Y13481D01*
X16264Y13799D01*
X16331Y14138D01*
Y14482D01*
X16264Y14821D01*
X16132Y15139D01*
X15940Y15426D01*
X15696Y15670D01*
X15409Y15862D01*
X15091Y15994D01*
X14752Y16061D01*
D02*
G37*
%LPD*%
D28*
X23409Y20025D02*
X53762D01*
X21844Y21590D02*
X23409Y20025D01*
X53762D02*
X63881Y9906D01*
X56274Y28810D02*
X65667Y19417D01*
X70200D01*
X56274Y28810D02*
Y30200D01*
X78086Y15544D02*
Y21113D01*
X64922Y12675D02*
X75217D01*
X78086Y15544D01*
X55209Y22388D02*
X64922Y12675D01*
X21175Y49275D02*
X22280D01*
X20675Y48775D02*
X21175Y49275D01*
X20675Y45075D02*
Y48775D01*
X52750Y41858D02*
Y46125D01*
X53399Y46774D02*
X56775D01*
X52750Y46125D02*
X53399Y46774D01*
X65445Y23315D02*
X69977D01*
X77286Y21704D02*
X81654Y26073D01*
X79938Y25725D02*
X80609Y26396D01*
X77286Y17653D02*
Y21704D01*
X61469Y46075D02*
X63350Y44194D01*
X58025Y46075D02*
X61469D01*
X63350Y40350D02*
Y44194D01*
X61850Y38850D02*
X63350Y40350D01*
X54158Y40450D02*
X55875D01*
X52750Y41858D02*
X54158Y40450D01*
X93646Y20400D02*
X98190D01*
X90170Y23876D02*
X93646Y20400D01*
X89281Y18953D02*
X89434Y18800D01*
X89281Y18953D02*
Y28321D01*
X90170Y29210D01*
X65024Y17653D02*
X74930D01*
X75057Y17780D01*
X61087Y21590D02*
X65024Y17653D01*
X65151Y14224D02*
X73857D01*
X56261Y23114D02*
X65151Y14224D01*
X30353Y23114D02*
X56261D01*
X79883Y31877D02*
X83693D01*
X79375Y30226D02*
X79883Y29718D01*
X67274Y30226D02*
X79375D01*
X63250Y34250D02*
X67274Y30226D01*
X70849Y31151D02*
X79477D01*
X67750Y34250D02*
X70849Y31151D01*
X73025Y31877D02*
Y34922D01*
X79477Y31151D02*
X80609Y30019D01*
X85380Y17204D02*
Y18000D01*
X63881Y9906D02*
X78082D01*
X85380Y17204D01*
X80609Y26396D02*
Y30019D01*
X78086Y21113D02*
X81281Y24308D01*
X79038Y13926D02*
Y21075D01*
X73857Y14224D02*
X77286Y17653D01*
X81545Y23582D02*
X81582D01*
X79038Y21075D02*
X81545Y23582D01*
X76542Y11430D02*
X79038Y13926D01*
X56274Y30200D02*
X58500Y32426D01*
Y34250D01*
X64545Y22988D02*
Y23847D01*
X65827Y21705D02*
X67750D01*
X64516Y23876D02*
X64545Y23847D01*
Y22988D02*
X65827Y21705D01*
X57000Y29111D02*
X65791Y20320D01*
X73420D01*
X30052Y22388D02*
X55209D01*
X53975Y21590D02*
X64135Y11430D01*
X76542D01*
X24365Y21590D02*
X53975D01*
X73025Y34922D02*
X77353Y39250D01*
X79500D01*
X73420Y20320D02*
X73500Y20400D01*
X81293Y24308D02*
X81459Y24474D01*
X81281Y24308D02*
X81293D01*
X81459Y24474D02*
X81500D01*
X29961Y22479D02*
X30052Y22388D01*
X26924Y22479D02*
X29961D01*
D29*
X63742Y7632D02*
X100357D01*
X58039Y13335D02*
X63742Y7632D01*
X100357D02*
X106386Y1603D01*
D31*
X111750Y27750D02*
D03*
D32*
Y29020D02*
D03*
D33*
X65445Y2413D02*
D03*
X70445D02*
D03*
X83300D02*
D03*
X78300D02*
D03*
X101319D02*
D03*
X106319D02*
D03*
X122087D02*
D03*
X127087D02*
D03*
X116731D02*
D03*
X111731D02*
D03*
X8469Y2365D02*
D03*
X3469D02*
D03*
X13796Y2413D02*
D03*
X18796D02*
D03*
X29365D02*
D03*
X24365D02*
D03*
X42775D02*
D03*
X47775D02*
D03*
X58253D02*
D03*
X53253D02*
D03*
X3300Y28200D02*
D03*
Y23200D02*
D03*
D34*
X92000Y14000D02*
D03*
X96500Y42750D02*
D03*
X15250Y34750D02*
D03*
X127250Y43000D02*
D03*
X15250Y53500D02*
D03*
X79500Y39250D02*
D03*
X54500Y34250D02*
D03*
X58500D02*
D03*
X63250D02*
D03*
X67750Y34250D02*
D03*
X98000Y35500D02*
D03*
X127750Y37250D02*
D03*
X109000Y24527D02*
D03*
X9250Y39750D02*
D03*
X15250Y19750D02*
D03*
X93000Y32250D02*
D03*
Y28407D02*
D03*
Y24527D02*
D03*
X10000Y19750D02*
D03*
X27865Y37250D02*
D03*
X48006Y34099D02*
D03*
D35*
X84540Y42500D02*
D03*
X82040D02*
D03*
D36*
X79540D02*
D03*
D37*
X86790Y50000D02*
D03*
X77290D02*
D03*
D38*
X3250Y7675D02*
D03*
X127987Y25514D02*
D03*
X76960Y34250D02*
D03*
X79500D02*
D03*
X82040D02*
D03*
X84580D02*
D03*
X87120D02*
D03*
D39*
X3250Y19325D02*
D03*
X127987Y28054D02*
D03*
D40*
X124750Y51750D02*
D03*
X122350Y49750D02*
D03*
X116850D02*
D03*
D41*
X74420Y34250D02*
D03*
D42*
X9540Y49500D02*
D03*
X4460D02*
D03*
D43*
X7000D02*
D03*
D44*
X116080Y14310D02*
D03*
Y42310D02*
D03*
X14580D02*
D03*
Y14310D02*
D03*
D45*
X18375Y51450D02*
D03*
X125700Y24525D02*
D03*
X65445Y23315D02*
D03*
X20675Y45075D02*
D03*
X56775Y46774D02*
D03*
X79883Y25590D02*
D03*
X58025Y46075D02*
D03*
X61850Y38850D02*
D03*
X55875Y40450D02*
D03*
X69977Y23315D02*
D03*
X98190Y20400D02*
D03*
X90170Y23876D02*
D03*
X89434Y18800D02*
D03*
X75057Y17780D02*
D03*
X61087Y21590D02*
D03*
X90170Y29210D02*
D03*
X79883Y31877D02*
D03*
X83693D02*
D03*
X73025D02*
D03*
X79883Y29718D02*
D03*
X81654Y26073D02*
D03*
X67750Y21705D02*
D03*
X64516Y23876D02*
D03*
X70200Y19417D02*
D03*
X57000Y29111D02*
D03*
X73500Y20400D02*
D03*
X81500Y24474D02*
D03*
X30353Y23114D02*
D03*
X81582Y23582D02*
D03*
X26924Y22479D02*
D03*
X24365Y21590D02*
D03*
X85380Y18000D02*
D03*
X21844Y21590D02*
D03*
X58039Y13335D02*
D03*
X22280Y49275D02*
D03*
D46*
X18375Y51450D02*
X18425Y51500D01*
X31000D01*
X115068Y24432D02*
X125607D01*
X110877Y27619D02*
X111750D01*
X31000Y51500D02*
X34500Y48000D01*
X103500D02*
X108000Y43500D01*
X34500Y48000D02*
X103500D01*
X111750Y27750D02*
X115068Y24432D01*
X108000Y30496D02*
Y43500D01*
Y30496D02*
X110877Y27619D01*
D47*
X49863Y11262D02*
X50879D01*
X49863Y12278D01*
Y12531D01*
X50117Y12785D01*
X50625D01*
X50879Y12531D01*
X48339Y11262D02*
X49355D01*
X48339Y12278D01*
Y12531D01*
X48593Y12785D01*
X49101D01*
X49355Y12531D01*
X46816Y11262D02*
X47832D01*
X46816Y12278D01*
Y12531D01*
X47070Y12785D01*
X47578D01*
X47832Y12531D01*
X46308Y12785D02*
X45292D01*
Y12531D01*
X46308Y11516D01*
Y11262D01*
X44785Y11008D02*
X43769D01*
X43261Y12785D02*
Y11262D01*
X42499D01*
X42245Y11516D01*
Y11770D01*
X42499Y12024D01*
X43261D01*
X42499D01*
X42245Y12278D01*
Y12531D01*
X42499Y12785D01*
X43261D01*
X41484Y11262D02*
X40976D01*
X40722Y11516D01*
Y12024D01*
X40976Y12278D01*
X41484D01*
X41737Y12024D01*
Y11516D01*
X41484Y11262D01*
X40214D02*
X39706D01*
X39960D01*
Y12278D01*
X40214D01*
X38690Y12531D02*
Y12278D01*
X38944D01*
X38437D01*
X38690D01*
Y11516D01*
X38437Y11262D01*
X36913D02*
X37421D01*
X37675Y11516D01*
Y12024D01*
X37421Y12278D01*
X36913D01*
X36659Y12024D01*
Y11770D01*
X37675D01*
X36151Y12785D02*
Y11262D01*
X35390D01*
X35136Y11516D01*
Y11770D01*
X35390Y12024D01*
X36151D01*
X35390D01*
X35136Y12278D01*
Y12531D01*
X35390Y12785D01*
X36151D01*
X34628Y12278D02*
Y11262D01*
Y11770D01*
X34374Y12024D01*
X34120Y12278D01*
X33866D01*
X33104D02*
Y11516D01*
X32850Y11262D01*
X32089D01*
Y12278D01*
X31581Y11262D02*
X31073D01*
X31327D01*
Y12278D01*
X31581D01*
X30057Y12531D02*
Y12278D01*
X30311D01*
X29803D01*
X30057D01*
Y11516D01*
X29803Y11262D01*
X28788Y12278D02*
X28280D01*
X28026Y12024D01*
Y11262D01*
X28788D01*
X29042Y11516D01*
X28788Y11770D01*
X28026D01*
X27010Y10754D02*
X26756D01*
X26502Y11008D01*
Y12278D01*
X27264D01*
X27518Y12024D01*
Y11516D01*
X27264Y11262D01*
X26502D01*
X25233D02*
X25741D01*
X25995Y11516D01*
Y12024D01*
X25741Y12278D01*
X25233D01*
X24979Y12024D01*
Y11770D01*
X25995D01*
X24471Y11008D02*
X23455D01*
X22948Y12785D02*
Y11262D01*
X21932D01*
X21424Y12785D02*
Y11262D01*
X20662D01*
X20408Y11516D01*
Y12531D01*
X20662Y12785D01*
X21424D01*
X19901D02*
Y11262D01*
X19139D01*
X18885Y11516D01*
Y12531D01*
X19139Y12785D01*
X19901D01*
X5954Y26403D02*
Y25387D01*
X6462Y24879D01*
X6970Y25387D01*
Y26403D01*
X7478Y24879D02*
X7985D01*
X7731D01*
Y25895D01*
X7478D01*
X8747Y24879D02*
Y25895D01*
X9509D01*
X9763Y25641D01*
Y24879D01*
%TF.MD5,acaf7a1ed766737cce2e381bacdaa53e*%
M02*
